<svg width="163" height="414" viewBox="0 0 163 414" fill="none" xmlns="http://www.w3.org/2000/svg">
<g clip-path="url(#clip0_23_116)">
<path d="M146.554 194.271C146.584 194.351 146.604 194.431 146.634 194.511C146.424 194.901 146.174 195.391 145.724 195.931C145.484 196.231 145.174 196.531 144.794 196.851C144.524 197.071 144.244 197.251 143.944 197.421C143.374 197.741 142.704 198.001 141.804 198.311C141.454 198.431 141.064 198.561 140.634 198.701C140.264 198.821 139.924 198.931 139.624 199.011C138.694 199.261 138.054 199.291 137.394 199.171C137.354 199.171 137.314 199.161 137.274 199.141C136.614 199.011 136.104 198.751 136.014 198.711C135.644 198.521 135.364 198.331 135.144 198.141C134.654 197.721 134.464 197.361 134.154 197.331C134.104 197.331 134.044 197.331 133.984 197.331C133.984 197.261 133.974 197.201 133.964 197.141C133.924 196.831 133.904 196.621 133.874 196.471C133.504 194.221 132.754 190.481 130.474 184.061C128.724 179.121 127.604 176.901 126.624 174.951C125.754 173.221 124.994 171.721 123.994 168.791C122.664 164.901 121.924 160.091 120.664 151.161C120.614 150.821 120.564 150.471 120.514 150.111C120.814 150.391 121.164 150.641 121.554 150.851C122.144 151.171 122.814 151.411 123.554 151.581C124.264 151.741 125.034 151.831 125.824 151.871C126.574 151.901 127.344 151.871 128.094 151.791C128.864 151.711 129.634 151.571 130.354 151.381C130.704 151.291 131.044 151.191 131.374 151.081C131.674 150.981 132.084 150.831 132.564 150.611C133.174 150.341 133.884 149.971 134.634 149.481C134.954 149.271 135.284 149.031 135.604 148.771C135.854 148.571 136.114 148.351 136.364 148.111C136.994 150.141 137.794 151.811 138.264 152.711C138.694 153.551 139.124 154.271 139.574 154.931C140.584 156.411 141.314 157.431 141.904 158.251C142.284 158.791 142.594 159.221 142.864 159.601C144.384 161.831 144.594 164.071 144.964 168.141C145.134 169.931 145.114 170.831 145.044 173.811C145.024 174.861 144.994 176.191 144.964 177.911C144.884 182.891 144.844 185.391 144.964 186.641C145.274 189.891 145.934 192.461 146.554 194.301V194.271Z" fill="white"/>
<path d="M162.424 215.191C161.814 215.871 160.384 215.491 157.524 213.901C157.244 213.741 156.964 213.581 156.684 213.411C157.174 214.611 157.584 215.841 157.904 217.081C158.624 219.831 158.944 222.671 158.844 225.541V225.901L158.484 225.981C155.504 226.661 152.484 226.821 149.534 226.451C147.234 226.161 144.634 225.831 141.934 224.071C139.054 222.181 137.674 219.741 137.154 218.821C135.674 216.191 135.494 214.241 134.864 207.011L134.794 206.141C134.454 202.271 134.224 199.761 134.074 198.231C134.044 197.871 134.014 197.571 133.984 197.321C134.044 197.311 134.104 197.311 134.154 197.321C134.454 197.361 134.644 197.721 135.144 198.131C135.364 198.321 135.634 198.521 136.014 198.701C136.104 198.741 136.614 199.001 137.274 199.131C137.314 199.141 137.354 199.151 137.394 199.161C138.054 199.281 138.694 199.251 139.624 199.001C139.924 198.921 140.254 198.821 140.634 198.691C141.064 198.551 141.454 198.421 141.804 198.301C142.704 197.991 143.374 197.731 143.944 197.411C144.254 197.241 144.524 197.061 144.794 196.841C145.184 196.531 145.484 196.221 145.724 195.921C146.164 195.381 146.414 194.891 146.634 194.501C146.724 194.781 146.824 195.041 146.914 195.281C147.224 196.091 147.504 196.701 147.694 197.091L147.734 197.171C148.594 198.901 149.114 199.941 150.224 201.151C151.244 202.261 152.364 203.091 153.544 203.961C154.634 204.761 155.754 205.581 156.864 206.681L157.134 206.951C157.424 207.241 157.744 207.551 158.254 208.071C160.694 210.541 161.204 211.281 161.554 211.851C162.344 213.161 163.054 214.491 162.424 215.181V215.191Z" fill="white"/>
<path d="M136.364 148.081C136.114 148.321 135.864 148.531 135.604 148.741C135.284 149.001 134.954 149.231 134.634 149.451C133.884 149.941 133.174 150.321 132.564 150.581C132.084 150.801 131.674 150.951 131.374 151.051C131.044 151.161 130.704 151.261 130.354 151.351C129.624 151.541 128.864 151.671 128.094 151.761C127.344 151.841 126.574 151.871 125.824 151.841C125.034 151.811 124.274 151.721 123.554 151.551C122.814 151.381 122.144 151.151 121.554 150.821C121.164 150.611 120.814 150.361 120.514 150.081C120.514 150.071 120.514 150.051 120.514 150.041C120.444 149.491 120.364 148.931 120.274 148.351C119.954 146.051 119.724 144.261 119.524 142.671C119.084 139.161 118.784 136.841 117.964 133.091C117.224 129.731 116.314 126.381 115.254 123.131C115.194 123.371 115.144 123.601 115.094 123.841C115.144 123.121 115.174 122.331 115.174 121.431C115.174 120.931 115.164 120.441 115.144 119.921C115.144 119.551 115.124 119.161 115.124 118.751C115.124 118.101 115.114 117.381 115.124 116.531C115.124 116.051 115.154 115.531 115.174 114.951C115.174 114.741 115.194 114.531 115.204 114.311C115.234 113.641 115.274 112.901 115.334 112.091C115.384 111.401 115.454 110.661 115.544 109.871C115.624 109.171 115.724 108.441 115.844 107.661C115.914 107.171 116.004 106.671 116.104 106.161C116.154 105.921 116.194 105.691 116.234 105.461C116.394 104.691 116.554 103.961 116.724 103.281C116.914 102.491 117.114 101.771 117.304 101.121C117.554 100.271 117.794 99.5506 117.984 98.9906C118.164 98.4706 118.314 98.0706 118.404 97.8306C118.524 97.5206 118.644 97.2106 118.764 96.8906C119.014 96.2206 119.294 95.5306 119.604 94.8206C119.884 94.1506 120.194 93.4706 120.534 92.7806C120.844 92.1306 121.204 91.4706 121.584 90.8006C121.954 90.1806 122.344 89.5406 122.784 88.9106C123.194 88.3206 123.634 87.7306 124.124 87.1306C124.364 86.8406 124.614 86.5406 124.874 86.2506C125.114 85.9806 125.364 85.7206 125.604 85.4706C126.144 84.9106 126.674 84.3906 127.164 83.9206C127.704 83.4006 128.204 82.9206 128.634 82.4806C128.874 82.2306 129.084 82.0006 129.274 81.7706C129.374 81.9106 129.474 82.0706 129.584 82.2106C130.524 83.6106 131.444 85.1906 132.244 86.9906C134.544 92.1306 134.904 96.5206 135.064 100.581C135.244 105.021 135.364 108.811 135.434 112.501C135.774 128.461 135.554 135.841 135.524 136.261L135.484 136.681C135.234 139.161 134.904 142.561 135.974 146.741C136.004 146.871 136.034 146.991 136.074 147.121C136.134 147.321 136.184 147.521 136.244 147.711C136.274 147.831 136.314 147.941 136.354 148.051L136.364 148.081Z" fill="white"/>
<path d="M73.0939 338.421C72.8539 342.241 72.6739 344.961 72.4739 347.971C72.3639 349.511 72.3139 350.191 72.2739 350.761C72.2439 351.211 72.2139 351.601 72.1639 352.301C71.9439 355.531 71.7939 358.101 71.7039 360.171C71.7039 360.411 71.6839 360.651 71.6739 360.871C71.3839 360.691 71.0539 360.511 70.6939 360.341C70.1739 360.091 69.5739 359.851 68.9239 359.661C68.8239 359.631 68.7239 359.601 68.6239 359.581C67.9439 359.401 67.2939 359.331 66.4439 359.281C65.9639 359.251 65.4139 359.231 64.7639 359.201C64.5839 359.201 64.4139 359.181 64.2539 359.181C64.2039 359.181 64.1539 359.181 64.1139 359.181C63.3839 359.151 62.7639 359.141 62.0539 359.181C61.8839 359.181 61.7139 359.201 61.5339 359.211C61.0639 359.251 60.5039 359.311 59.8739 359.411C59.2239 359.521 58.5039 359.671 57.7239 359.891C57.4539 359.961 57.1839 360.041 56.9039 360.141C56.5539 360.251 56.1739 360.391 55.7839 360.531C55.4739 360.641 55.1739 360.771 54.8939 360.891C54.8739 360.661 54.8439 360.431 54.8239 360.191C54.8039 359.991 54.7839 359.791 54.7639 359.581L54.3639 355.501C54.0039 351.851 53.9939 351.771 53.9439 351.481C53.5439 349.171 53.0039 347.271 52.3839 345.061C51.6239 342.371 50.7639 339.311 49.9739 334.781C49.1639 330.141 48.8939 326.791 48.5839 312.041C48.5039 308.171 48.4439 304.801 48.3939 301.851C48.3939 301.141 48.3739 300.451 48.3739 299.791C48.3739 299.551 48.3739 299.321 48.3739 299.091C48.6339 298.921 48.9339 298.711 49.2939 298.471C49.5439 298.291 49.8139 298.111 50.1239 297.911C50.6439 297.561 51.2539 297.171 51.9939 296.751C52.2339 296.611 52.4939 296.461 52.7639 296.311C53.1739 296.081 53.5339 295.881 53.8839 295.701C54.5939 295.331 55.2039 295.031 55.8739 294.781C56.2039 294.661 56.5539 294.551 56.9239 294.461C57.2839 294.371 57.6339 294.291 57.9739 294.231C58.7739 294.091 59.4939 294.031 60.1439 294.001C60.6639 293.981 61.1339 293.991 61.5439 294.001C61.7339 294.001 62.0039 294.001 62.3139 294.021C62.7439 294.041 63.2639 294.071 63.8439 294.141C64.0439 294.161 64.2539 294.191 64.4639 294.221C64.8639 294.281 65.2839 294.361 65.7039 294.471C66.0139 294.541 66.3139 294.631 66.5839 294.721C67.3839 294.981 68.0439 295.281 68.5939 295.601C69.0839 295.881 69.4839 296.171 69.8439 296.441C70.1739 296.691 70.4639 296.931 70.7339 297.131C70.7139 297.491 70.7039 297.831 70.6939 298.161C70.5839 301.421 70.7239 303.411 70.8039 304.151C71.1139 307.381 71.6039 308.891 72.1739 310.641C72.6139 312.011 73.1139 313.551 73.5739 316.151C74.1039 319.121 74.2239 321.031 73.1239 338.461L73.0939 338.421Z" fill="white"/>
<path d="M111.484 327.751V328.681C111.424 335.181 110.154 340.141 109.674 342.011L109.624 342.211C107.994 348.571 107.224 355.481 106.854 358.801C106.784 359.441 106.714 360.071 106.644 360.691C106.634 360.811 106.614 360.941 106.604 361.071C105.994 360.731 105.284 360.441 104.444 360.131C104.044 359.981 103.614 359.831 103.154 359.671C102.814 359.551 102.454 359.421 102.074 359.311C101.514 359.131 100.904 358.981 100.224 358.881H100.204C99.6939 358.801 99.1339 358.761 98.5339 358.761C98.0139 358.761 97.5139 358.801 97.0639 358.851C96.0639 358.981 95.2339 359.221 94.5839 359.441C94.3339 359.531 94.1039 359.611 93.9039 359.691C93.4139 359.881 92.5939 360.191 92.2339 360.351C91.7439 360.571 91.0039 361.021 90.1939 362.001C90.1139 361.461 90.0039 360.651 89.9039 359.681C90.0239 354.181 90.0939 351.251 89.9339 349.431C89.9339 349.311 89.9139 349.211 89.9039 349.101C89.5239 345.491 88.7039 341.721 87.0839 334.211C86.5839 331.881 86.2139 329.271 86.0339 326.671C85.9639 325.551 85.9539 324.351 86.0139 322.651C86.2439 316.671 87.0039 313.391 87.6839 310.491C88.0539 308.901 88.4039 307.421 88.6239 305.651C88.6739 305.291 88.7039 304.911 88.7439 304.521C88.8039 303.821 88.8439 303.071 88.8639 302.251C89.2139 301.791 89.7039 301.201 90.4839 300.521C90.6739 300.351 90.8839 300.181 91.1139 300.001C91.5039 299.701 91.8839 299.431 92.2539 299.201C92.9539 298.751 93.6039 298.411 94.1539 298.151C94.6039 297.941 94.9939 297.791 95.2739 297.691C95.5839 297.571 95.8939 297.481 96.1839 297.391C96.9639 297.161 97.6739 297.021 98.3239 296.931C98.8939 296.841 99.4239 296.801 99.9039 296.761C100.114 296.741 100.314 296.731 100.514 296.721C101.274 296.681 101.944 296.691 102.694 296.721C102.984 296.731 103.284 296.751 103.614 296.761C104.084 296.781 104.494 296.801 104.864 296.821C105.814 296.871 106.504 296.931 107.064 297.041C107.314 297.091 107.554 297.151 107.774 297.221C108.304 297.401 108.744 297.631 109.114 297.881C110.294 298.671 110.834 299.691 111.384 300.181C111.364 307.911 111.384 317.051 111.474 327.751H111.484Z" fill="white"/>
<path d="M116.574 223.231C116.194 233.591 115.424 237.891 114.534 242.871C113.734 247.321 112.834 252.381 112.124 263.031C112.124 263.121 111.764 268.591 111.554 282.411C111.524 284.541 111.494 286.881 111.464 289.421C111.434 292.661 111.404 296.241 111.394 300.191C110.844 299.701 110.304 298.681 109.124 297.891C108.754 297.641 108.314 297.411 107.784 297.231C107.564 297.161 107.334 297.101 107.074 297.051C106.514 296.941 105.824 296.881 104.874 296.831C104.504 296.811 104.084 296.791 103.624 296.771C103.304 296.761 103.004 296.741 102.704 296.731C101.954 296.701 101.284 296.691 100.524 296.731C100.334 296.731 100.124 296.751 99.9138 296.771C99.4338 296.811 98.9138 296.851 98.3338 296.941C97.6838 297.031 96.9738 297.171 96.1938 297.401C95.8938 297.481 95.5938 297.581 95.2838 297.701C94.9938 297.801 94.6138 297.951 94.1638 298.161C93.6138 298.411 92.9638 298.761 92.2638 299.211C91.8938 299.451 91.5138 299.711 91.1238 300.011C90.8938 300.191 90.6938 300.361 90.4938 300.531C89.7138 301.211 89.2238 301.811 88.8738 302.261C88.8938 301.191 88.8738 300.001 88.8138 298.641C88.6238 295.031 88.1938 292.851 87.6838 290.531C87.6338 290.311 87.5838 290.081 87.5338 289.851C87.4538 289.491 87.3738 289.121 87.2838 288.741C86.6838 285.971 86.0438 282.591 85.5638 276.441C85.3738 273.891 85.2938 272.051 85.2238 270.281C85.1338 267.911 85.0338 265.451 84.6338 261.181C84.2038 256.471 83.8538 254.411 83.5538 252.591C83.4238 251.811 83.3038 251.081 83.1838 250.211C82.9938 248.761 82.8838 247.561 82.7938 246.381C82.2838 239.981 82.0638 231.561 82.0438 230.621C81.9438 226.641 81.9338 225.041 81.9238 224.191C81.9238 223.431 81.9238 223.181 81.8638 222.311C81.7438 220.171 81.5538 218.031 81.3038 215.911C81.1438 214.571 80.9538 213.231 80.7338 211.911C80.6638 211.631 80.5538 211.221 80.4738 210.721C80.3138 209.771 80.2638 208.821 80.2738 208.171C80.2738 207.981 80.2738 207.821 80.2938 207.691C80.3138 207.451 80.3438 207.311 80.3838 207.311C80.4038 207.311 80.4338 207.341 80.4738 207.491C80.6138 207.631 80.7738 207.771 80.9338 207.931C81.5538 208.501 82.3138 209.171 83.2338 209.891C83.3838 210.011 83.5438 210.141 83.7138 210.261C83.9538 210.451 84.4438 210.821 85.0638 211.261C85.6238 211.661 86.2838 212.111 86.9638 212.521C87.2738 212.711 87.5838 212.881 87.8838 213.041C88.2538 213.231 88.6238 213.411 88.9938 213.561C89.7238 213.861 90.4438 214.091 91.1638 214.261C91.9338 214.451 92.6938 214.571 93.4138 214.641C94.2238 214.721 94.9938 214.751 95.6938 214.731C96.5838 214.721 97.3638 214.651 97.9838 214.571C98.4038 214.521 98.7338 214.461 98.9838 214.431C99.4238 214.361 99.8438 214.281 100.254 214.191C101.054 214.011 101.794 213.801 102.474 213.571C103.274 213.301 103.984 213.011 104.614 212.711C105.454 212.321 106.134 211.931 106.634 211.621C106.924 211.441 107.144 211.291 107.314 211.181C107.654 210.951 108.054 210.661 108.494 210.311C109.014 209.901 109.584 209.401 110.174 208.811C110.674 208.321 111.184 207.761 111.684 207.131C112.134 206.571 112.574 205.951 112.994 205.271C113.114 205.081 113.224 204.901 113.334 204.701C113.524 204.361 113.774 203.901 114.064 203.241C114.304 202.681 114.564 201.981 114.854 201.081C115.034 200.501 115.234 199.831 115.434 199.051C115.504 198.791 115.574 198.511 115.644 198.221C115.844 197.401 116.024 196.611 116.184 195.831C116.804 206.391 116.804 216.751 116.564 223.221L116.574 223.231Z" fill="white"/>
<path d="M80.7538 211.911C80.6738 212.551 80.5938 213.191 80.5038 213.831V213.851C80.0938 216.961 79.6938 220.121 79.2738 223.281C77.7738 234.701 76.9838 240.231 76.5638 243.211C76.1038 246.441 76.0138 247.021 75.8638 249.151C75.4638 254.471 75.3638 258.841 75.2638 262.701C75.1238 268.391 75.0138 272.881 73.9938 276.981C73.8938 277.391 73.7738 277.841 73.6538 278.311C73.4238 279.211 73.1638 280.221 72.8938 281.341C72.4338 283.291 71.9438 285.611 71.5438 288.371C71.4238 289.141 71.3238 289.951 71.2238 290.791C70.9538 293.121 70.7938 295.151 70.7138 296.881C70.7138 296.951 70.7138 297.021 70.7138 297.091C70.4438 296.891 70.1538 296.661 69.8238 296.401C69.4638 296.131 69.0638 295.841 68.5738 295.561C68.0238 295.251 67.3738 294.941 66.5638 294.681C66.2938 294.591 65.9938 294.511 65.6838 294.431C65.2638 294.331 64.8438 294.251 64.4438 294.181C64.2338 294.151 64.0138 294.121 63.8238 294.101C63.2438 294.041 62.7238 294.001 62.2938 293.981C61.9838 293.971 61.7238 293.971 61.5238 293.961C61.1138 293.961 60.6438 293.961 60.1238 293.961C59.4738 293.981 58.7438 294.041 57.9538 294.191C57.6138 294.251 57.2638 294.321 56.9038 294.421C56.5238 294.521 56.1738 294.621 55.8538 294.741C55.1838 294.991 54.5738 295.281 53.8638 295.661C53.5138 295.851 53.1538 296.041 52.7438 296.271C52.4738 296.421 52.2138 296.571 51.9738 296.711C51.2338 297.141 50.6238 297.521 50.1038 297.871C49.7938 298.071 49.5238 298.261 49.2738 298.431C48.9238 298.671 48.6238 298.871 48.3538 299.051C48.3138 295.971 48.2938 293.381 48.2938 291.141C48.2938 288.941 48.2938 287.081 48.2938 285.411C48.2938 280.741 48.2938 277.371 48.1138 272.231C47.7238 261.471 46.9838 256.541 46.2638 251.771C45.5638 247.091 44.8338 242.251 44.4138 231.981C43.9038 219.431 44.2338 208.591 44.6938 200.191C44.8038 198.301 44.9038 196.541 45.0138 194.911C45.0138 194.911 45.0138 194.911 45.0238 194.911C45.0238 195.021 45.0438 195.111 45.0538 195.211C45.0538 195.311 45.0738 195.401 45.0838 195.501C45.0838 195.581 45.1038 195.651 45.1138 195.721C45.1538 195.991 45.2038 196.231 45.2438 196.441C45.2738 196.571 45.3038 196.701 45.3238 196.801C45.4338 197.221 45.5638 197.721 45.7138 198.291C45.8638 198.821 46.0438 199.401 46.2438 200.041C46.3038 200.241 46.3738 200.431 46.4338 200.621C46.7338 201.491 46.9938 202.191 47.2338 202.791C47.3738 203.141 47.5038 203.451 47.6238 203.741C47.8138 204.181 47.9838 204.581 48.1438 204.921C48.5938 205.881 48.9538 206.471 49.3638 206.891C49.8038 207.351 50.4038 207.911 50.4038 207.911C50.5838 208.071 50.7938 208.271 51.0538 208.501C51.5238 208.911 52.1138 209.401 52.8438 209.921C53.4038 210.331 54.0438 210.751 54.7538 211.171C55.3738 211.531 56.0538 211.891 56.7938 212.221C57.4638 212.531 58.1738 212.821 58.9338 213.071C59.6338 213.301 60.3738 213.511 61.1638 213.681C61.5838 213.771 62.0038 213.851 62.4438 213.921C62.7138 213.961 63.0538 214.011 63.4338 214.061C64.0638 214.141 64.8338 214.211 65.7238 214.211C66.4138 214.221 67.1838 214.201 68.0038 214.101C68.7138 214.021 69.4638 213.901 70.2438 213.721C70.5638 213.641 70.8938 213.551 71.2238 213.461C71.4338 213.401 71.8538 213.271 72.4138 213.051C72.9738 212.831 73.6938 212.531 74.4938 212.111C75.1138 211.791 75.7738 211.401 76.4738 210.941C77.0738 210.541 77.7038 210.081 78.3238 209.551C78.4238 209.461 78.5238 209.381 78.6238 209.291C79.3238 208.671 79.8838 208.101 80.2938 207.641C80.3138 207.621 80.3238 207.611 80.3438 207.591C80.3938 207.531 80.4338 207.491 80.4738 207.441C80.5638 208.921 80.6438 210.391 80.7338 211.861L80.7538 211.911Z" fill="white"/>
<path d="M116.194 195.831C116.034 196.611 115.854 197.401 115.654 198.221C115.584 198.511 115.514 198.781 115.444 199.051C115.244 199.821 115.044 200.491 114.864 201.081C114.574 201.991 114.314 202.691 114.074 203.241C113.784 203.901 113.544 204.351 113.344 204.701C113.234 204.891 113.124 205.081 113.004 205.271C112.584 205.951 112.144 206.571 111.694 207.131C111.194 207.761 110.684 208.321 110.184 208.811C109.594 209.401 109.014 209.901 108.504 210.311C108.064 210.661 107.664 210.941 107.324 211.181C107.154 211.291 106.934 211.441 106.644 211.621C106.144 211.931 105.464 212.311 104.624 212.711C104.004 213.001 103.284 213.301 102.484 213.571C101.804 213.801 101.064 214.011 100.264 214.191C99.8539 214.281 99.4339 214.361 98.9939 214.431C98.7439 214.471 98.4039 214.521 97.9939 214.571C97.3739 214.641 96.5939 214.711 95.7039 214.731C95.0039 214.741 94.2339 214.731 93.4239 214.641C92.7039 214.571 91.9439 214.451 91.1739 214.261C90.4539 214.091 89.7339 213.861 89.0039 213.561C88.6339 213.411 88.2639 213.241 87.8939 213.041C87.5939 212.881 87.2839 212.711 86.9739 212.521C86.2939 212.111 85.6339 211.661 85.0739 211.261C84.4539 210.821 83.9639 210.451 83.7239 210.261C83.5639 210.141 83.4039 210.011 83.2439 209.891C82.3239 209.171 81.5639 208.501 80.9439 207.931C80.7739 207.771 80.6239 207.631 80.4839 207.491V171.871C80.9139 171.871 81.4039 171.871 81.9439 171.871C82.6239 171.871 83.3739 171.851 84.2139 171.821C84.9139 171.791 85.6739 171.761 86.4839 171.701C87.1939 171.651 87.9539 171.591 88.7439 171.511C89.0639 171.481 89.4039 171.441 89.7439 171.401C90.1739 171.351 90.5939 171.301 91.0039 171.261C91.7839 171.171 92.5339 171.081 93.2539 170.981C94.0239 170.871 94.7639 170.761 95.5039 170.631C96.2539 170.501 96.9839 170.341 97.7339 170.161C98.4539 169.981 99.1839 169.771 99.9139 169.521C100.604 169.291 101.314 169.021 102.034 168.711C102.094 168.681 102.164 168.651 102.234 168.631C102.234 168.631 102.954 168.321 104.054 167.691C104.614 167.381 105.264 166.981 105.974 166.501C106.544 166.111 107.154 165.671 107.774 165.181C108.334 164.731 108.914 164.241 109.474 163.701C109.534 163.641 109.584 163.591 109.634 163.541C110.134 163.051 110.604 162.551 111.004 161.961C111.234 161.641 111.434 161.281 111.594 160.911C111.674 160.721 111.754 160.531 111.814 160.331C111.824 160.111 111.864 159.861 111.944 159.841C112.214 159.801 112.814 162.371 112.874 162.591C113.124 167.041 113.414 170.141 113.734 172.761C113.924 174.381 114.134 175.831 114.344 177.301C114.764 180.301 115.204 183.401 115.654 188.441C115.654 188.451 115.654 188.471 115.654 188.481L115.754 189.601C115.814 190.371 115.874 191.151 115.944 191.931C116.004 192.701 116.054 193.481 116.104 194.261C116.124 194.591 116.144 194.921 116.164 195.251C116.174 195.451 116.194 195.651 116.204 195.851L116.194 195.831Z" fill="white"/>
<path d="M80.4938 171.861V207.481C80.4538 207.531 80.4138 207.581 80.3638 207.631C79.9438 208.101 79.3738 208.691 78.6438 209.331C78.5438 209.421 78.4438 209.501 78.3438 209.591C77.7238 210.121 77.1038 210.581 76.4938 210.981C75.8038 211.441 75.1338 211.831 74.5138 212.151C73.7138 212.571 72.9938 212.871 72.4338 213.091C71.8738 213.311 71.4538 213.431 71.2438 213.501C70.9138 213.601 70.5838 213.691 70.2638 213.761C69.4838 213.951 68.7238 214.071 68.0238 214.141C67.2038 214.231 66.4338 214.261 65.7438 214.251C64.8538 214.251 64.0838 214.181 63.4538 214.101C63.0638 214.051 62.7338 214.001 62.4638 213.961C62.0238 213.891 61.5938 213.811 61.1838 213.721C60.4038 213.551 59.6638 213.351 58.9538 213.111C58.1938 212.861 57.4738 212.571 56.8138 212.261C56.0738 211.931 55.3938 211.571 54.7738 211.211C54.0638 210.791 53.4238 210.371 52.8638 209.961C52.1438 209.441 51.5438 208.941 51.0738 208.541C50.8138 208.311 50.6038 208.111 50.4238 207.951C50.4238 207.951 49.8238 207.391 49.3838 206.941C48.9838 206.521 48.6238 205.931 48.1638 204.971C48.0038 204.631 47.8338 204.231 47.6438 203.791C47.5238 203.501 47.3938 203.191 47.2538 202.841C47.0138 202.241 46.7438 201.541 46.4538 200.671C46.3938 200.481 46.3338 200.291 46.2638 200.091C46.0638 199.461 45.8838 198.871 45.7338 198.351C45.5738 197.781 45.4438 197.281 45.3438 196.861C45.2438 196.441 45.1038 195.751 45.0338 194.891C45.1438 193.281 45.2438 191.801 45.3438 190.461C45.3438 190.421 45.3438 190.391 45.3438 190.351C45.9938 181.221 46.6738 175.981 47.2638 171.361C47.2638 171.311 47.2738 171.251 47.2838 171.201C47.6538 168.341 47.9738 165.821 48.2138 162.871C48.4338 162.161 48.9438 160.761 49.0338 160.781C49.0438 160.781 49.0338 160.811 49.0838 160.891C49.1338 160.991 49.1938 161.071 49.2638 161.151C49.3538 161.261 49.4538 161.341 49.5738 161.431C49.6938 161.521 49.8238 161.611 49.9538 161.701C50.2138 161.891 50.3538 162.021 50.5038 162.191C50.6938 162.401 50.8938 162.641 51.3438 163.091C51.5838 163.321 51.8338 163.561 52.0838 163.801C52.6738 164.341 53.2938 164.851 53.7938 165.261C54.1138 165.521 54.3938 165.731 54.5738 165.871C54.9138 166.121 55.2638 166.361 55.6238 166.591C56.2638 167.001 56.9338 167.371 57.6038 167.691C58.3138 168.041 59.0138 168.341 59.6738 168.601C60.4738 168.911 61.2038 169.171 61.8038 169.371C62.0338 169.441 62.2438 169.511 62.4338 169.571C62.9638 169.741 63.4738 169.891 63.9638 170.031C64.7238 170.241 65.4538 170.421 66.1638 170.571C66.9338 170.731 67.6638 170.871 68.3838 170.981C69.1438 171.101 69.8938 171.201 70.6238 171.291C70.9838 171.341 71.3338 171.381 71.6838 171.421C72.0938 171.471 72.4838 171.511 72.8638 171.551C73.6638 171.631 74.4138 171.691 75.1238 171.741C75.9238 171.791 76.6738 171.821 77.3838 171.841C78.2038 171.871 78.9438 171.881 79.6438 171.881C79.9238 171.881 80.1938 171.881 80.4538 171.881L80.4938 171.861Z" fill="white"/>
<path d="M26.3738 199.131C25.8838 200.901 26.0039 202.371 26.1639 204.281C26.2739 205.571 26.3838 207.031 26.3438 208.871C26.2638 212.541 26.1538 217.111 23.1538 220.281C22.1038 221.391 20.9939 222.031 18.1939 223.171C13.8639 224.921 9.22386 226.331 4.41386 227.361L3.90385 227.471L3.86385 226.951C3.65385 224.461 3.65385 221.941 3.86385 219.471C4.21385 215.271 5.07386 212.101 5.55386 210.581C1.68386 214.281 0.853849 214.251 0.343849 213.861C-0.146151 213.491 0.0138564 212.771 0.163856 212.011C0.593856 209.931 1.73385 208.561 2.11385 208.111C4.86385 204.801 6.23385 203.141 7.17385 201.681C7.58385 201.041 7.75386 200.721 7.94386 200.341C8.16386 199.921 8.40384 199.441 9.02384 198.441C10.4838 196.091 11.7738 194.431 12.2038 193.891L12.2839 193.781C12.6339 193.331 12.9638 192.821 13.2738 192.271C13.4238 192.561 13.5938 192.871 13.7938 193.201C13.9138 193.401 14.0538 193.621 14.2138 193.831C14.6338 194.421 15.1338 195.031 15.7438 195.621C16.0138 195.881 16.3138 196.141 16.6338 196.391C16.9438 196.631 17.2638 196.861 17.6038 197.071C18.2638 197.491 18.9639 197.851 19.6939 198.151C20.7239 198.571 21.2439 198.791 21.9739 198.881C22.8439 198.981 23.6539 198.881 24.3639 198.711C24.8639 198.601 25.3039 198.461 25.6639 198.371C25.9739 198.291 26.2139 198.231 26.3639 198.251C26.4139 198.251 26.6038 198.281 26.7138 198.171C26.5838 198.511 26.4739 198.841 26.3939 199.161L26.3738 199.131Z" fill="white"/>
<path d="M42.5138 149.981C42.5138 151.461 42.4038 153.141 42.0938 155.281C41.8238 157.151 41.6238 157.681 41.0438 159.261C40.4338 160.901 39.4338 163.631 37.4538 170.141C36.8238 172.231 36.2638 174.121 35.7538 175.881C33.5738 183.331 32.1338 188.251 28.6338 194.741C28.5138 194.981 28.3338 195.231 28.1438 195.521C27.9738 195.771 27.7938 196.041 27.6038 196.351C27.5138 196.501 27.4138 196.671 27.3238 196.841C27.1438 197.161 26.9738 197.531 26.8138 197.931C26.8138 197.961 26.8138 198.061 26.7338 198.141C26.6238 198.261 26.4238 198.231 26.3838 198.221C26.2238 198.211 25.9838 198.261 25.6838 198.341C25.3338 198.441 24.8938 198.571 24.3838 198.681C23.6838 198.841 22.8638 198.951 21.9938 198.851C21.2638 198.761 20.7538 198.541 19.7138 198.121C18.9838 197.821 18.2838 197.461 17.6238 197.041C17.2938 196.831 16.9638 196.601 16.6538 196.361C16.3338 196.111 16.0338 195.861 15.7638 195.591C15.1538 195.001 14.6538 194.401 14.2338 193.801C14.0838 193.591 13.9438 193.371 13.8138 193.171C13.6138 192.851 13.4438 192.541 13.2938 192.241C14.0638 190.871 14.7038 189.261 15.2238 187.631C16.2638 184.391 16.8538 181.111 17.1238 179.611C18.3538 172.751 18.5038 170.071 18.6338 167.711C18.7438 165.861 18.8338 164.271 19.4338 161.101C20.6238 154.831 21.9238 151.581 23.0738 148.721C23.3838 147.951 23.6938 147.181 23.9838 146.381C24.0038 146.331 24.0238 146.281 24.0338 146.241C24.3138 146.421 24.7338 146.681 25.4538 147.161C25.7138 147.341 26.0138 147.541 26.3638 147.781C26.7338 148.031 27.0538 148.271 27.3438 148.471C28.2138 149.081 28.7538 149.491 29.2138 149.801C29.6638 150.111 30.0338 150.331 30.5238 150.551C30.7738 150.671 31.0238 150.761 31.2638 150.851C32.0938 151.161 32.8538 151.301 33.5038 151.381C33.9538 151.441 34.3538 151.461 34.6838 151.481C34.8938 151.491 35.2838 151.511 35.8038 151.521C36.4338 151.521 37.2538 151.501 38.1438 151.381C39.2438 151.251 40.4538 150.971 41.5638 150.461C41.8838 150.311 42.2038 150.151 42.4938 149.951L42.5138 149.981Z" fill="white"/>
<path d="M46.2538 119.581C46.2238 119.771 46.1438 120.061 45.9138 120.391C45.7438 121.841 45.5438 123.291 45.3238 124.731C44.7638 128.451 44.2438 130.801 43.7938 132.881C43.5138 134.181 43.2438 135.401 43.0138 136.771C42.5938 139.241 42.4138 141.161 42.3638 142.781C42.3038 144.331 42.3638 145.631 42.4238 146.901C42.4638 147.791 42.5038 148.691 42.5038 149.681V149.961C42.2038 150.151 41.8938 150.321 41.5738 150.471C40.4638 150.981 39.2538 151.251 38.1538 151.391C37.2638 151.511 36.4538 151.531 35.8138 151.531C35.2938 151.531 34.8938 151.511 34.6938 151.491C34.3638 151.471 33.9638 151.451 33.5138 151.391C32.8638 151.311 32.0938 151.171 31.2738 150.861C31.0338 150.781 30.7838 150.681 30.5338 150.561C30.0438 150.331 29.6738 150.121 29.2238 149.811C28.7638 149.501 28.2238 149.091 27.3538 148.481C27.0638 148.281 26.7438 148.051 26.3738 147.791C26.0238 147.551 25.7238 147.351 25.4638 147.171C24.7438 146.691 24.3338 146.431 24.0438 146.251C24.1438 145.971 24.2438 145.691 24.3538 145.391C24.8338 143.971 25.2838 142.371 25.6738 140.341C25.7538 139.891 25.8438 139.411 25.9238 138.921C26.7938 133.551 26.4738 130.441 26.0638 126.511C25.9138 125.091 25.7538 123.581 25.6438 121.811C25.5138 119.031 25.4438 116.121 25.4538 113.091C25.4638 109.971 25.5638 106.991 25.7238 104.141C26.1738 98.3506 27.2338 93.0206 29.6538 87.4606L30.0838 86.4706C30.5838 85.3006 31.0838 84.1606 31.6138 83.0406C31.6538 82.9606 31.6838 82.8807 31.7238 82.8107C31.7838 82.6807 31.8438 82.5507 31.9138 82.4207C32.1838 82.6207 32.5038 82.8707 32.8638 83.1707C33.1438 83.4007 33.4538 83.6607 33.7838 83.9507C34.0938 84.2207 34.3938 84.4906 34.6838 84.7506C35.2738 85.2906 35.8338 85.8207 36.3738 86.4407C36.5938 86.6807 36.8038 86.9307 37.0238 87.1907C37.3138 87.5507 37.5738 87.9107 37.8438 88.3307C38.2038 88.9007 38.5738 89.5607 39.0338 90.4007C39.2638 90.8207 39.5138 91.2906 39.7938 91.8206C39.9238 92.0606 40.0438 92.2806 40.1638 92.5006C40.5438 93.2306 40.8938 93.8807 41.2438 94.6307C41.3738 94.9107 41.5138 95.2007 41.6538 95.5207C41.8538 95.9707 42.0338 96.4106 42.2038 96.8206C42.5438 97.6906 42.8238 98.4506 43.0238 99.0706C43.2738 99.8306 43.4338 100.371 43.5038 100.611C43.5738 100.871 43.6438 101.121 43.7038 101.371C43.8738 102.041 44.0238 102.751 44.2138 103.711C44.2838 104.031 44.3538 104.381 44.4238 104.771C44.5138 105.241 44.6038 105.661 44.6738 106.061C44.8638 107.001 45.0038 107.741 45.1238 108.411C45.2138 108.911 45.2838 109.381 45.3438 109.861C45.3938 110.191 45.4238 110.501 45.4538 110.781C45.5638 111.771 45.5838 112.471 45.6038 113.161C45.6038 113.531 45.6138 113.901 45.6338 114.301C45.6538 114.971 45.6938 115.741 45.8038 116.801C45.8638 117.321 45.8838 117.581 45.9238 117.741C46.1038 118.721 46.3538 119.001 46.2738 119.571L46.2538 119.581Z" fill="white"/>
<path d="M129.304 81.7906C129.114 82.0206 128.904 82.2506 128.664 82.5006C128.234 82.9406 127.734 83.4206 127.194 83.9406C126.704 84.4206 126.164 84.9306 125.634 85.4906C125.394 85.7406 125.144 86.0006 124.904 86.2706C124.644 86.5606 124.394 86.8606 124.154 87.1506C123.664 87.7406 123.224 88.3306 122.814 88.9306C122.374 89.5606 121.974 90.1906 121.614 90.8206C121.224 91.4906 120.874 92.1506 120.564 92.8006C120.224 93.4906 119.914 94.1706 119.634 94.8406C119.324 95.5506 119.054 96.2406 118.794 96.9106C118.674 97.2306 118.544 97.5406 118.434 97.8506C118.344 98.0906 118.194 98.4806 118.014 99.0106C117.824 99.5706 117.584 100.301 117.334 101.141C117.144 101.791 116.944 102.511 116.754 103.301C116.584 103.981 116.414 104.711 116.264 105.481C116.224 105.711 116.174 105.941 116.134 106.181C116.034 106.691 115.944 107.191 115.874 107.681C115.754 108.461 115.654 109.191 115.574 109.891C115.484 110.681 115.414 111.421 115.364 112.111C115.304 112.911 115.264 113.661 115.234 114.331C115.234 114.551 115.214 114.761 115.204 114.971C115.184 115.541 115.164 116.071 115.154 116.551C115.144 117.401 115.154 118.121 115.154 118.771C115.154 119.181 115.164 119.571 115.174 119.941C115.184 120.451 115.204 120.941 115.204 121.451C115.204 122.351 115.174 123.141 115.124 123.861C114.844 125.131 114.584 126.401 114.354 127.691C114.264 128.181 114.174 128.681 114.084 129.181C113.524 131.131 112.884 133.311 112.424 137.181C111.964 141.111 111.964 144.731 111.964 151.981V157.071C112.044 158.401 112.164 158.971 111.964 159.851C111.924 160.021 111.884 160.171 111.834 160.331C111.774 160.541 111.694 160.731 111.614 160.921C111.444 161.301 111.244 161.651 111.024 161.971C110.624 162.551 110.154 163.061 109.654 163.551C109.594 163.601 109.544 163.651 109.494 163.711C108.934 164.251 108.364 164.741 107.794 165.191C107.174 165.681 106.564 166.121 105.994 166.511C105.294 166.991 104.634 167.381 104.074 167.701C102.974 168.321 102.254 168.641 102.254 168.641C102.194 168.671 102.124 168.701 102.054 168.721C101.324 169.031 100.624 169.301 99.9338 169.531C99.1938 169.781 98.4738 169.991 97.7538 170.171C97.0138 170.361 96.2738 170.511 95.5238 170.641C94.7838 170.771 94.0438 170.891 93.2738 170.991C92.5438 171.091 91.7938 171.181 91.0238 171.271C90.6138 171.321 90.1939 171.361 89.7639 171.411C89.4239 171.451 89.0839 171.481 88.7639 171.521C87.9639 171.601 87.2138 171.661 86.5038 171.711C85.6938 171.761 84.9439 171.801 84.2339 171.831C83.4039 171.861 82.6438 171.871 81.9638 171.881C81.4238 171.881 80.9438 171.881 80.5038 171.881C80.2438 171.881 79.9738 171.881 79.6938 171.881C78.9938 171.881 78.2538 171.881 77.4338 171.841C76.7238 171.821 75.9738 171.791 75.1738 171.741C74.4638 171.691 73.7038 171.631 72.9138 171.551C72.5338 171.511 72.1338 171.471 71.7338 171.421C71.3838 171.381 71.0238 171.341 70.6738 171.291C69.9438 171.201 69.1938 171.101 68.4338 170.981C67.7138 170.861 66.9838 170.731 66.2138 170.571C65.5138 170.421 64.7838 170.241 64.0138 170.031C63.5238 169.901 63.0138 169.741 62.4838 169.571C62.2938 169.511 62.0838 169.441 61.8538 169.371C61.2538 169.171 60.5238 168.921 59.7238 168.601C59.0638 168.341 58.3638 168.041 57.6538 167.691C56.9838 167.371 56.3138 167.011 55.6738 166.591C55.3138 166.361 54.9538 166.121 54.6238 165.871C54.4438 165.741 54.1738 165.521 53.8438 165.261C53.3438 164.851 52.7238 164.331 52.1338 163.801C51.8738 163.561 51.6238 163.321 51.3838 163.091C50.9338 162.641 50.7338 162.401 50.5438 162.191C50.3938 162.031 50.2538 161.891 49.9938 161.701C49.8638 161.611 49.7338 161.521 49.6138 161.431C49.4938 161.341 49.3938 161.251 49.3038 161.151C49.2138 161.041 49.1338 160.921 49.0738 160.771C48.9238 160.351 49.0438 159.961 49.0738 159.841C49.1538 159.531 49.0738 159.611 49.0738 154.751C49.0738 148.081 49.2838 147.601 49.0738 144.571C48.9538 142.861 48.8438 142.211 48.6138 139.021C48.2438 134.031 48.4038 134.201 48.1538 131.621C47.9538 129.501 47.6538 127.581 47.1038 124.391C46.9938 123.771 46.8838 123.091 46.7638 122.371C46.0838 118.371 46.0038 118.401 45.8338 116.821C45.7238 115.761 45.6838 114.991 45.6638 114.321C45.6538 113.921 45.6438 113.551 45.6338 113.181C45.6138 112.491 45.5838 111.781 45.4838 110.801C45.4538 110.521 45.4238 110.211 45.3738 109.881C45.3138 109.391 45.2438 108.931 45.1538 108.431C45.0338 107.761 44.8938 107.021 44.7038 106.081C44.6238 105.691 44.5438 105.261 44.4538 104.791C44.3838 104.401 44.3138 104.051 44.2438 103.731C44.0538 102.771 43.9038 102.061 43.7338 101.391C43.6738 101.141 43.6038 100.891 43.5338 100.631C43.4738 100.391 43.3138 99.8506 43.0538 99.0906C42.8438 98.4706 42.5738 97.7106 42.2338 96.8406C42.0638 96.4306 41.8838 95.9906 41.6838 95.5406C41.5438 95.2206 41.4038 94.9306 41.2738 94.6506C40.9238 93.9006 40.5838 93.2406 40.1938 92.5206C40.0738 92.3006 39.9538 92.0806 39.8238 91.8406C39.5438 91.3106 39.2838 90.8406 39.0638 90.4206C38.6038 89.5806 38.2338 88.9206 37.8738 88.3506C37.6038 87.9306 37.3438 87.5706 37.0538 87.2106C36.8438 86.9406 36.6238 86.6906 36.4038 86.4606C35.8538 85.8406 35.2938 85.3106 34.7138 84.7706C34.4238 84.5106 34.1238 84.2506 33.8138 83.9706C33.4838 83.6706 33.1738 83.4106 32.8938 83.1906C32.5238 82.8906 32.2138 82.6406 31.9438 82.4406C32.0538 82.2106 32.1638 81.9906 32.2838 81.7606C32.3938 81.5306 32.5138 81.3106 32.6338 81.0806C32.7538 80.8606 32.8738 80.6406 32.9938 80.4206C33.2038 80.0406 33.4238 79.6706 33.6538 79.3006C33.7338 79.1606 33.8338 79.0106 33.9238 78.8706C33.9738 78.7906 34.0238 78.7106 34.0738 78.6306C34.0738 78.6306 34.0738 78.6306 34.0738 78.6206C34.1538 78.4906 34.2538 78.3506 34.3438 78.2206C34.4538 78.0506 34.5638 77.8906 34.6838 77.7306C34.8038 77.5706 34.9138 77.4206 35.0338 77.2606C35.1038 77.1606 35.1838 77.0606 35.2638 76.9606C35.3438 76.8606 35.4238 76.7706 35.5038 76.6606C35.6438 76.4906 35.7838 76.3206 35.9338 76.1506C36.2438 75.8006 36.5538 75.4706 36.8938 75.1306C37.0438 74.9806 37.1938 74.8406 37.3538 74.7006C37.8338 74.2606 38.3438 73.8306 38.9038 73.4206C38.9838 73.3606 39.0638 73.3006 39.1438 73.2506C39.2838 73.1406 39.4338 73.0406 39.5838 72.9406C41.3838 71.7306 42.5038 71.3906 44.5338 70.7806C46.4738 70.1906 49.1338 69.3906 54.0038 67.3506C61.1138 64.3706 63.9938 62.4006 65.4038 60.3706C65.6138 60.8106 65.8638 61.3006 66.1738 61.8106C66.5238 62.4006 66.9538 63.0106 67.4738 63.6206C67.9338 64.1506 68.4638 64.6806 69.0838 65.1806C69.1938 65.2706 69.3138 65.3706 69.4338 65.4606C71.8838 67.3106 74.4438 67.8606 76.8738 68.0806C76.9238 68.0806 76.9738 68.0806 77.0338 68.0906C77.1738 68.1006 77.3038 68.1206 77.4438 68.1306C78.0238 68.1706 78.5938 68.2006 79.1538 68.2306C79.8338 68.2706 81.6739 68.3306 84.0739 67.9506C84.7539 67.8406 85.4838 67.7006 86.2438 67.5106C86.4938 67.4506 86.7539 67.3806 87.0139 67.3106C87.4839 67.1806 87.9438 67.0506 88.3738 66.9006C89.0438 66.6906 89.7038 66.4406 90.4238 66.0706C90.5238 66.0206 90.6138 65.9706 90.7138 65.9206C91.3038 65.6106 91.9438 65.2306 92.3338 64.9506C93.0138 64.4606 93.5638 63.8606 93.9138 63.4006C94.2138 63.0206 94.3838 62.7206 94.4138 62.6806C94.4538 62.6106 94.4339 62.6306 95.0139 61.4806C95.1039 61.2906 95.2138 61.0806 95.3438 60.8306C95.4838 60.5406 95.6638 60.1806 95.8038 59.9006C95.7438 59.8406 95.6738 59.7906 95.6138 59.7306C95.6138 59.7306 95.6338 59.7306 95.6438 59.7306C95.7738 59.8406 95.9138 59.9406 96.0538 60.0406C96.0538 60.0406 96.0738 60.0606 96.0938 60.0706C96.2338 60.1706 96.3738 60.2606 96.5238 60.3506C97.3838 60.8706 98.3538 61.2706 99.4038 61.6906L99.6838 61.8006C99.6838 61.8006 103.814 63.4806 111.744 67.3706C117.504 70.1906 121.504 73.5406 122.954 74.8506C124.344 76.1006 126.254 77.8206 128.174 80.2306C128.494 80.6306 128.814 81.0506 129.134 81.5006C129.204 81.6006 129.284 81.7106 129.354 81.8106L129.304 81.7906Z" fill="white"/>
<path d="M76.5039 413.281L76.0939 413.331C75.0539 413.461 73.6039 413.591 71.9239 413.591C67.5339 413.591 61.6639 412.691 57.9439 408.551C57.0739 407.581 56.5139 406.661 56.2139 406.171C53.7939 402.161 53.1239 397.681 53.8339 390.161C54.2339 385.901 54.7539 384.201 55.2039 382.691C55.6239 381.321 55.9739 380.131 56.1439 377.221C56.2639 375.131 56.1639 373.971 54.9039 361.131C54.9039 361.051 54.8939 360.971 54.8839 360.891C55.1639 360.771 55.4739 360.641 55.7739 360.531C56.1639 360.381 56.5439 360.251 56.8939 360.141C57.1739 360.051 57.4439 359.971 57.7139 359.891C58.4939 359.671 59.2139 359.521 59.8639 359.411C60.4939 359.311 61.0539 359.251 61.5239 359.211C61.7039 359.201 61.8839 359.181 62.0439 359.181C62.7539 359.141 63.3739 359.161 64.1039 359.181C64.1539 359.181 64.1939 359.181 64.2439 359.181C64.4039 359.181 64.5739 359.191 64.7539 359.201C65.4039 359.231 65.9539 359.251 66.4339 359.281C67.2839 359.331 67.9339 359.401 68.6139 359.581C68.7139 359.601 68.8139 359.631 68.9139 359.661C69.5639 359.851 70.1539 360.091 70.6839 360.341C71.0439 360.511 71.3739 360.691 71.6639 360.871C71.6639 360.971 71.6639 361.061 71.6539 361.151C71.4539 366.191 71.6239 368.031 71.8639 369.781C71.9739 370.511 72.0539 370.961 72.1339 371.311C72.1839 371.541 72.2339 371.721 72.2839 371.911C72.4139 372.401 72.5639 372.951 72.7839 374.411C72.7839 374.421 72.7839 374.441 72.7839 374.461C73.0639 376.301 73.1939 377.791 73.2439 379.121C73.3039 380.631 73.2539 381.921 73.2139 383.251C73.1539 384.891 73.0939 386.591 73.2439 388.791C73.4239 391.411 73.7539 392.631 74.1739 394.171C74.5639 395.591 75.0439 397.371 75.5539 400.781C76.1539 404.791 76.4739 408.861 76.4839 412.881V413.291L76.5039 413.281Z" fill="white"/>
<path d="M107.504 394.831C107.404 396.571 107.254 399.241 106.544 401.881C105.834 404.521 104.564 407.121 102.234 408.701C101.004 409.541 99.7538 409.931 97.8538 410.531L97.7838 410.551C95.0938 411.401 92.2738 411.861 89.3838 411.931H89.0038L88.9238 411.561C88.5838 409.851 88.2938 408.111 88.0738 406.381C87.5738 402.471 87.0938 398.771 87.6138 394.351C87.7938 392.821 87.9838 392.051 88.2038 391.161C88.4338 390.251 88.7038 389.171 89.0038 386.951C89.3838 383.951 89.4238 381.671 89.4538 379.991V379.561C89.4538 379.291 89.4538 379.041 89.4738 378.781C89.4738 378.781 89.4738 378.721 89.4738 378.671C89.5238 377.701 89.6438 377.051 89.7438 376.481C89.8338 375.951 89.9238 375.491 89.9138 374.921C89.9138 374.371 89.8338 374.611 89.7338 373.531C89.6738 372.871 89.5638 371.681 89.7338 370.291C89.8838 369.051 90.0638 369.181 90.1938 367.981C90.3038 367.031 90.2338 366.531 90.1938 365.201C90.1738 364.421 90.1538 363.321 90.1938 361.961C91.0038 360.971 91.7438 360.531 92.2338 360.311C92.5938 360.151 93.4038 359.831 93.9038 359.651C94.0938 359.581 94.3238 359.491 94.5838 359.401C95.2338 359.181 96.0638 358.941 97.0638 358.811C97.5138 358.751 98.0138 358.721 98.5338 358.721C99.1438 358.721 99.6938 358.771 100.204 358.841C100.204 358.841 100.214 358.841 100.224 358.841C100.904 358.941 101.514 359.101 102.074 359.271C102.454 359.391 102.814 359.511 103.154 359.631C103.614 359.791 104.044 359.941 104.444 360.091C105.284 360.401 105.994 360.691 106.604 361.031C106.594 361.141 106.584 361.251 106.564 361.361C106.084 365.581 105.564 369.791 105.004 373.971C105.024 374.361 105.044 374.751 105.064 375.141C105.094 375.341 105.134 375.571 105.184 375.821C105.284 376.361 105.394 376.911 105.514 377.461V377.531C105.514 377.531 105.524 377.601 105.534 377.641C105.564 378.111 105.604 378.581 105.644 379.061C105.954 382.481 106.394 384.601 106.784 386.471C107.304 388.981 107.714 390.961 107.504 394.791V394.831Z" fill="white"/>
<path d="M95.7539 59.9106C95.6139 60.1906 95.4339 60.5506 95.2939 60.8406C94.3839 62.6506 94.4139 62.6106 94.3639 62.6906C94.3139 62.7806 93.5539 64.0606 92.2839 64.9606C91.8839 65.2406 91.2539 65.6206 90.6639 65.9306C90.5639 65.9806 90.4739 66.0306 90.3739 66.0806C89.6539 66.4506 88.9939 66.7006 88.3239 66.9106C87.8839 67.0506 87.4339 67.1806 86.9639 67.3206C86.7039 67.3906 86.4439 67.4606 86.1939 67.5206C85.4339 67.7106 84.7039 67.8506 84.0239 67.9606C81.6139 68.3406 79.7839 68.2806 79.1039 68.2406C78.5439 68.2106 77.9739 68.1806 77.3939 68.1406C77.2639 68.1406 77.1239 68.1206 76.9839 68.1006C76.9239 68.1006 76.8739 68.1006 76.8239 68.0906C74.3939 67.8706 71.8339 67.3206 69.3839 65.4706C69.2639 65.3806 69.1439 65.2806 69.0339 65.1906C68.4139 64.6906 67.8839 64.1606 67.4239 63.6306C66.9039 63.0106 66.4739 62.4006 66.1239 61.8206C65.8139 61.3106 65.5639 60.8206 65.3539 60.3806C65.7139 59.8706 65.9739 59.3606 66.1939 58.8306C67.0439 56.7306 67.0639 54.3806 67.0839 52.9806V52.9306C66.8539 52.5606 66.6339 52.1906 66.4139 51.7806C66.3439 51.6406 66.2639 51.4906 66.1839 51.3506C66.0839 51.1606 65.9839 50.9606 65.8839 50.7606C66.0939 50.6006 66.3339 50.4206 66.6139 50.2106C66.6139 50.2106 66.6239 50.2006 66.6339 50.1906C66.9239 49.9706 67.1739 49.7806 67.4039 49.6006C68.2239 48.9806 68.7139 48.5906 69.0739 48.3106C69.3739 48.0706 69.5739 47.9206 69.8039 47.7606C69.8039 47.7606 70.0539 47.5906 70.3039 47.4306C70.4739 47.3206 70.6539 47.2206 70.8239 47.1206C71.5039 46.7306 72.1839 46.4106 72.7639 46.1806C73.7539 45.7706 74.4739 45.5906 74.4739 45.5906C74.6039 45.5606 74.7239 45.5306 74.8539 45.5006C75.5439 45.3506 76.2139 45.2706 77.0239 45.2206C77.6439 45.1806 78.3439 45.1606 79.2139 45.1406C79.3239 45.1406 79.4439 45.1406 79.5639 45.1406C80.0039 45.1406 80.4239 45.1306 81.1939 45.0906C81.2639 45.0906 81.3239 45.0906 81.3939 45.0906C82.4739 45.0406 82.7139 45.0106 83.5839 45.0906C83.7539 45.1006 83.9539 45.1206 84.1939 45.1506C84.6339 45.2006 85.1739 45.2606 85.7639 45.3506C86.4239 45.4606 87.1439 45.6106 87.9039 45.8506C88.5639 46.0606 89.2539 46.3306 89.9339 46.7006C90.3339 46.9206 90.7439 47.1706 91.1339 47.4506C91.3439 47.6106 91.5539 47.7706 91.7539 47.9406C92.3339 48.4306 92.8539 48.9706 93.2939 49.4706C93.4939 49.7006 93.6739 49.9106 93.8539 50.1206C94.0939 50.4106 94.3039 50.6706 94.4839 50.8906C94.0439 51.6806 93.5739 52.4606 93.0539 53.1906C93.1639 54.3506 93.2539 55.2406 93.4139 56.0006C93.5939 56.9006 93.8539 57.6006 94.3039 58.3006C94.3539 58.3706 94.5439 58.6706 94.8539 59.0306C95.0739 59.2906 95.3739 59.6006 95.7739 59.9406L95.7539 59.9106Z" fill="white"/>
<path d="M101.824 30.1606C100.914 31.2906 99.8439 31.3806 99.0439 32.9406C98.7539 33.5106 98.6539 33.9906 98.5839 34.3306C97.9539 37.3606 97.4039 41.4306 97.1939 42.6606C96.7039 45.6506 95.5839 47.7906 94.8839 49.1406C94.6439 49.5906 94.4039 50.0406 94.1639 50.4906C94.0639 50.3706 93.9539 50.2406 93.8439 50.1006C93.6639 49.8906 93.4839 49.6706 93.2839 49.4506C92.8439 48.9506 92.3239 48.4106 91.7439 47.9206C91.5439 47.7506 91.3439 47.5906 91.1239 47.4306C90.7339 47.1406 90.3239 46.8906 89.9239 46.6806C89.2439 46.3106 88.5639 46.0406 87.8939 45.8306C87.1339 45.5906 86.4139 45.4406 85.7539 45.3306C85.1639 45.2406 84.6339 45.1806 84.1839 45.1306C83.9439 45.1006 83.7539 45.0806 83.5739 45.0706C82.7039 44.9906 82.4639 45.0306 81.3839 45.0706C81.3239 45.0706 81.2539 45.0706 81.1839 45.0706C80.4039 45.1006 79.9939 45.1106 79.5539 45.1206C79.4339 45.1206 79.3139 45.1206 79.2039 45.1206C78.3339 45.1406 77.6339 45.1606 77.0139 45.2006C76.1939 45.2506 75.5339 45.3306 74.8439 45.4806C74.7239 45.5106 74.5939 45.5406 74.4639 45.5706C74.4639 45.5706 73.7539 45.7606 72.7539 46.1606C72.1739 46.4006 71.5039 46.7106 70.8139 47.1006C70.6439 47.2006 70.4639 47.3006 70.2939 47.4106C70.0439 47.5706 69.7939 47.7406 69.7939 47.7406C69.5739 47.9006 69.3639 48.0506 69.0639 48.2906C68.7039 48.5706 68.2139 48.9606 67.3939 49.5806C67.1639 49.7606 66.9039 49.9506 66.6239 50.1706C66.6239 50.1706 66.6039 50.1806 66.6039 50.1906C66.5239 50.2506 66.4339 50.3106 66.3539 50.3806C66.3039 50.2706 66.2439 50.1606 66.1939 50.0506C65.3339 48.3306 64.9239 46.9506 64.3439 44.9606C63.5839 42.3606 63.2039 41.0606 62.9539 39.4106C62.9539 39.4106 62.6739 37.5306 61.8639 35.4206C61.7439 35.1006 61.5939 34.8206 61.5639 34.7906C60.6039 33.0606 59.7239 33.3406 58.7839 31.5506C58.7839 31.5506 57.6439 29.3206 58.3239 26.9206C58.6039 25.9306 59.0139 25.6506 59.2539 25.5306C59.8139 25.2506 60.4239 25.4506 60.6439 25.5306C60.4939 24.8606 60.3039 23.9106 60.1839 22.7506C60.0139 21.1506 59.6439 17.3406 61.1139 13.0406C61.7239 11.2506 63.2739 6.91056 67.5939 3.79056C70.9639 1.36056 74.3339 0.90056 76.8439 0.55056C78.2539 0.36056 81.7739 -0.00944006 86.0939 1.01056C88.1739 1.50056 90.4839 2.03056 93.0339 3.79056C94.2739 4.65056 96.4439 6.40056 98.0839 9.34056C99.3339 11.6006 99.7239 13.5606 99.9739 14.8906C100.764 19.0906 100.214 22.8306 99.4739 25.5306C99.8839 25.3006 101.434 24.4706 102.284 25.0706C103.334 25.8106 103.104 28.5606 101.824 30.1606Z" fill="white"/>
<path d="M80.4939 207.481C80.6339 207.621 80.7939 207.761 80.9539 207.921L80.8639 207.471L80.7039 206.651L80.6339 206.311L80.5739 205.981L80.5139 206.411V206.461L80.4939 206.601L80.4039 207.301L80.3639 207.631V207.681L80.3039 208.121V208.171L80.2139 208.811C79.6239 213.501 78.9939 218.321 78.3639 223.151C76.8639 234.561 76.0739 240.101 75.6539 243.071C75.2039 246.251 75.1039 246.911 74.9439 249.081C74.5439 254.411 74.4439 258.801 74.3439 262.681C74.2139 268.311 74.0939 272.761 73.1039 276.761C73.0039 277.171 72.8839 277.611 72.7639 278.081C72.5739 278.791 72.3839 279.561 72.1739 280.411C72.2539 280.521 72.3439 280.631 72.4239 280.741C72.5839 280.951 72.7439 281.151 72.9039 281.351C73.1739 280.231 73.4339 279.221 73.6639 278.321C73.7839 277.841 73.9039 277.401 74.0039 276.991C75.0239 272.891 75.1339 268.401 75.2739 262.711C75.3639 258.851 75.4739 254.471 75.8739 249.161C76.0339 247.031 76.1139 246.451 76.5739 243.221C76.9939 240.241 77.7839 234.701 79.2839 223.291C79.6939 220.131 80.1039 216.981 80.5139 213.861V213.841C80.5939 213.201 80.6739 212.561 80.7639 211.921C80.6739 210.441 80.5939 208.971 80.5039 207.501L80.4939 207.481ZM80.8639 207.471L80.7039 206.651L80.6339 206.311L80.5739 205.981L80.5139 206.411V206.461L80.4939 206.601L80.4039 207.301C80.4039 207.301 80.4539 207.331 80.4939 207.481C80.6339 207.621 80.7939 207.761 80.9539 207.921L80.8639 207.471ZM161.554 211.861C161.204 211.281 160.684 210.551 158.254 208.081C157.744 207.561 157.424 207.251 157.134 206.961L156.864 206.691C155.754 205.591 154.634 204.771 153.544 203.971C153.294 203.791 153.054 203.611 152.814 203.431C151.894 202.741 151.024 202.041 150.214 201.161C149.104 199.941 148.584 198.901 147.724 197.181L147.684 197.101C147.494 196.711 147.214 196.111 146.904 195.291C146.814 195.051 146.714 194.791 146.624 194.511C146.594 194.431 146.574 194.351 146.544 194.271C145.924 192.431 145.274 189.861 144.954 186.611C144.834 185.351 144.874 182.851 144.954 177.881C144.984 176.161 145.014 174.841 145.034 173.781C145.094 170.801 145.114 169.901 144.954 168.111C144.574 164.041 144.364 161.801 142.854 159.571C142.594 159.191 142.284 158.761 141.894 158.221C141.304 157.401 140.574 156.381 139.564 154.901C139.114 154.241 138.684 153.521 138.254 152.681C137.784 151.781 136.994 150.101 136.354 148.081C136.314 147.971 136.284 147.851 136.244 147.741C136.184 147.551 136.124 147.351 136.074 147.151C136.034 147.031 136.004 146.901 135.974 146.771C135.404 144.551 135.234 142.561 135.234 140.801C135.234 139.241 135.364 137.881 135.484 136.711L135.524 136.291C135.564 135.871 135.774 128.491 135.434 112.531C135.354 108.841 135.234 105.051 135.064 100.611C134.904 96.5606 134.554 92.1707 132.244 87.0207C131.444 85.2307 130.534 83.6407 129.584 82.2407C129.484 82.0907 129.384 81.9407 129.274 81.8007C129.204 81.6907 129.124 81.5907 129.054 81.4907C128.734 81.0507 128.414 80.6206 128.094 80.2206C126.174 77.8206 124.264 76.0907 122.874 74.8407C121.424 73.5307 117.424 70.1906 111.664 67.3606C103.744 63.4806 99.6439 61.8106 99.6039 61.7906L99.3239 61.6806C98.2739 61.2606 97.3039 60.8707 96.4439 60.3407C96.2939 60.2507 96.1539 60.1606 96.0139 60.0606C96.0039 60.0606 95.9839 60.0407 95.9739 60.0307C95.8339 59.9307 95.6939 59.8306 95.5639 59.7206C95.0739 59.3206 94.6339 58.8507 94.2639 58.2607C93.8139 57.5607 93.5539 56.8607 93.3739 55.9607C93.2139 55.2007 93.1239 54.3007 93.0139 53.1507C93.5339 52.4107 94.0039 51.6407 94.4439 50.8507C94.7039 50.3907 94.9439 49.9307 95.1839 49.4807C95.8739 48.1507 97.0339 45.9307 97.5439 42.8707C97.5939 42.5607 97.6639 42.0607 97.7639 41.4407C98.0339 39.5907 98.4539 36.8106 98.9239 34.5606C98.9839 34.2606 99.0839 33.8107 99.3539 33.2807C99.7639 32.4607 100.254 32.1106 100.814 31.7106C101.234 31.4106 101.664 31.1006 102.074 30.5906C102.964 29.4806 103.454 27.7606 103.264 26.3906C103.164 25.6706 102.884 25.1306 102.444 24.8306C101.884 24.4406 101.064 24.4406 100.054 24.8306C100.834 21.4806 100.924 18.1607 100.324 14.9406C100.084 13.7006 99.7039 11.6106 98.3839 9.25065C96.7939 6.41065 94.6839 4.58065 93.1939 3.55065C90.6139 1.77065 88.2639 1.21065 86.1939 0.72065L86.1039 0.70065C82.1939 -0.21935 78.8239 -0.0693503 76.6839 0.23065C74.1539 0.58065 70.6839 1.05065 67.2239 3.55065C62.6939 6.82065 61.1639 11.3307 60.5839 13.0307C59.0539 17.5206 59.4739 21.4606 59.6339 22.9406C59.7039 23.6506 59.8239 24.3606 59.9539 25.0606C59.6439 25.0406 59.3039 25.0806 58.9639 25.2506C58.4239 25.5106 58.0439 26.0606 57.7939 26.9306C57.0739 29.4806 58.2439 31.8006 58.2939 31.8906C58.8139 32.8906 59.3239 33.3006 59.8139 33.7006C60.2439 34.0406 60.6439 34.3707 61.0739 35.1407C61.0739 35.1407 61.2239 35.4007 61.3439 35.7107C62.1339 37.7407 62.4039 39.5906 62.4039 39.6106C62.6539 41.2906 63.0339 42.6007 63.8139 45.2307C64.3939 47.2107 64.8039 48.6307 65.6939 50.3907C65.7539 50.5107 65.8139 50.6207 65.8639 50.7307C65.9639 50.9307 66.0639 51.1307 66.1639 51.3207C66.2339 51.4707 66.3139 51.6107 66.3939 51.7507C66.6139 52.1607 66.8239 52.5407 67.0639 52.9007V52.9506C67.0439 54.3506 67.0139 56.7007 66.1739 58.8007C65.9539 59.3307 65.6939 59.8507 65.3339 60.3507C63.9239 62.3807 61.0439 64.3507 53.9339 67.3307C49.0539 69.3707 46.4039 70.1707 44.4639 70.7607C42.4439 71.3707 41.3239 71.7107 39.5139 72.9207C39.3639 73.0207 39.2139 73.1207 39.0739 73.2307C38.9939 73.2907 38.9139 73.3407 38.8339 73.4007C38.2839 73.8107 37.7739 74.2306 37.2839 74.6806C37.1239 74.8206 36.9739 74.9706 36.8239 75.1106C36.4839 75.4406 36.1739 75.7807 35.8639 76.1307C35.7139 76.3007 35.5739 76.4706 35.4339 76.6406C35.3539 76.7406 35.2739 76.8407 35.1939 76.9407C35.1139 77.0407 35.0339 77.1407 34.9639 77.2407C34.8439 77.3907 34.7339 77.5506 34.6139 77.7106C34.4939 77.8706 34.3839 78.0307 34.2739 78.2007C34.1839 78.3307 34.0839 78.4606 34.0039 78.6006C34.0039 78.6006 34.0039 78.6006 34.0039 78.6106C33.9439 78.6906 33.8939 78.7706 33.8539 78.8506C33.7639 78.9906 33.6639 79.1306 33.5839 79.2806C33.3539 79.6506 33.1439 80.0207 32.9239 80.4007C32.8039 80.6207 32.6839 80.8407 32.5639 81.0607C32.4439 81.2807 32.3239 81.5107 32.2139 81.7407C32.0939 81.9707 31.9839 82.1907 31.8739 82.4207C31.8139 82.5507 31.7539 82.6807 31.6839 82.8107C31.6439 82.8807 31.6139 82.9606 31.5739 83.0406C31.0439 84.1606 30.5539 85.3106 30.0439 86.4706L29.6139 87.4606C27.1939 93.0206 26.1339 98.3506 25.6839 104.141C25.3839 108.081 25.3739 112.221 25.4139 116.791C25.4339 118.691 25.5039 120.331 25.6039 121.801C25.7239 123.571 25.8739 125.081 26.0239 126.501C26.4239 130.431 26.7539 133.541 25.8839 138.911C25.8039 139.401 25.7239 139.881 25.6339 140.331C25.2439 142.361 24.7939 143.961 24.3139 145.381C24.2139 145.671 24.1139 145.961 24.0039 146.241C23.9939 146.291 23.9739 146.341 23.9539 146.381C23.6539 147.181 23.3539 147.951 23.0439 148.721C21.8939 151.591 20.5939 154.841 19.4039 161.101C18.8039 164.271 18.7139 165.861 18.6039 167.711C18.4739 170.071 18.3139 172.751 17.0939 179.611C16.8239 181.101 16.2339 184.391 15.1939 187.631C14.6739 189.261 14.0339 190.871 13.2639 192.241C13.2639 192.241 13.2639 192.251 13.2539 192.261C12.9439 192.811 12.6239 193.311 12.2739 193.751L12.1939 193.861C11.7639 194.401 10.4639 196.061 9.01388 198.411C8.39388 199.411 8.15388 199.891 7.93388 200.311C7.74388 200.681 7.57389 201.011 7.16389 201.651C6.23389 203.111 4.85387 204.771 2.10387 208.081C1.73387 208.531 0.593877 209.901 0.153877 211.981C-0.00612304 212.741 -0.156115 213.461 0.333885 213.831C0.423885 213.901 0.533881 213.961 0.673881 213.981C0.743881 214.001 0.823881 214.001 0.923881 213.981C1.01388 213.981 1.11388 213.951 1.22388 213.911C1.93388 213.681 3.15387 212.831 5.52387 210.561C5.52387 210.561 5.54389 210.541 5.55389 210.541C5.07389 212.061 4.21388 215.241 3.86388 219.431C3.65388 221.901 3.65388 224.421 3.86388 226.911L3.90388 227.431L4.41389 227.331C9.22389 226.301 13.8639 224.891 18.1939 223.141C20.9939 222.011 22.1139 221.361 23.1539 220.251C26.1539 217.081 26.2539 212.511 26.3439 208.841C26.3839 206.991 26.2739 205.531 26.1639 204.251C26.0039 202.341 25.8939 200.871 26.3739 199.101C26.4539 198.781 26.5639 198.451 26.6939 198.111C26.7139 198.041 26.7439 197.971 26.7739 197.901C26.9339 197.501 27.1039 197.131 27.2839 196.811C27.3739 196.641 27.4739 196.471 27.5639 196.321C27.7539 196.011 27.9339 195.741 28.1039 195.491C28.2939 195.201 28.4739 194.951 28.5939 194.711C32.1039 188.221 33.5439 183.291 35.7139 175.851C36.2239 174.101 36.7839 172.201 37.4139 170.111C39.3839 163.601 40.3939 160.861 41.0039 159.231C41.5839 157.651 41.7839 157.121 42.0539 155.251C42.3639 153.121 42.4639 151.431 42.4739 149.951V149.671C42.4739 148.681 42.4339 147.781 42.3939 146.891C42.3339 145.621 42.2739 144.321 42.3339 142.771C42.3839 141.151 42.5639 139.231 42.9839 136.761C43.2139 135.401 43.4839 134.171 43.7639 132.871C44.2139 130.791 44.7339 128.441 45.2939 124.721C45.5139 123.281 45.7139 121.821 45.8839 120.381C46.2139 122.191 46.5039 124.001 46.7739 125.821C48.2539 135.831 48.8439 145.981 48.5439 156.101C48.5439 156.221 48.5439 156.351 48.5439 156.471C48.4639 158.891 48.3439 160.951 48.1939 162.831C47.9539 165.781 47.6339 168.291 47.2639 171.161C47.2639 171.211 47.2539 171.271 47.2439 171.321C46.6439 175.941 45.9739 181.181 45.3239 190.311C45.3239 190.351 45.3239 190.381 45.3239 190.421C45.2339 191.761 45.1239 193.241 45.0139 194.851C45.0139 194.851 45.0139 194.901 45.0139 194.921C44.9039 196.551 44.7939 198.311 44.6939 200.201C44.2339 208.601 43.8939 219.451 44.4139 231.991C44.8339 242.261 45.5639 247.101 46.2639 251.781C46.9839 256.541 47.7239 261.481 48.1139 272.241C48.3039 277.381 48.3039 280.761 48.2939 285.421C48.2939 287.091 48.2939 288.951 48.2939 291.151C48.2939 293.391 48.3239 295.971 48.3539 299.061C48.3539 299.291 48.3539 299.531 48.3539 299.761C48.3539 300.431 48.3639 301.111 48.3739 301.821C48.4139 304.771 48.4739 308.141 48.5639 312.011C48.8739 326.761 49.1439 330.111 49.9539 334.751C50.7539 339.281 51.6139 342.341 52.3639 345.031C52.9839 347.241 53.5239 349.141 53.9239 351.451C53.9739 351.741 53.9839 351.821 54.3439 355.471L54.7439 359.551C54.7639 359.761 54.7839 359.961 54.8039 360.161C54.8239 360.401 54.8539 360.631 54.8739 360.861C54.8739 360.941 54.8839 361.021 54.8939 361.101C55.3539 365.771 55.6539 368.891 55.8539 371.081C56.2039 374.911 56.2139 375.861 56.1339 377.191C55.9639 380.101 55.6039 381.281 55.1939 382.661C54.7439 384.171 54.2239 385.881 53.8239 390.131C53.1139 397.651 53.7839 402.131 56.2039 406.141C56.5039 406.631 57.0539 407.561 57.9339 408.521C61.6539 412.661 67.5339 413.561 71.9139 413.561C73.5939 413.561 75.0539 413.431 76.0839 413.301L76.4939 413.251V412.841C76.4739 408.821 76.1639 404.751 75.5639 400.741C75.0539 397.331 74.5739 395.561 74.1839 394.131C73.7639 392.591 73.4339 391.371 73.2539 388.751C73.1039 386.551 73.1639 384.851 73.2239 383.211C73.2739 381.881 73.3139 380.591 73.2539 379.081C73.2039 377.751 73.0739 376.261 72.7939 374.421C72.7939 374.411 72.7939 374.391 72.7939 374.371C72.5739 372.911 72.4239 372.361 72.2939 371.871C72.2439 371.681 72.1939 371.501 72.1439 371.271C72.0639 370.931 71.9839 370.471 71.8739 369.741C71.7539 368.911 71.6539 368.071 71.6139 366.861C71.5539 365.521 71.5539 363.761 71.6639 361.111C71.6639 361.021 71.6639 360.921 71.6739 360.831C71.6739 360.601 71.6939 360.371 71.7039 360.131C71.7939 358.061 71.9439 355.491 72.1639 352.261C72.2139 351.571 72.2339 351.171 72.2739 350.721C72.3139 350.141 72.3639 349.471 72.4739 347.931C72.6739 344.911 72.8539 342.191 73.0939 338.381C74.1939 320.941 74.0739 319.031 73.5439 316.071C73.0939 313.471 72.5839 311.931 72.1439 310.561C71.5739 308.821 71.0939 307.311 70.7739 304.071C70.7039 303.331 70.5539 301.341 70.6639 298.081C70.6739 297.751 70.6839 297.411 70.7039 297.051C70.7039 296.981 70.7039 296.911 70.7039 296.841C70.7939 295.111 70.9539 293.081 71.2139 290.751C71.3139 289.911 71.4139 289.101 71.5339 288.331C71.9339 285.571 72.4139 283.261 72.8839 281.301C73.1539 280.181 73.4139 279.171 73.6439 278.271C73.7639 277.791 73.8839 277.351 73.9839 276.941C75.0039 272.841 75.1139 268.351 75.2539 262.661C75.3439 258.801 75.4539 254.421 75.8539 249.111C76.0139 246.981 76.0939 246.401 76.5539 243.171C76.9739 240.191 77.7639 234.651 79.2639 223.241C79.6739 220.081 80.0839 216.931 80.4939 213.811V213.791C80.5739 213.151 80.6539 212.511 80.7439 211.871C80.9639 213.191 81.1539 214.531 81.3139 215.871C81.5639 217.991 81.7539 220.131 81.8739 222.271C81.9239 223.141 81.9239 223.391 81.9339 224.151C81.9339 225.011 81.9539 226.601 82.0539 230.581C82.0739 231.521 82.2939 239.931 82.8039 246.341C82.9039 247.531 83.0039 248.721 83.1939 250.171C83.3139 251.041 83.4339 251.781 83.5639 252.551C83.8639 254.371 84.2139 256.431 84.6439 261.141C85.0439 265.411 85.1439 267.871 85.2339 270.241C85.3039 272.011 85.3739 273.841 85.5739 276.401C86.0439 282.551 86.6839 285.931 87.2939 288.701C87.3739 289.081 87.4639 289.441 87.5439 289.811C87.5939 290.041 87.6439 290.261 87.6939 290.491C88.2039 292.811 88.6339 294.991 88.8239 298.601C88.8939 299.961 88.9139 301.141 88.8839 302.221C88.8639 303.041 88.8239 303.791 88.7639 304.491C88.7239 304.881 88.6939 305.261 88.6439 305.621C88.4239 307.391 88.0739 308.871 87.7039 310.461C87.0239 313.361 86.2639 316.641 86.0339 322.621C85.9739 324.311 85.9739 325.511 86.0539 326.641C86.2339 329.241 86.5939 331.841 87.1039 334.181C88.7239 341.691 89.5339 345.451 89.9239 349.071C89.9239 349.181 89.9439 349.281 89.9539 349.401C90.1039 351.221 90.0439 354.151 89.9239 359.651C89.9139 360.381 89.8939 361.061 89.8739 361.691C89.8239 363.331 89.7739 364.671 89.7139 365.831C89.6239 367.661 89.5239 369.041 89.4239 370.391C89.3539 371.321 89.2939 372.211 89.2339 373.231C89.1739 374.321 89.1139 375.541 89.0639 377.061C89.0539 377.561 89.0339 378.091 89.0239 378.671C89.0239 378.691 89.0239 378.711 89.0239 378.731C89.0239 378.861 89.0239 379.001 89.0239 379.131C89.0239 379.281 89.0239 379.431 89.0239 379.581V379.881C88.9839 381.671 88.9539 383.911 88.5639 386.891C88.2839 389.041 88.0339 390.041 87.7939 391.011C87.5739 391.891 87.3639 392.721 87.1739 394.291C86.6539 398.761 87.1339 402.491 87.6339 406.431C87.8739 408.301 88.1939 410.181 88.5639 412.011L88.6439 412.381H89.0239C92.0739 412.341 95.0739 411.871 97.9439 410.961C99.8439 410.371 101.214 409.941 102.514 409.051C107.374 405.751 107.784 398.361 107.984 394.821C108.204 390.931 107.784 388.921 107.264 386.381C106.884 384.521 106.444 382.401 106.134 379.021C106.104 378.701 106.074 378.381 106.054 378.061C106.034 377.851 106.024 377.651 106.004 377.451C105.934 376.411 105.884 375.401 105.864 374.411C105.784 370.981 105.964 367.811 106.274 364.481C106.364 363.461 106.474 362.431 106.584 361.361C106.594 361.251 106.604 361.141 106.624 361.031C106.634 360.901 106.654 360.771 106.664 360.651C106.734 360.031 106.804 359.401 106.874 358.761C107.244 355.441 108.014 348.531 109.644 342.171L109.694 341.971C110.174 340.101 111.454 335.151 111.504 328.641V327.711C111.414 317.011 111.384 307.881 111.414 300.141C111.424 296.191 111.454 292.611 111.484 289.371C111.504 286.831 111.544 284.491 111.574 282.361C111.784 268.541 112.134 263.071 112.144 262.981C112.854 252.331 113.754 247.271 114.554 242.821C115.444 237.841 116.214 233.541 116.594 223.181C116.834 216.711 116.834 206.351 116.214 195.791C116.214 195.591 116.194 195.391 116.174 195.191C116.154 194.861 116.134 194.531 116.114 194.201C116.064 193.421 116.004 192.651 115.954 191.871C115.894 191.091 115.834 190.321 115.764 189.541L115.664 188.421C115.664 188.421 115.664 188.391 115.664 188.381C115.214 183.341 114.774 180.241 114.354 177.241C114.144 175.761 113.944 174.321 113.744 172.701C113.434 170.081 113.134 166.991 112.884 162.531C112.774 160.521 112.654 158.541 112.574 156.541C112.264 149.591 112.214 142.531 113.344 133.931C113.554 132.321 113.804 130.711 114.084 129.111C114.164 128.611 114.264 128.121 114.354 127.621C114.594 126.341 114.844 125.071 115.124 123.801C115.174 123.551 115.224 123.321 115.284 123.081C116.344 126.341 117.254 129.681 117.994 133.041C118.814 136.781 119.104 139.101 119.554 142.621C119.624 143.181 119.694 143.751 119.774 144.371C119.924 145.521 120.094 146.801 120.304 148.291C120.384 148.871 120.464 149.431 120.544 149.981C120.544 149.991 120.544 150.011 120.544 150.021C120.604 150.381 120.644 150.731 120.694 151.071C121.954 160.001 122.694 164.811 124.024 168.701C125.024 171.631 125.774 173.131 126.654 174.861C127.644 176.811 128.754 179.031 130.504 183.971C132.774 190.391 133.534 194.131 133.904 196.381C133.924 196.521 133.954 196.741 133.994 197.051C133.994 197.111 134.004 197.171 134.014 197.241C134.044 197.491 134.074 197.801 134.104 198.151C134.254 199.681 134.484 202.191 134.824 206.061L134.894 206.931C134.924 207.281 134.954 207.611 134.984 207.931C135.554 214.351 135.774 216.231 137.194 218.741C137.714 219.661 139.094 222.101 141.974 223.991C144.674 225.761 147.274 226.091 149.574 226.371C152.534 226.741 155.544 226.581 158.524 225.901L158.874 225.821V225.461C158.984 222.601 158.664 219.751 157.944 217.001C157.624 215.761 157.214 214.531 156.724 213.331C156.994 213.501 157.284 213.671 157.564 213.821C160.434 215.411 161.854 215.791 162.464 215.111C163.094 214.421 162.384 213.091 161.594 211.781L161.554 211.861ZM71.7039 373.231C71.7639 373.511 71.8239 373.801 71.8839 374.101C72.2239 375.741 72.3739 377.411 72.3339 379.081C72.3939 380.591 72.3439 381.871 72.3039 383.201C72.2439 384.871 72.1839 386.591 72.3439 388.841C72.5239 391.551 72.8639 392.811 73.3039 394.401C73.6839 395.801 74.1639 397.551 74.6639 400.901C75.2339 404.731 75.5439 408.611 75.5839 412.451C71.7539 412.881 63.3239 413.131 58.6339 407.931C57.8239 407.031 57.2939 406.161 57.0139 405.691C54.7139 401.871 54.0839 397.541 54.7639 390.241C55.1539 386.081 55.6539 384.421 56.0939 382.951C56.5239 381.531 56.8939 380.301 57.0639 377.341C57.0639 377.341 57.0639 377.321 57.0639 377.311C57.2339 376.551 57.3839 375.781 57.5239 375.021C57.7339 373.871 57.8039 373.331 57.8539 372.981C57.8739 372.831 57.8939 372.721 57.9139 372.611C57.9339 372.511 57.9539 372.411 57.9839 372.281C58.1039 371.781 58.8439 369.231 61.1239 367.811C62.0839 367.211 62.9839 367.021 63.5939 366.891C64.4339 366.711 65.5939 366.461 66.8339 366.791C67.1139 366.861 67.3739 366.961 67.6139 367.081C68.4239 367.461 69.0539 368.041 69.5339 368.621C69.9939 369.171 70.3239 369.731 70.5539 370.101C70.8439 370.581 71.0539 371.051 71.2339 371.521C71.2339 371.521 71.2339 371.531 71.2339 371.541C71.4239 372.081 71.5639 372.641 71.7039 373.251V373.231ZM106.334 386.601C106.844 389.081 107.254 391.041 107.044 394.801C106.854 398.201 106.464 405.281 101.974 408.321C100.784 409.131 99.5339 409.521 97.6439 410.111C94.9839 410.951 92.1939 411.401 89.3739 411.471C89.0339 409.771 88.7539 408.051 88.5339 406.331C88.0339 402.441 87.5639 398.781 88.0739 394.421C88.2539 392.901 88.4439 392.131 88.6639 391.251C88.9039 390.311 89.1739 389.231 89.4639 387.031C89.8439 384.061 89.8939 381.831 89.9239 380.021V379.581V379.561C89.9239 379.291 89.9239 379.031 89.9439 378.761C89.9439 378.741 89.9439 378.721 89.9439 378.701C89.9739 377.831 90.0639 376.971 90.1939 376.111C90.2539 375.751 90.3139 375.391 90.3839 375.031C90.4139 374.901 90.4439 374.761 90.4639 374.631C90.7539 373.251 91.0039 372.191 91.7139 371.011C92.2539 370.121 93.3639 368.261 95.4339 367.711C95.7139 367.641 95.9939 367.591 96.2639 367.571C97.1339 367.491 97.9239 367.641 98.5539 367.781C98.5939 367.781 98.6339 367.801 98.6739 367.811C99.2739 367.941 100.174 368.131 101.134 368.731C103.424 370.151 104.154 372.701 104.274 373.201C104.344 373.471 104.364 373.611 104.394 373.901C104.434 374.211 104.494 374.651 104.644 375.511C104.664 375.641 104.694 375.791 104.724 375.941C104.794 376.331 104.874 376.731 104.954 377.121C104.984 377.281 105.014 377.431 105.054 377.591C105.084 378.101 105.124 378.611 105.174 379.141C105.484 382.571 105.924 384.711 106.314 386.601H106.334ZM161.754 214.561C161.694 214.591 161.124 214.831 157.974 213.091C157.244 212.681 156.544 212.231 155.894 211.731L154.394 210.601L155.194 212.301C155.954 213.911 156.564 215.591 157.014 217.311C157.674 219.861 157.984 222.501 157.934 225.151C155.164 225.741 152.384 225.871 149.644 225.531C147.344 225.241 144.964 224.941 142.444 223.291C139.754 221.531 138.454 219.231 137.964 218.361C136.664 216.051 136.434 214.231 135.894 208.161C135.864 207.771 135.824 207.351 135.784 206.921L135.714 206.051C135.394 202.401 135.174 199.951 135.024 198.391L135.144 198.111L135.294 197.751C135.174 197.701 135.064 197.651 134.944 197.601C134.884 196.951 134.824 196.531 134.794 196.301C134.424 194.011 133.654 190.221 131.354 183.731C129.584 178.731 128.454 176.491 127.454 174.511C126.594 172.811 125.854 171.341 124.874 168.471C123.564 164.641 122.824 159.811 121.554 150.821C121.544 150.711 121.524 150.601 121.504 150.491C121.404 149.751 121.294 148.991 121.184 148.201C120.934 146.451 120.744 144.981 120.584 143.671C120.534 143.291 120.484 142.911 120.444 142.561C119.994 139.021 119.704 136.681 118.874 132.911C118.064 129.201 117.034 125.511 115.844 121.941L115.514 120.971L115.154 119.941L115.104 119.791L114.804 121.051V121.091L114.734 121.341C114.434 122.591 114.154 123.851 113.894 125.121C113.294 128.021 112.794 130.951 112.414 133.881C111.284 142.501 111.314 149.571 111.624 156.521C111.684 157.791 111.744 159.061 111.814 160.321C111.854 161.091 111.894 161.871 111.944 162.641C112.354 169.891 112.874 173.551 113.414 177.421C113.834 180.421 114.274 183.521 114.714 188.551C114.924 190.881 115.094 193.231 115.234 195.581C115.254 195.891 115.274 196.201 115.294 196.511C115.344 197.291 115.374 198.061 115.414 198.841C115.414 198.911 115.414 198.981 115.414 199.051C115.864 208.451 115.844 217.391 115.624 223.181C115.244 233.481 114.484 237.751 113.594 242.691C112.794 247.171 111.884 252.251 111.174 262.951C111.174 263.041 110.814 268.481 110.594 282.221C110.564 284.481 110.534 286.971 110.504 289.701C110.484 292.331 110.464 295.191 110.444 298.281C110.064 298.021 109.654 297.781 109.254 297.571L109.094 297.881L108.824 298.391C109.384 298.681 109.924 299.031 110.434 299.411C110.404 307.321 110.434 316.711 110.524 327.791V328.671C110.464 335.061 109.214 339.941 108.734 341.781L108.684 341.981C107.044 348.411 106.274 355.361 105.904 358.701C105.844 359.221 105.784 359.721 105.734 360.231C105.354 360.051 104.964 359.881 104.554 359.741L104.414 360.141L104.244 360.611C104.724 360.781 105.184 360.981 105.624 361.211C105.504 362.331 105.394 363.431 105.294 364.501C105.054 367.061 104.894 369.531 104.864 372.091C104.434 370.931 103.494 369.121 101.594 367.941C100.494 367.261 99.4539 367.031 98.8339 366.901C98.5739 366.841 98.2739 366.781 97.9539 366.731C97.5739 366.671 97.1439 366.621 96.6839 366.621C96.2039 366.621 95.6939 366.681 95.1639 366.811C92.7339 367.461 91.4439 369.621 90.8939 370.541C90.6039 371.021 90.3839 371.481 90.2139 371.951C90.2539 371.451 90.2839 370.961 90.3239 370.471C90.4239 369.101 90.5339 367.691 90.6239 365.831C90.6839 364.771 90.7339 363.561 90.7739 362.121C90.8639 362.031 90.9639 361.941 91.0539 361.861C91.4939 361.481 91.9839 361.141 92.5039 360.861L92.2339 360.351L92.0739 360.041C91.6339 360.281 91.2039 360.561 90.8139 360.861C90.8139 360.491 90.8339 360.101 90.8439 359.691C90.9739 353.811 91.0439 350.851 90.8439 348.991C90.4539 345.331 89.6339 341.551 88.0039 334.001C87.5039 331.721 87.1539 329.171 86.9839 326.611C86.9139 325.521 86.9039 324.351 86.9639 322.701C87.1839 316.811 87.9439 313.571 88.6039 310.721C89.1739 308.241 89.7039 306.011 89.7939 302.601C90.0739 302.091 90.3939 301.611 90.7539 301.161C90.8139 301.081 90.8739 301.011 90.9439 300.931L90.4939 300.541L90.2439 300.331C90.1739 300.411 90.1039 300.501 90.0339 300.581C89.9539 300.681 89.8739 300.771 89.8039 300.881C89.8039 300.171 89.7739 299.421 89.7339 298.611C89.5539 295.161 89.1539 293.001 88.6839 290.801C88.6039 290.431 88.5239 290.051 88.4339 289.671C88.3239 289.161 88.2039 288.631 88.0839 288.081C87.5239 285.421 86.9239 282.131 86.4939 276.391C86.3039 273.851 86.2239 272.031 86.1539 270.271C86.0639 267.881 85.9639 265.421 85.5639 261.121C85.1239 256.371 84.7739 254.291 84.4639 252.461C84.3339 251.691 84.2139 250.971 84.0939 250.111C83.9039 248.681 83.8039 247.511 83.7139 246.331C83.2039 239.951 82.9839 231.561 82.9639 230.631C82.8639 226.651 82.8539 225.061 82.8439 224.201C82.8439 223.431 82.8439 223.161 82.7839 222.281C82.5839 218.621 82.1739 214.971 81.5739 211.401C81.4339 210.531 81.2739 209.671 81.1039 208.801L81.0539 208.531L80.9339 207.941L80.8439 207.491L80.6839 206.671L80.6139 206.331L80.5539 206.001L80.4939 206.431V206.481L80.4739 206.621L80.3839 207.321L80.3439 207.651V207.701L80.2839 208.141V208.191L80.1939 208.831C79.6039 213.521 78.9739 218.341 78.3439 223.171C76.8439 234.581 76.0539 240.121 75.6339 243.091C75.1839 246.271 75.0839 246.931 74.9239 249.101C74.5239 254.431 74.4239 258.821 74.3239 262.701C74.1939 268.331 74.0739 272.781 73.0839 276.781C72.9839 277.191 72.8639 277.631 72.7439 278.101C72.5539 278.811 72.3639 279.581 72.1539 280.431C71.6539 282.491 71.1039 284.981 70.6539 288.021C70.5239 288.881 70.4039 289.771 70.2939 290.721C70.0439 292.881 69.8939 294.781 69.7939 296.431C69.5439 300.751 69.7339 303.361 69.8239 304.231C70.1539 307.561 70.6839 309.181 71.2339 310.911C71.6939 312.311 72.1639 313.761 72.6039 316.291C73.1039 319.181 73.2239 321.051 72.1339 338.391C71.8939 342.201 71.7239 344.921 71.5139 347.931C71.4039 349.471 71.3639 350.141 71.3239 350.721C71.2939 351.171 71.2639 351.561 71.2139 352.261C70.9939 355.481 70.8439 358.051 70.7539 360.131L70.6739 360.371L70.5439 360.761C70.6039 360.781 70.6639 360.801 70.7239 360.821C70.5839 364.201 70.6039 366.211 70.6939 367.691C70.7239 368.091 70.7539 368.441 70.7839 368.781C70.6239 368.551 70.4439 368.311 70.2339 368.061C69.5139 367.191 68.4739 366.281 67.0439 365.901C67.0139 365.901 66.9839 365.891 66.9539 365.881C65.5339 365.521 64.2339 365.801 63.3639 365.991C62.7439 366.121 61.6939 366.351 60.6039 367.031C58.0839 368.601 57.2439 371.281 57.0539 372.071C57.0339 372.141 57.0239 372.201 57.0139 372.261C56.9639 372.461 56.9439 372.621 56.9139 372.831C56.8939 372.621 56.8739 372.401 56.8539 372.171C56.6539 369.881 56.3039 366.371 55.7439 360.541C55.7139 360.201 55.6839 359.851 55.6439 359.491L55.2439 355.411C54.8839 351.721 54.8739 351.651 54.8139 351.321C54.4039 348.961 53.8339 346.941 53.2339 344.811C52.4839 342.141 51.6239 339.111 50.8439 334.621C50.0439 330.041 49.7739 326.701 49.4639 312.021C49.3639 307.341 49.2939 303.401 49.2539 300.041V299.991C49.2539 299.471 49.2439 298.961 49.2339 298.461C49.1939 295.351 49.1839 292.761 49.1739 290.511C49.1739 288.601 49.1739 286.941 49.1739 285.441C49.1739 280.761 49.1739 277.391 48.9939 272.221C48.6039 261.411 47.8539 256.451 47.1339 251.661C46.4339 247.011 45.7139 242.191 45.2939 231.971C44.8139 220.211 45.0739 209.951 45.4939 201.791C45.5539 200.621 45.6139 199.501 45.6839 198.421C45.6839 198.391 45.6839 198.361 45.6839 198.321C45.7339 197.541 45.7739 196.791 45.8239 196.061C45.8239 195.881 45.8439 195.701 45.8539 195.521C45.8939 194.911 45.9339 194.331 45.9739 193.761C46.0339 192.961 46.0839 192.211 46.1339 191.481C46.1639 191.101 46.1839 190.741 46.2139 190.371C46.2439 189.971 46.2739 189.571 46.2939 189.191C46.3239 188.801 46.3539 188.421 46.3839 188.051C46.9739 180.351 47.5839 175.641 48.1239 171.441C48.5739 167.931 48.9639 164.961 49.2139 161.111C49.3139 159.601 49.3939 157.971 49.4539 156.121C49.4539 156.071 49.4539 156.011 49.4539 155.961C49.7739 144.921 49.0339 133.851 47.2539 122.951C46.9439 121.011 46.5839 119.081 46.2039 117.151L46.1039 116.641L45.8739 115.501L45.5939 114.091L45.5739 114.281L45.2839 117.191C45.0439 119.631 44.7339 122.121 44.3639 124.571C43.8039 128.261 43.2939 130.601 42.8439 132.661C42.5539 133.971 42.2839 135.201 42.0439 136.591C41.6739 138.761 41.4939 140.511 41.4139 142.011C41.3139 143.921 41.3739 145.441 41.4439 146.921C41.4839 147.721 41.5139 148.491 41.5239 149.321C41.0339 149.571 40.5439 149.801 40.0539 150.001L40.4039 150.861C40.7739 150.711 41.1439 150.541 41.5139 150.361C41.5139 150.391 41.5139 150.421 41.5139 150.461C41.4939 151.781 41.3839 153.261 41.1139 155.111C40.8539 156.891 40.6839 157.361 40.1039 158.911C39.4939 160.551 38.4839 163.311 36.5039 169.851C35.8739 171.941 35.3139 173.841 34.8039 175.591C32.6439 182.991 31.2139 187.871 27.7539 194.281C27.6439 194.471 27.4939 194.711 27.3139 194.971C27.2039 195.141 27.0739 195.321 26.9439 195.521C26.5939 196.061 26.2039 196.731 25.8839 197.561C25.7839 197.821 25.6939 198.071 25.6139 198.311C25.5139 198.611 25.4339 198.891 25.3739 199.171C24.9439 200.961 25.0639 202.501 25.2139 204.321C25.3139 205.591 25.4339 207.021 25.3939 208.821C25.3139 212.521 25.2139 216.711 22.4639 219.611C21.5239 220.601 20.4839 221.201 17.8239 222.271C13.6939 223.941 9.29387 225.301 4.71387 226.301C4.55387 224.031 4.56388 221.751 4.75388 219.501C5.09388 215.401 5.93388 212.301 6.40388 210.811C6.60388 210.191 6.81388 209.581 7.03388 208.981L7.78388 206.981L6.27387 208.491C2.47387 212.291 1.25388 212.931 0.903877 213.031C0.903877 212.821 0.983882 212.411 1.03388 212.151C1.42388 210.301 2.45388 209.061 2.78388 208.651C5.55388 205.311 6.94389 203.631 7.91389 202.131C8.34389 201.451 8.52388 201.111 8.72388 200.711C8.93388 200.311 9.16388 199.851 9.76388 198.881C11.1939 196.561 12.4739 194.941 12.8839 194.411L12.9739 194.291C13.2439 193.941 13.5039 193.561 13.7539 193.161C13.7539 193.161 13.7539 193.151 13.7539 193.141C14.6939 191.601 15.4539 189.721 16.0539 187.831C17.1039 184.551 17.6939 181.261 17.9639 179.751C19.2039 172.831 19.3639 170.011 19.4939 167.741C19.5939 165.931 19.6839 164.361 20.2739 161.251C21.4539 155.071 22.7339 151.861 23.8639 149.031C24.1239 148.391 24.3739 147.751 24.6239 147.091C24.7539 147.221 24.8939 147.361 25.0339 147.491L25.3739 147.121L25.6639 146.811C25.4239 146.591 25.1939 146.361 24.9739 146.131C25.5739 144.451 26.1239 142.541 26.5839 139.981C26.6439 139.671 26.6939 139.361 26.7439 139.031C27.6239 133.531 27.3039 130.371 26.8939 126.371C26.6239 123.801 26.3239 120.881 26.2839 116.741C26.1839 105.571 26.4139 96.9606 30.4139 87.7906L30.8439 86.8007C31.3339 85.6707 31.8139 84.5706 32.3039 83.5006C32.3539 83.5306 32.4039 83.5607 32.4439 83.5907L32.7639 83.1207L32.9639 82.8307C32.8739 82.7707 32.7839 82.7107 32.6939 82.6507C33.3739 81.2307 34.1139 79.8906 34.9639 78.6406C36.2639 76.7506 37.8339 75.0606 39.9539 73.6406C41.6439 72.5006 42.7139 72.1806 44.6539 71.6006C46.6139 71.0106 49.2939 70.2006 54.2239 68.1406C60.7839 65.3906 63.8739 63.4307 65.5339 61.4807C65.6139 61.6207 65.7039 61.7707 65.7939 61.9107L66.0439 61.7507L66.5739 61.4107C66.4239 61.1707 66.2739 60.9207 66.1539 60.6707C66.4939 60.1507 66.7539 59.6307 66.9739 59.0907C67.6739 57.3607 67.8539 55.5007 67.9039 54.0707C67.9139 53.6407 67.9239 53.2507 67.9239 52.9107V52.5707C67.5639 52.0407 67.2439 51.4607 66.9139 50.8207C66.7939 50.5907 66.6739 50.3606 66.5539 50.1106C66.5239 50.0506 66.4939 49.9907 66.4539 49.9207C65.6039 48.2407 65.2139 46.9107 64.6339 44.9107C63.8839 42.3307 63.5039 41.0407 63.2639 39.4207C63.2639 39.3407 62.9639 37.4607 62.1439 35.3307C62.0039 34.9607 61.8339 34.6507 61.8239 34.6407C61.3039 33.7207 60.7939 33.3006 60.3439 32.9306C59.8839 32.5606 59.4839 32.2406 59.0539 31.4106C59.0539 31.3906 58.0039 29.3106 58.6239 27.1206C58.7839 26.5306 59.0139 26.1606 59.3039 26.0206C59.4439 25.9506 59.6039 25.9206 59.7439 25.9206C59.9739 25.9206 60.1839 25.9806 60.3239 26.0406L61.1239 26.3406L60.9339 25.5006C60.7339 24.6006 60.5739 23.6906 60.4839 22.7806C60.3339 21.3606 59.9239 17.5606 61.3839 13.2606C61.9339 11.6406 63.4039 7.33065 67.6939 4.23065C70.9739 1.87065 74.3039 1.41065 76.7339 1.08065C78.7939 0.80065 82.0439 0.65065 85.8139 1.53065L85.9039 1.55065C87.8939 2.02065 90.1639 2.55065 92.5939 4.23065C94.0039 5.21065 95.9939 6.94065 97.4939 9.63065C98.7339 11.8606 99.1139 13.8506 99.3339 15.0406C99.9739 18.4306 99.8039 21.9406 98.8439 25.4806L98.5539 26.5306L99.5139 26.0006C100.574 25.4106 101.444 25.2306 101.844 25.5106C102.064 25.6606 102.214 26.0006 102.274 26.4406C102.404 27.3906 102.114 28.9006 101.284 29.9206C100.954 30.3406 100.594 30.6006 100.204 30.8706C99.5939 31.3006 98.9739 31.7507 98.4539 32.7807C98.1339 33.4207 98.0239 33.9607 97.9539 34.2807C97.4839 36.5507 97.0639 39.3507 96.7839 41.2107C96.6939 41.8207 96.6139 42.3206 96.5639 42.6306C96.0739 45.5406 95.0039 47.6006 94.2939 48.9706C94.1139 49.3106 93.9339 49.6507 93.7439 50.0007C93.4539 50.5407 93.1439 51.0707 92.8139 51.5907C92.5539 52.0107 92.2739 52.4106 91.9839 52.8106C92.0239 53.2906 92.0639 53.7307 92.1039 54.1507C92.3039 56.0507 92.5739 57.3907 93.4039 58.6907C93.7839 59.2907 94.2339 59.7907 94.7139 60.2107C94.6239 60.5507 94.5139 60.8806 94.3739 61.2006L94.8539 61.4107L95.2239 61.5707C95.3339 61.3207 95.4239 61.0807 95.5039 60.8207C95.6439 60.9107 95.7839 61.0007 95.9239 61.0807C96.8439 61.6307 97.8439 62.0406 98.8839 62.4506L99.1639 62.5707C99.1639 62.5707 103.274 64.2406 111.164 68.1106C116.814 70.8806 120.734 74.1607 122.164 75.4407C123.434 76.5807 125.154 78.1307 126.894 80.2407C127.454 80.9107 128.004 81.6307 128.544 82.4207C129.534 83.8407 130.474 85.4607 131.304 87.3107C133.724 92.7207 133.914 97.4407 134.034 100.551C134.214 104.991 134.334 108.771 134.404 112.451C134.734 128.241 134.524 135.751 134.494 136.101L134.454 136.521C134.334 137.691 134.204 139.051 134.194 140.601C134.194 142.441 134.364 144.551 134.964 146.911C135.124 147.511 135.294 148.091 135.484 148.651C136.114 150.571 136.864 152.151 137.314 153.021C137.764 153.891 138.214 154.651 138.684 155.341C139.704 156.831 140.434 157.851 141.034 158.681C141.414 159.211 141.714 159.631 141.974 160.011C143.304 161.961 143.534 163.911 143.924 168.121C144.084 169.851 144.064 170.671 144.004 173.691C143.984 174.741 143.954 176.071 143.924 177.791C143.844 182.801 143.804 185.321 143.924 186.631C144.274 190.251 145.024 193.041 145.724 195.001C145.574 195.171 145.414 195.321 145.254 195.481L145.604 195.851L145.894 196.161C145.954 196.101 146.024 196.041 146.084 195.971C146.324 196.571 146.544 197.061 146.744 197.451L146.784 197.521C147.654 199.261 148.224 200.411 149.414 201.711C150.204 202.571 151.024 203.261 151.884 203.911C152.204 204.161 152.534 204.401 152.874 204.651C153.934 205.431 155.024 206.231 156.084 207.291L156.354 207.561C156.644 207.841 156.964 208.161 157.464 208.671C159.834 211.081 160.324 211.771 160.634 212.291C161.614 213.921 161.664 214.391 161.624 214.511L161.754 214.561ZM80.8639 207.471L80.7039 206.651L80.6339 206.311L80.5739 205.981L80.5139 206.411V206.461L80.4939 206.601L80.4039 207.301C80.4039 207.301 80.4539 207.331 80.4939 207.481C80.6339 207.621 80.7939 207.761 80.9539 207.921L80.8639 207.471ZM80.8639 207.471L80.7039 206.651L80.6339 206.311L80.5739 205.981L80.5139 206.411V206.461L80.4939 206.601L80.4039 207.301C80.4039 207.301 80.4539 207.331 80.4939 207.481C80.6339 207.621 80.7939 207.761 80.9539 207.921L80.8639 207.471Z" fill="oklch(44.6% 0.043 257.281)" stroke-width="2.5"/>
<path d="M81.7639 67.2306C81.0039 67.2806 80.2939 67.3106 79.6139 67.3106V68.2406C80.3139 68.2406 81.0439 68.2106 81.8339 68.1606L81.7739 67.2406L81.7639 67.2306ZM75.3639 66.9206L75.1839 67.8306C75.7139 67.9306 76.2639 68.0206 76.8339 68.0806C76.8839 68.0806 76.9339 68.0806 76.9939 68.0906C77.1239 68.1106 77.2639 68.1206 77.4039 68.1306L77.4839 67.2106C76.7539 67.1506 76.0439 67.0406 75.3739 66.9106L75.3639 66.9206ZM86.2239 67.6606L86.1939 67.5206L86.0539 66.7506C85.4139 66.8706 84.7139 66.9606 83.9239 67.0506L84.0139 67.9606C84.8239 67.8906 85.5439 67.7806 86.2139 67.6606H86.2239ZM71.3439 65.5806L70.9239 66.4106C71.5839 66.7406 72.2839 67.0306 73.0039 67.2706L73.2939 66.3906C72.6139 66.1606 71.9539 65.8906 71.3339 65.5906L71.3439 65.5806ZM90.3839 66.0706L90.1239 65.5106C89.5139 65.8006 88.8539 66.0506 88.1439 66.2506L88.3339 66.8906L88.4039 67.1406C89.1539 66.9206 89.8639 66.6506 90.5139 66.3406L90.3839 66.0606V66.0706ZM67.9539 63.1206L67.4239 63.6306L67.2839 63.7606C67.7939 64.2906 68.3739 64.7906 68.9939 65.2406L69.0339 65.1806L69.5339 64.4806C68.9539 64.0706 68.4239 63.6106 67.9439 63.1106L67.9539 63.1206ZM94.0639 63.5506L93.8739 63.4006L93.4139 63.0306C93.1839 63.3106 92.9339 63.5806 92.6639 63.8306C92.4339 64.0506 92.1739 64.2606 91.9139 64.4506L92.2839 64.9506L92.4639 65.1906C92.7539 64.9706 93.0339 64.7406 93.2939 64.5006C93.5939 64.2206 93.8739 63.9206 94.1339 63.6106L94.0639 63.5506Z" fill="oklch(44.6% 0.043 257.281)" stroke-width="2.5"/>
<path d="M79.1839 44.6106L79.2239 45.1206L79.2539 45.5306C80.0139 45.4806 80.7239 45.4506 81.4039 45.4506V44.5206C80.7039 44.5206 79.9739 44.5506 79.1839 44.6006V44.6106ZM83.6239 44.6206L83.5839 45.0506L83.5339 45.5406C84.2639 45.6006 84.9739 45.7106 85.6439 45.8406L85.7539 45.3106L85.8239 44.9306C85.1139 44.7906 84.3739 44.6806 83.6139 44.6206H83.6239ZM77.0339 45.1906L76.9939 44.7906C76.1839 44.8706 75.4639 44.9806 74.7939 45.1006L74.8639 45.4706L74.9639 46.0106C75.6039 45.8906 76.3039 45.8006 77.0939 45.7106L77.0439 45.1906H77.0339ZM88.0039 45.5006L87.9039 45.8106L87.7139 46.3706C88.3939 46.6006 89.0539 46.8706 89.6739 47.1706L89.9339 46.6506L90.0939 46.3406C89.4339 46.0106 88.7339 45.7206 88.0139 45.4806L88.0039 45.5006ZM72.7739 46.1606L72.6139 45.6106C71.8639 45.8306 71.1539 46.1006 70.5039 46.4106L70.8339 47.1106L70.8939 47.2506C71.5039 46.9606 72.1639 46.7106 72.8739 46.5106L72.7739 46.1706V46.1606ZM92.0139 47.5206L91.7439 47.9006L91.4739 48.2706C92.0539 48.6806 92.5839 49.1406 93.0639 49.6406L93.2839 49.4306L93.7239 49.0006C93.2139 48.4706 92.6339 47.9706 92.0139 47.5206ZM69.0839 48.3006L68.5439 47.5706C68.2539 47.7906 67.9739 48.0206 67.7139 48.2606C67.4139 48.5406 67.1339 48.8406 66.8739 49.1506L67.4139 49.5906L67.5939 49.7406C67.8239 49.4606 68.0739 49.1906 68.3439 48.9406C68.5739 48.7206 68.8339 48.5106 69.0939 48.3206L69.0839 48.3006Z" fill="oklch(44.6% 0.043 257.281)" stroke-width="2.5"/>
<path d="M111.634 160.911C111.504 161.291 111.334 161.661 111.144 162.021L110.324 161.591C110.494 161.271 110.644 160.931 110.764 160.591L111.634 160.901V160.911Z" fill="oklch(44.6% 0.043 257.281)" stroke-width="2.5"/>
<path d="M79.6738 171.861V171.401C78.9538 171.401 78.1938 171.401 77.4138 171.401V171.831V172.321C77.8338 172.321 78.2538 172.321 78.6638 172.321C79.0138 172.321 79.3538 172.321 79.6838 172.321V171.861H79.6738ZM84.2138 171.811L84.1738 171.221C83.5038 171.261 82.7538 171.301 81.9238 171.331L81.9438 171.851V172.251C82.7938 172.221 83.5539 172.181 84.2339 172.131L84.2138 171.801V171.811ZM72.9138 171.161L72.8839 171.521L72.8338 172.081C73.5738 172.141 74.3338 172.201 75.1138 172.231L75.1438 171.711L75.1638 171.301C74.3938 171.261 73.6438 171.211 72.9138 171.151V171.161ZM88.7438 171.501L88.6938 170.911C87.8938 170.981 87.1438 171.031 86.4438 171.081L86.4839 171.701L86.5038 172.011C87.2038 171.961 87.9738 171.911 88.7738 171.841L88.7438 171.511V171.501ZM68.4538 170.601L68.3938 170.951L68.3038 171.511C69.0338 171.631 69.7938 171.751 70.5638 171.841L70.6338 171.271L70.6738 170.931C69.9238 170.841 69.1738 170.731 68.4538 170.611V170.601ZM93.2538 170.971L93.1738 170.401C92.4538 170.501 91.7238 170.601 90.9338 170.691L90.9938 171.251L91.0338 171.611C91.8338 171.521 92.5739 171.421 93.2939 171.321L93.2438 170.971H93.2538ZM64.0738 169.641L63.9738 170.001L63.8238 170.531C64.5438 170.731 65.2938 170.911 66.0538 171.081L66.1738 170.551L66.2538 170.181C65.5138 170.021 64.7738 169.841 64.0738 169.641ZM97.7238 170.151L97.5838 169.561C96.8838 169.731 96.1438 169.891 95.3938 170.031L95.5038 170.621L95.5638 170.941C96.3338 170.801 97.0938 170.631 97.8038 170.461L97.7339 170.151H97.7238ZM59.8438 168.201L59.6938 168.571L59.4938 169.061C60.1838 169.351 60.9138 169.621 61.6438 169.861L61.8238 169.341L61.9438 168.981C61.2338 168.731 60.5238 168.471 59.8438 168.191V168.201ZM102.034 168.701L101.854 168.251C101.184 168.511 100.474 168.751 99.7438 168.981L99.9038 169.521L100.014 169.871C100.764 169.641 101.494 169.391 102.184 169.121L102.024 168.711L102.034 168.701ZM105.974 166.491L105.834 166.271C105.234 166.651 104.584 167.021 103.904 167.361L104.064 167.681L104.314 168.181C105.034 167.831 105.704 167.441 106.334 167.041L105.974 166.481V166.491ZM55.8638 166.201L55.6438 166.571L55.3838 167.001C56.0138 167.391 56.6938 167.761 57.4038 168.111L57.6238 167.671L57.8138 167.281C57.1338 166.941 56.4838 166.581 55.8638 166.201ZM52.3338 163.531L52.0938 163.781L51.6938 164.201C52.2438 164.721 52.8338 165.221 53.4638 165.691L53.8038 165.241L54.0238 164.951C53.4138 164.491 52.8538 164.021 52.3338 163.521V163.531ZM109.474 163.691L109.134 163.411C108.694 163.951 108.174 164.471 107.594 164.961L107.774 165.171L108.194 165.661C108.814 165.131 109.364 164.571 109.844 163.991L109.474 163.681V163.691Z" fill="oklch(44.6% 0.043 257.281)" stroke-width="2.5"/>
<path d="M50.8339 161.911L50.1139 162.491C49.8639 162.181 49.6239 161.861 49.4039 161.531L50.1639 161.011C50.3739 161.321 50.5939 161.621 50.8339 161.911Z" fill="oklch(44.6% 0.043 257.281)" stroke-width="2.5"/>
<path d="M63.5139 213.651L63.4439 214.091L63.3639 214.561C64.1739 214.691 64.9439 214.771 65.7039 214.811L65.7339 214.251L65.7439 213.891C65.0139 213.861 64.2839 213.781 63.5139 213.651ZM70.2539 213.761L70.1839 213.471C69.4639 213.651 68.7239 213.771 67.9839 213.841L68.0139 214.141L68.0739 214.761C68.8639 214.691 69.6439 214.561 70.4139 214.381L70.2639 213.761H70.2539ZM60.5239 213.001C60.1139 212.891 59.6339 212.771 59.0939 212.611L58.9539 213.111L58.8439 213.501C59.3939 213.661 59.8839 213.791 60.3039 213.901C60.5539 213.961 60.8139 214.021 61.0839 214.091L61.1739 213.721L61.3039 213.191C61.0339 213.121 60.7739 213.061 60.5239 213.001ZM74.5139 212.151L74.3239 211.821C73.6639 212.191 72.9839 212.521 72.3039 212.801L72.4239 213.091L72.6539 213.651C73.3739 213.361 74.0839 213.021 74.7839 212.621L74.5139 212.151ZM54.9239 210.921L54.7639 211.211L54.4739 211.731C55.1439 212.101 55.8539 212.441 56.6039 212.741L56.7939 212.261L56.9439 211.881C56.2339 211.591 55.5539 211.271 54.9139 210.921H54.9239ZM78.3439 209.591L77.9639 209.161C77.4339 209.651 76.8739 210.101 76.3239 210.521L76.2239 210.591L76.5039 210.971L76.7739 211.341L76.8839 211.261C77.4639 210.831 78.0439 210.351 78.5939 209.851L78.3539 209.591H78.3439ZM51.3639 208.241L51.0739 208.531L50.7139 208.891C51.2639 209.451 51.8639 209.971 52.4939 210.441L52.8639 209.951L53.0539 209.701C52.4539 209.251 51.8839 208.761 51.3739 208.231L51.3639 208.241ZM48.7139 204.661L48.1639 204.961L47.9039 205.101C47.9839 205.251 48.0739 205.411 48.1539 205.561C48.4639 206.101 48.8039 206.611 49.1639 207.091L49.3739 206.931L49.9039 206.551C49.4739 205.961 49.0639 205.321 48.7039 204.661H48.7139ZM47.4239 201.681C47.2939 201.291 47.1739 200.881 47.0539 200.491L46.4439 200.661L46.1639 200.731C46.2839 201.151 46.4039 201.571 46.5439 201.981C46.6639 202.321 46.7839 202.651 46.9039 202.971L47.2539 202.841L47.7639 202.641C47.6439 202.331 47.5239 202.021 47.4239 201.701V201.681Z" fill="oklch(44.6% 0.043 257.281)" stroke-width="2.5"/>
<path d="M114.854 201.081L114.374 200.951C114.264 201.351 114.144 201.751 114.004 202.141C113.894 202.461 113.784 202.781 113.664 203.081L114.054 203.241L114.524 203.421C114.644 203.101 114.774 202.771 114.884 202.431C115.024 202.021 115.154 201.601 115.264 201.181L114.844 201.071L114.854 201.081ZM112.994 205.271L112.714 205.121C112.354 205.781 111.954 206.421 111.514 207.011L111.684 207.131L112.264 207.561C112.724 206.941 113.144 206.271 113.534 205.571L112.994 205.281V205.271ZM110.184 208.811L110.074 208.701C109.554 209.221 108.984 209.721 108.394 210.171L108.504 210.321L108.944 210.911C109.574 210.431 110.184 209.911 110.734 209.361L110.184 208.821V208.811ZM85.1239 210.991C84.5639 210.581 84.0139 210.121 83.4839 209.631L83.2539 209.881L82.8639 210.311C83.4239 210.811 83.9939 211.291 84.5739 211.731L84.6739 211.801L85.0839 211.251L85.2239 211.061L85.1239 210.991ZM106.644 211.621L106.514 211.381C105.874 211.731 105.194 212.061 104.484 212.341L104.634 212.711L104.834 213.201C105.574 212.901 106.294 212.561 106.964 212.191L106.654 211.621H106.644ZM87.1039 212.281L86.9739 212.511L86.6439 213.081C87.3339 213.481 88.0539 213.821 88.7739 214.111L89.0039 213.551L89.1239 213.261C88.4439 212.991 87.7639 212.661 87.1139 212.281H87.1039ZM102.484 213.561L102.344 213.071C101.804 213.231 101.324 213.351 100.914 213.461C100.664 213.521 100.414 213.581 100.144 213.651L100.274 214.181L100.364 214.551C100.644 214.481 100.904 214.421 101.154 214.351C101.574 214.241 102.064 214.121 102.614 213.961L102.494 213.561H102.484ZM91.2439 213.941L91.1739 214.251L91.0339 214.841C91.7939 215.031 92.5839 215.151 93.3739 215.231L93.4339 214.631L93.4639 214.311C92.7239 214.241 91.9839 214.121 91.2639 213.941H91.2439ZM97.9939 214.561L97.9239 214.121C97.1539 214.241 96.4239 214.321 95.6939 214.361L95.7139 214.731L95.7339 215.291C96.5039 215.251 97.2639 215.171 98.0739 215.041L98.0039 214.571L97.9939 214.561Z" fill="oklch(44.6% 0.043 257.281)" stroke-width="2.5"/>
<path d="M64.0039 358.891C63.3839 358.891 62.7339 358.921 62.0339 358.971V359.171L62.0939 359.891C62.8639 359.831 63.5639 359.811 64.2439 359.811V358.881C64.1639 358.881 64.0739 358.881 63.9939 358.881L64.0039 358.891ZM66.4739 358.981L66.4439 359.291L66.3839 359.901C67.1139 359.961 67.8239 360.071 68.4939 360.201L68.6139 359.591L68.6739 359.291C67.9639 359.151 67.2239 359.041 66.4639 358.981H66.4739ZM59.8639 359.411L59.8439 359.161C59.0339 359.241 58.3139 359.341 57.6439 359.461L57.7239 359.891L57.8139 360.381C58.4539 360.261 59.1539 360.171 59.9439 360.091L59.8739 359.411H59.8639Z" fill="oklch(44.6% 0.043 257.281)" stroke-width="2.5"/>
<path d="M97.0639 358.841V358.801C96.1339 358.841 95.3039 358.951 94.5139 359.131L94.5839 359.431L94.7239 360.031C95.4539 359.861 96.2239 359.761 97.0939 359.721L97.0539 358.841H97.0639ZM100.234 358.881H100.214C99.9839 358.861 99.7839 358.851 99.5939 358.841L99.5539 359.771C100.174 359.801 101.024 359.851 101.964 360.021L102.084 359.331L102.124 359.111C101.424 358.991 100.784 358.921 100.244 358.891L100.234 358.881Z" fill="oklch(44.6% 0.043 257.281)" stroke-width="2.5"/>
<path d="M63.8538 293.651C63.3538 293.581 62.8338 293.541 62.3038 293.531V294.011L62.2838 294.461C62.7938 294.461 63.3038 294.511 63.7938 294.581C63.9838 294.611 64.1738 294.641 64.3538 294.671L64.4438 294.211L64.5238 293.771C64.3038 293.731 64.0738 293.691 63.8438 293.661L63.8538 293.651ZM60.1238 293.991L60.0838 293.631C59.3938 293.711 58.7038 293.831 57.9038 294.011L57.9538 294.211L58.1138 294.911C58.8738 294.741 59.5338 294.621 60.1938 294.541L60.1238 293.981V293.991ZM55.8438 294.771L55.7838 294.551C55.0138 294.771 54.3238 295.011 53.6838 295.281L53.8538 295.691L54.0438 296.131C54.6438 295.871 55.2938 295.641 56.0338 295.441L55.8438 294.771ZM66.6938 294.371L66.5738 294.691L66.3638 295.231C67.0038 295.481 67.6338 295.791 68.2238 296.151L68.5738 295.571L68.7038 295.361C68.0638 294.971 67.3838 294.641 66.6938 294.371ZM51.9638 296.741L51.6938 296.331C51.0538 296.751 50.4538 297.221 49.9338 297.751L50.0938 297.911L50.5938 298.401C51.0638 297.931 51.6038 297.491 52.2038 297.111L51.9638 296.741Z" fill="oklch(44.6% 0.043 257.281)" stroke-width="2.5"/>
<path d="M102.474 296.021C101.834 296.021 101.194 296.051 100.464 296.121L100.524 296.731L100.554 297.041C101.254 296.981 101.864 296.951 102.474 296.951H102.704V296.021H102.474ZM104.964 296.201L104.874 296.831L104.834 297.121C105.544 297.231 106.244 297.381 106.904 297.601L107.084 297.051L107.194 296.711C106.484 296.491 105.744 296.321 104.974 296.201H104.964ZM98.3438 296.931L98.2639 296.371C97.4539 296.491 96.7338 296.631 96.0538 296.811L96.2138 297.391L96.2939 297.701C96.9339 297.531 97.6238 297.391 98.3938 297.281L98.3438 296.931ZM94.1738 298.151L93.9138 297.581C93.2038 297.911 92.5438 298.301 91.9438 298.751L92.2738 299.201L92.4938 299.491C93.0438 299.091 93.6538 298.731 94.3038 298.431L94.1838 298.161L94.1738 298.151Z" fill="oklch(44.6% 0.043 257.281)" stroke-width="2.5"/>
<path d="M115.464 117.401C115.464 117.131 115.464 116.861 115.464 116.591V116.541H114.534V116.591C114.534 116.861 114.534 117.141 114.534 117.421C114.534 117.901 114.564 118.361 114.594 118.791L115.134 118.761L115.514 118.741C115.494 118.321 115.474 117.871 115.464 117.401ZM115.344 112.101L114.794 112.041C114.714 112.791 114.644 113.541 114.604 114.291L115.214 114.321L115.524 114.341C115.564 113.621 115.634 112.881 115.714 112.151L115.344 112.111V112.101ZM115.854 107.671L115.534 107.601C115.374 108.361 115.234 109.081 115.114 109.811L115.554 109.881L116.024 109.961C116.144 109.251 116.274 108.541 116.434 107.801L115.854 107.681V107.671ZM116.744 103.291L116.584 103.251L116.504 103.551C116.354 104.141 116.194 104.771 116.024 105.421L116.244 105.481L116.924 105.651C117.084 105.001 117.244 104.381 117.394 103.791L117.464 103.491L116.724 103.301L116.744 103.291ZM118.004 99.0007L117.864 98.9507C117.624 99.6607 117.404 100.361 117.184 101.091L117.324 101.131L118.064 101.351C118.274 100.631 118.494 99.9407 118.734 99.2507L118.004 99.0007ZM119.624 94.8307L119.434 94.7507C119.134 95.4807 118.874 96.1807 118.624 96.8407L118.784 96.9007L119.484 97.1707C119.734 96.5207 119.994 95.8207 120.284 95.1007L119.614 94.8307H119.624ZM121.604 90.8207L121.324 90.6707C120.984 91.3107 120.654 91.9707 120.324 92.6907L120.554 92.8007L121.164 93.0807C121.484 92.3807 121.804 91.7407 122.144 91.1107L121.614 90.8307L121.604 90.8207ZM124.154 87.1607L123.724 86.8407C123.284 87.4307 122.854 88.0607 122.454 88.7107L122.814 88.9407L123.244 89.2007C123.634 88.5807 124.044 87.9607 124.474 87.3907L124.164 87.1607H124.154ZM127.194 83.9407L126.714 83.4407C126.214 83.9207 125.714 84.4307 125.244 84.9607L125.144 85.0707L125.624 85.5007L125.834 85.6907L125.934 85.5807C126.384 85.0707 126.864 84.5807 127.354 84.1107L127.194 83.9407Z" fill="oklch(44.6% 0.043 257.281)" stroke-width="2.5"/>
<path d="M46.2739 111.411L46.2139 111.011C46.2039 110.911 46.1839 110.801 46.1639 110.681L45.4339 110.791L45.2439 110.821C45.3039 111.181 45.3339 111.411 45.3439 111.501V111.561C45.4139 112.041 45.4839 112.581 45.5639 113.191H45.5839L46.4739 113.081C46.4039 112.461 46.3339 111.901 46.2639 111.411H46.2739ZM45.3039 105.931L44.6639 106.061L44.4039 106.121C44.5839 106.971 44.7339 107.761 44.8639 108.461L45.1139 108.411L45.7739 108.291C45.6439 107.581 45.4839 106.781 45.3139 105.931H45.3039ZM44.1739 101.241L43.6839 101.381L43.2839 101.491C43.4839 102.221 43.6839 102.991 43.8739 103.791L44.1939 103.721L44.7739 103.581C44.5839 102.771 44.3739 101.981 44.1739 101.241ZM42.9539 97.4006C42.8639 97.1506 42.7639 96.9106 42.6739 96.6506L42.1839 96.8406L41.8039 96.9906C41.9039 97.2406 41.9939 97.4906 42.0839 97.7306C42.1139 97.8006 42.3339 98.3906 42.6039 99.2206L43.0139 99.0906L43.4839 98.9406C43.2039 98.0906 42.9839 97.4906 42.9539 97.4106V97.4006ZM40.7339 92.2206L40.1539 92.5106L39.9039 92.6306C40.3139 93.4606 40.6639 94.2606 40.8939 94.7906L41.2239 94.6406L41.7339 94.4206C41.5039 93.8906 41.1439 93.0806 40.7239 92.2206H40.7339ZM38.2439 88.0406L37.8239 88.3506L37.4939 88.5906C37.9339 89.2106 38.3639 89.8706 38.7839 90.5606L39.0239 90.4206L39.5839 90.0906C39.1639 89.3706 38.7139 88.6806 38.2539 88.0506L38.2439 88.0406ZM35.8339 85.2106C35.5539 84.9306 35.2739 84.6606 34.9739 84.4106L34.6639 84.7606L34.3639 85.1006C34.6439 85.3506 34.9139 85.6006 35.1839 85.8706C35.4739 86.1506 35.7539 86.4506 36.0239 86.7506L36.3539 86.4506L36.7139 86.1306C36.4239 85.8206 36.1339 85.5106 35.8339 85.2106Z" fill="oklch(44.6% 0.043 257.281)" stroke-width="2.5"/>
<path d="M14.7739 193.421L14.2239 193.821H14.2139L14.0239 193.971C14.5139 194.631 15.0439 195.231 15.6039 195.761L15.7439 195.611L16.2339 195.091C15.7039 194.591 15.2139 194.031 14.7539 193.421H14.7739ZM18.1039 196.551L17.9939 196.481L17.6239 197.061L17.5039 197.261L17.6239 197.331C18.0339 197.591 18.7239 198.031 19.6139 198.391L19.7139 198.141L19.9639 197.531C19.1539 197.201 18.5039 196.791 18.1139 196.541L18.1039 196.551ZM24.3639 198.691L24.2239 197.951C23.4739 198.091 22.7239 198.131 22.0539 198.061L21.9739 198.861V198.981C22.2139 199.001 22.4639 199.021 22.7239 199.021H22.7439C23.2839 199.021 23.8339 198.961 24.3939 198.861L24.3639 198.701V198.691Z" fill="oklch(44.6% 0.043 257.281)" stroke-width="2.5"/>
<path d="M38.1539 151.401L37.9839 150.731C37.2339 150.921 36.4939 151.031 35.7839 151.081L35.8139 151.541L35.8439 152.001C36.6139 151.951 37.4039 151.831 38.2039 151.631L38.1439 151.401H38.1539ZM31.4239 150.441L31.2639 150.871L31.1039 151.301C31.8839 151.591 32.6639 151.791 33.4339 151.901L33.5039 151.401L33.5639 150.991C32.8639 150.881 32.1439 150.701 31.4139 150.441H31.4239ZM28.5839 149.021C28.2139 148.801 27.8439 148.561 27.4839 148.301L27.3539 148.491L26.9539 149.051C27.3339 149.321 27.7239 149.581 28.1239 149.821C28.3439 149.961 28.6239 150.131 28.9639 150.311L29.2339 149.821L29.4139 149.501C29.0939 149.321 28.8239 149.161 28.6039 149.021H28.5839Z" fill="oklch(44.6% 0.043 257.281)" stroke-width="2.5"/>
<path d="M139.624 198.991L139.574 198.521C138.894 198.581 138.154 198.551 137.404 198.411L137.274 199.121L137.234 199.311C137.794 199.421 138.354 199.471 138.904 199.471C139.164 199.471 139.424 199.461 139.674 199.431L139.634 198.981L139.624 198.991ZM143.944 197.411L143.634 196.941L143.524 197.011C143.134 197.261 142.494 197.661 141.674 198.001L141.794 198.301L142.024 198.861C142.914 198.501 143.604 198.061 144.014 197.801L144.134 197.731L143.934 197.421L143.944 197.411Z" fill="oklch(44.6% 0.043 257.281)" stroke-width="2.5"/>
<path d="M123.644 151.191L123.554 151.541L123.424 152.091C124.224 152.291 125.014 152.411 125.784 152.461L125.824 151.831L125.844 151.541C125.134 151.491 124.394 151.381 123.644 151.191ZM130.364 151.341L130.204 150.901C129.484 151.161 128.764 151.341 128.054 151.451L128.094 151.751L128.184 152.371C128.954 152.251 129.734 152.061 130.514 151.771L130.354 151.341H130.364ZM134.634 149.441L134.144 148.761C133.784 149.011 133.414 149.261 133.024 149.501C132.814 149.631 132.544 149.791 132.224 149.961L132.564 150.571L132.674 150.771C132.994 150.591 133.274 150.421 133.514 150.281C133.904 150.041 134.304 149.791 134.684 149.511L134.634 149.441Z" fill="oklch(44.6% 0.043 257.281)" stroke-width="2.5"/>
</g>
<defs>
<clipPath id="clip0_23_116">
<rect width="162.706" height="413.591" fill="white"/>
</clipPath>
</defs>
</svg>
