<svg width="164" height="412" viewBox="0 0 164 412" fill="none" xmlns="http://www.w3.org/2000/svg">
<g clip-path="url(#clip0_23_79)">
<path d="M70.9816 404.601C70.6316 406.691 69.9916 408.751 69.0916 410.731L68.9616 411.011H68.6516C65.9216 410.911 61.8116 410.261 57.7716 407.691C55.5116 406.251 50.1116 402.171 48.7816 395.361C48.0116 391.441 48.9016 388.081 49.6816 385.111L49.7116 384.981C50.3816 382.441 51.1316 380.941 51.8516 379.481C52.2216 378.731 52.6016 377.961 52.9716 377.051C54.9416 372.201 54.5516 367.591 53.5716 358.901C54.7016 359.391 55.7416 359.791 56.5416 360.071C57.4516 360.391 58.0216 360.561 58.0216 360.561C58.2616 360.631 58.5016 360.701 58.7416 360.771C59.5116 361.001 60.2516 361.201 60.9716 361.371C61.7516 361.551 62.5116 361.681 63.2716 361.751C64.0416 361.821 64.8216 361.811 65.6216 361.711C66.0116 361.661 66.4116 361.591 66.8116 361.481C66.8116 361.481 67.2316 361.371 67.8916 361.111C68.5616 360.841 69.4716 360.411 70.4516 359.771C70.1016 364.911 69.7716 371.091 69.5816 377.691C69.4416 383.041 69.3516 385.991 69.5816 388.271C69.8116 390.641 70.1716 392.641 70.4816 394.401C71.0916 397.781 71.6016 400.711 70.9616 404.581L70.9816 404.601Z" fill="white"/>
<path d="M110.302 393.881C110.262 397.341 110.242 399.071 109.332 401.011C107.772 404.321 104.812 405.871 102.192 407.241C98.2316 409.311 93.8016 410.411 89.0316 410.531H88.6416L88.5716 410.161C87.7016 405.841 87.3916 401.441 87.6416 397.091C87.7816 394.681 88.0416 393.061 88.3516 391.191C88.5616 389.881 88.8016 388.401 89.0316 386.431C89.6516 381.111 89.5816 377.371 89.4916 371.701C89.4316 367.931 89.2716 366.001 88.9016 361.331C88.8316 360.371 88.7416 359.271 88.6316 357.991C88.6316 357.931 88.5616 357.641 88.6016 357.621C88.6416 357.611 88.7516 357.821 88.8316 357.991C89.0816 358.161 89.3416 358.321 89.6016 358.471C89.6716 358.511 89.7416 358.551 89.8116 358.591C89.9716 358.681 90.1316 358.771 90.2916 358.851C90.3416 358.881 90.3916 358.911 90.4416 358.931C91.0816 359.251 91.6716 359.511 92.1516 359.691C92.2116 359.711 92.2716 359.731 92.3316 359.751C92.9816 360.001 93.3916 360.111 93.3916 360.111C93.5716 360.161 93.8116 360.221 94.0816 360.281C94.1416 360.291 94.2016 360.311 94.2716 360.321C94.7616 360.431 95.3816 360.521 96.0916 360.581C96.1516 360.581 96.2216 360.581 96.2916 360.591C96.8516 360.631 97.4716 360.641 98.1316 360.601C98.1916 360.601 98.2616 360.601 98.3316 360.601C98.9216 360.561 99.5416 360.481 100.192 360.351C100.252 360.351 100.312 360.331 100.382 360.311C100.672 360.251 100.962 360.191 101.262 360.101C101.262 360.101 101.612 360.001 102.182 359.791C102.242 359.771 102.302 359.741 102.362 359.721C102.832 359.531 103.412 359.281 104.072 358.931C104.132 358.911 104.182 358.871 104.242 358.851C104.382 358.781 104.532 358.691 104.672 358.611C104.742 358.571 104.802 358.531 104.872 358.491C105.122 358.351 105.372 358.191 105.622 358.021C105.612 358.281 105.602 358.541 105.592 358.811C105.582 359.141 105.572 359.471 105.562 359.801C105.442 364.401 105.572 369.241 107.062 374.781C107.132 375.051 107.222 375.361 107.312 375.711C107.842 377.611 108.632 380.481 109.382 384.541C110.072 388.281 110.352 390.991 110.312 393.881H110.302Z" fill="white"/>
<path d="M79.7716 210.691C79.7716 210.691 79.7716 210.821 79.7716 210.921C79.7516 211.541 79.7716 212.001 79.7716 212.081C79.7916 212.441 79.7316 213.461 79.4616 216.191C79.0416 217.761 78.6716 219.361 78.3816 220.951C77.3116 226.741 77.4416 229.961 77.6016 233.691C77.7216 236.601 77.8516 239.881 77.4716 244.951C77.2316 248.041 76.9816 249.491 76.7016 251.171C76.4016 252.991 76.0516 255.051 75.6216 259.761C75.2216 264.031 75.1316 266.491 75.0316 268.861C74.9616 270.631 74.8916 272.461 74.6916 275.021C74.1516 282.011 73.4016 285.411 72.7316 288.431C72.4116 289.891 72.1116 291.231 71.8716 292.831C71.1016 293.171 70.3416 293.441 69.6016 293.651C68.8516 293.861 68.1316 294.011 67.4416 294.111C66.6516 294.241 65.9216 294.301 65.2616 294.351C64.8216 294.381 64.4216 294.401 64.0516 294.411C63.7516 294.421 63.4316 294.441 63.0716 294.441C62.4216 294.461 61.6916 294.461 60.8816 294.411C60.2016 294.371 59.4816 294.301 58.7016 294.181C58.0216 294.071 57.3116 293.931 56.5616 293.731C56.2916 293.661 56.0016 293.581 55.7216 293.491C55.3316 293.371 54.9116 293.241 54.4816 293.101C53.8316 292.881 53.1516 292.641 52.4716 292.351C51.8216 292.071 51.1816 291.741 50.5716 291.351C49.9316 290.941 49.3316 290.461 48.7916 289.891C48.7916 281.771 48.7816 272.341 48.7716 261.631C45.9416 248.431 44.2316 235.041 43.6816 221.811C43.4216 215.561 43.2016 202.751 44.6116 187.051C45.0616 181.991 45.5016 178.881 45.9216 175.871C46.1616 174.161 46.4016 172.491 46.6216 170.541C46.7216 170.551 46.8316 170.571 46.9316 170.601C46.9316 170.701 46.9216 170.801 46.9216 170.911C46.9216 171.331 46.9416 171.761 46.9216 172.761C46.9016 173.541 46.8816 173.561 46.9216 173.691C47.1216 174.321 47.9616 174.501 48.9816 174.741C49.3516 174.831 49.7516 174.931 50.1616 175.071C50.6116 175.231 50.8816 175.361 51.1616 175.551C51.5616 175.811 52.0016 176.191 53.0716 176.891C53.3016 177.041 53.5616 177.201 53.8616 177.391C54.3516 177.701 54.7316 177.911 55.0416 178.081C55.8116 178.511 56.2116 178.671 57.0916 179.161C57.3516 179.301 57.6516 179.481 58.0216 179.701C58.3716 179.911 58.7216 180.131 59.0816 180.341C59.7016 180.731 60.3416 181.151 61.0116 181.631C61.5416 182.021 62.0816 182.441 62.6416 182.931C62.7016 182.981 62.7616 183.031 62.8116 183.081C63.6616 183.831 63.6716 183.971 64.4316 184.751C64.6716 185.001 64.9816 185.301 65.4216 185.711C65.6716 185.941 65.9016 186.151 66.1116 186.341C66.8716 187.021 67.4316 187.471 67.8816 187.821C68.6316 188.411 69.0716 188.721 69.6216 189.351C69.7516 189.501 69.8916 189.671 70.0416 189.861C70.4216 190.361 70.6816 190.781 71.1516 191.091C71.2316 191.151 71.3216 191.201 71.4216 191.251V210.681H79.7516L79.7716 210.691Z" fill="white"/>
<path d="M73.6617 329.471C73.1717 332.601 72.4417 337.341 71.4417 347.671C71.2817 349.311 71.0417 351.941 70.7817 355.291C70.6717 356.671 70.5617 358.181 70.4517 359.791C69.4717 360.431 68.5617 360.861 67.8917 361.131C67.2317 361.391 66.8117 361.501 66.8117 361.501C66.4117 361.601 66.0117 361.681 65.6217 361.731C64.8217 361.841 64.0517 361.841 63.2717 361.771C62.5117 361.711 61.7417 361.571 60.9717 361.391C60.2417 361.221 59.5117 361.021 58.7417 360.791C58.5017 360.721 58.2617 360.651 58.0217 360.581C58.0217 360.581 57.4417 360.411 56.5417 360.091C55.7417 359.811 54.7017 359.411 53.5717 358.921C53.5217 358.431 53.4617 357.931 53.4017 357.411C53.3117 356.631 53.2217 355.801 53.1117 354.931C52.6317 350.891 51.9417 345.931 50.6317 340.821L50.5817 340.621C50.1017 338.751 48.8217 333.801 48.7717 327.291C48.7717 326.881 48.7717 326.571 48.7717 326.411V326.361C48.8017 322.861 48.8117 310.861 48.7917 290.571C48.7917 290.411 48.7917 290.241 48.7917 290.081V289.911C49.3317 290.481 49.9317 290.961 50.5717 291.371C51.1817 291.771 51.8217 292.091 52.4717 292.371C53.1517 292.671 53.8317 292.911 54.4817 293.121C54.9117 293.261 55.3217 293.381 55.7217 293.511C56.0117 293.601 56.2917 293.681 56.5617 293.751C57.3117 293.951 58.0217 294.101 58.7017 294.201C59.4817 294.321 60.2017 294.391 60.8817 294.431C61.6917 294.481 62.4217 294.481 63.0717 294.461C63.4217 294.461 63.7517 294.441 64.0517 294.431C64.4217 294.421 64.8217 294.401 65.2617 294.371C65.9217 294.331 66.6517 294.261 67.4417 294.131C68.1217 294.031 68.8517 293.881 69.6017 293.671C70.3417 293.461 71.1017 293.191 71.8717 292.851C71.6917 294.091 71.5417 295.501 71.4517 297.231C71.1417 303.011 71.8017 305.831 72.5617 309.091C73.2417 311.991 74.0017 315.271 74.2317 321.251C74.3717 324.961 74.1717 326.291 73.6717 329.481L73.6617 329.471Z" fill="white"/>
<path d="M116.112 217.851C116.112 218.351 116.112 218.861 116.112 219.371C116.092 221.821 116.052 224.201 115.992 226.471C115.982 227.031 115.962 227.601 115.942 228.171C115.942 228.451 115.922 228.731 115.912 229.001C115.892 229.531 115.872 230.071 115.852 230.611C115.432 240.881 114.702 245.721 114.002 250.401C113.802 251.741 113.592 253.081 113.392 254.571C112.962 256.941 112.482 259.291 111.972 261.631C111.972 272.341 111.952 281.771 111.952 289.891C111.962 290.201 112.012 291.941 110.762 293.041C110.462 293.291 110.142 293.481 109.832 293.611C109.262 293.861 108.722 293.921 108.452 293.961C108.082 294.011 107.872 294.001 107.652 293.961C107.402 293.941 107.132 293.901 106.602 293.961C106.052 294.011 105.752 294.091 105.462 294.171C105.162 294.261 104.862 294.361 104.292 294.421C104.002 294.451 103.922 294.451 103.292 294.431C103.002 294.431 102.582 294.431 101.982 294.421C101.642 294.421 101.362 294.421 101.112 294.421C100.542 294.421 100.152 294.421 99.7316 294.421C99.4016 294.421 99.1316 294.431 98.9216 294.441C98.1216 294.471 97.9916 294.511 97.5216 294.441C97.4316 294.431 97.4216 294.431 96.7216 294.251C96.4416 294.181 96.0516 294.081 95.5116 293.941C95.2016 293.871 94.8716 293.781 94.5716 293.701C94.4716 293.681 94.3716 293.651 94.2816 293.631C93.9216 293.541 93.6616 293.481 93.6616 293.481C93.6616 293.481 93.0416 293.181 92.4916 292.901C92.2216 292.771 91.9716 292.641 91.8116 292.551C91.4616 292.361 91.0416 292.101 90.5816 291.751C90.1416 291.401 89.6516 290.951 89.1516 290.371C89.1416 290.271 89.1316 290.171 89.1116 290.061C89.0916 289.831 89.0616 289.601 89.0416 289.361C88.3916 283.761 87.3716 279.781 86.6216 276.871C86.5016 276.391 86.3816 275.951 86.2816 275.541C86.0016 274.431 85.7616 273.111 85.5416 271.591C85.4816 270.601 85.4516 269.721 85.4216 268.851C85.3316 266.481 85.2316 264.021 84.8316 259.751C84.7116 258.501 84.6016 257.441 84.5016 256.521C84.4416 253.791 84.4116 250.831 84.4216 247.681C84.4516 241.731 83.9416 235.591 82.9216 229.311C82.8916 227.001 82.6816 224.441 82.0316 220.941C81.6616 219.011 81.2716 217.381 80.9316 216.181C80.4416 215.201 79.9116 213.801 79.7916 212.071C79.7916 212.041 79.7916 212.021 79.7916 211.991V211.941C79.7916 211.941 79.7916 211.941 79.7916 211.931V211.871C79.7916 211.821 79.7916 211.771 79.7916 211.721C79.7916 211.561 79.7916 211.351 79.7916 211.121C79.7916 211.061 79.7916 210.981 79.7916 210.921C79.7916 210.891 79.7916 210.871 79.7916 210.841C79.7916 210.841 79.7916 210.821 79.7916 210.811C79.7916 210.771 79.7916 210.731 79.7916 210.691H89.0416V191.261C89.1416 191.211 89.2316 191.161 89.3216 191.101C89.8016 190.791 90.0616 190.371 90.4516 189.871C90.5916 189.681 90.7316 189.521 90.8616 189.371C90.8616 189.371 90.8616 189.371 90.8616 189.361C91.4016 188.551 92.0516 188.021 92.4816 187.731C92.5716 187.661 92.6616 187.611 92.7316 187.561C93.2016 187.271 93.1516 187.391 93.4416 187.181C93.8816 186.871 94.0416 186.571 94.2416 186.231C94.3316 186.071 94.4416 185.911 94.5816 185.721C95.0016 185.171 95.3116 185.061 95.9216 184.641C96.2316 184.431 96.6116 184.141 97.1216 183.681C97.3716 183.461 97.5716 183.271 97.6916 183.151C97.7116 183.131 97.7316 183.111 97.7516 183.091C97.8116 183.041 97.8616 182.991 97.9216 182.941C98.4716 182.471 98.9816 182.071 99.4916 181.701C99.5216 181.681 99.5516 181.651 99.5716 181.641C100.202 181.191 100.812 180.791 101.412 180.421C101.452 180.401 101.482 180.371 101.522 180.351C101.892 180.131 102.242 179.921 102.602 179.711C102.912 179.521 103.172 179.371 103.402 179.241C103.472 179.201 103.522 179.181 103.542 179.171C104.102 178.871 104.942 178.341 105.382 178.051C105.562 177.931 105.672 177.861 105.672 177.861C106.542 177.281 106.972 176.991 107.062 176.931C107.152 176.871 107.242 176.811 107.322 176.771C108.402 176.091 108.522 176.131 109.312 175.591C109.332 175.581 109.352 175.561 109.372 175.551C110.032 175.091 110.192 174.901 110.762 174.621C110.972 174.521 111.132 174.451 111.302 174.371C111.422 174.311 111.552 174.251 111.692 174.151C111.852 174.051 111.982 173.941 112.102 173.821C112.272 173.671 112.402 173.511 112.512 173.371C112.552 173.321 112.582 173.271 112.622 173.221C112.742 173.411 112.922 173.731 113.082 174.151C113.782 175.881 113.582 177.451 113.542 177.851C113.312 180.141 114.342 184.181 114.932 188.921C115.402 195.531 116.112 205.511 116.112 217.861V217.851Z" fill="white"/>
<path d="M111.962 292.891V293.021C111.932 297.431 111.862 303.061 111.702 310.621C111.392 325.371 111.122 328.721 110.312 333.361C109.512 337.891 108.652 340.951 107.902 343.641C106.912 347.171 106.102 350.031 105.782 354.851C105.752 355.351 105.722 355.881 105.702 356.431C105.682 356.921 105.662 357.411 105.642 357.911C105.642 357.951 105.642 358.001 105.642 358.041C105.392 358.211 105.142 358.361 104.892 358.511C104.822 358.551 104.762 358.591 104.692 358.631C104.542 358.711 104.402 358.801 104.262 358.871C104.202 358.901 104.152 358.931 104.092 358.951C103.432 359.301 102.852 359.551 102.382 359.741C102.322 359.761 102.262 359.791 102.202 359.811C101.632 360.031 101.282 360.121 101.282 360.121C100.982 360.201 100.692 360.271 100.402 360.331C100.342 360.341 100.272 360.361 100.212 360.371C99.5616 360.501 98.9416 360.581 98.3516 360.621C98.2816 360.621 98.2216 360.621 98.1516 360.621C97.4916 360.661 96.8716 360.641 96.3116 360.611C96.2416 360.611 96.1816 360.611 96.1116 360.601C95.4016 360.541 94.7916 360.441 94.2916 360.341C94.2316 360.331 94.1616 360.311 94.1016 360.301C93.8216 360.241 93.5916 360.181 93.4116 360.131C93.4116 360.131 92.9916 360.021 92.3516 359.771C92.2916 359.751 92.2316 359.731 92.1716 359.711C91.6816 359.521 91.1016 359.271 90.4616 358.951C90.4116 358.931 90.3616 358.901 90.3116 358.871C90.1516 358.791 90.0016 358.701 89.8316 358.611C89.7616 358.571 89.6916 358.531 89.6216 358.491C89.3716 358.341 89.1116 358.181 88.8516 358.011C88.8516 357.891 88.8316 357.771 88.8216 357.641C88.8116 357.441 88.7916 357.231 88.7716 357.021C88.7716 356.951 88.7616 356.871 88.7516 356.801C88.7416 356.601 88.7216 356.391 88.7016 356.181C88.5816 354.651 88.4516 352.911 88.3116 350.911C88.2816 350.431 88.2416 349.971 88.2116 349.531C87.9016 345.141 87.7016 341.991 87.3916 337.061C86.2816 319.601 86.4016 317.691 86.9316 314.721C87.3816 312.121 87.8916 310.581 88.3316 309.221C88.9016 307.471 89.3816 305.961 89.7016 302.731C89.8116 301.621 90.0916 297.661 89.3916 290.841C89.3916 290.781 89.3916 290.721 89.3716 290.661C89.3716 290.581 89.3616 290.491 89.3516 290.411C89.8116 290.931 90.2516 291.351 90.6616 291.691C90.7016 291.731 90.7416 291.761 90.7816 291.791C91.2416 292.151 91.6516 292.411 92.0116 292.591C92.1416 292.661 92.3216 292.761 92.5316 292.861C92.5816 292.891 92.6416 292.911 92.6916 292.941C93.2516 293.221 93.8616 293.521 93.8616 293.521C93.8616 293.521 94.1216 293.581 94.4816 293.671C94.5216 293.671 94.5516 293.691 94.5916 293.701C94.6516 293.711 94.7116 293.731 94.7816 293.741C95.0816 293.821 95.4216 293.911 95.7216 293.981C96.1516 294.091 96.4816 294.171 96.7416 294.241C96.8116 294.251 96.8716 294.271 96.9316 294.291C97.6316 294.471 97.6416 294.471 97.7316 294.481C97.8716 294.501 97.9816 294.511 98.0816 294.511C98.0816 294.511 98.1016 294.511 98.1116 294.511C98.3216 294.511 98.5216 294.511 98.9316 294.481C98.9916 294.481 99.0616 294.481 99.1316 294.481C99.3516 294.481 99.6116 294.471 99.9416 294.461C100.162 294.461 100.382 294.461 100.622 294.461C100.782 294.461 100.942 294.461 101.122 294.461H101.322C101.572 294.461 101.862 294.461 102.192 294.461C102.542 294.461 102.822 294.461 103.062 294.461H103.312C103.382 294.461 103.452 294.461 103.512 294.461C103.722 294.461 103.882 294.461 103.992 294.461C104.222 294.461 104.322 294.461 104.512 294.441C104.962 294.391 105.252 294.321 105.492 294.251C105.562 294.231 105.622 294.211 105.682 294.191C105.972 294.111 106.272 294.021 106.822 293.981C106.962 293.971 107.082 293.961 107.192 293.961C107.392 293.961 107.542 293.961 107.672 293.961C107.742 293.961 107.812 293.971 107.872 293.981C107.942 293.981 108.022 293.991 108.102 294.001H108.132C108.272 294.001 108.442 294.001 108.682 293.971C108.932 293.941 109.382 293.881 109.882 293.691C109.942 293.671 110.002 293.651 110.062 293.621C110.602 293.391 110.562 293.221 110.992 293.051C111.352 292.901 111.702 292.881 111.982 292.901L111.962 292.891Z" fill="white"/>
<path d="M89.4917 191.261H71.4517V210.691H89.4917V191.261Z" fill="white"/>
<path d="M163.482 208.521C163.292 209.101 162.712 209.521 161.762 209.751C159.172 210.381 156.212 207.631 154.572 205.781C154.462 206.951 154.512 208.101 154.702 209.231C155.042 211.201 155.722 212.451 156.442 213.781C156.972 214.751 157.512 215.751 157.922 217.041C158.682 219.471 158.682 222.211 157.922 225.161L157.842 225.491L157.502 225.511C153.382 225.751 147.342 225.281 141.952 221.731C141.022 221.121 139.302 219.991 137.682 217.931C134.462 213.851 134.042 209.241 133.882 207.511C133.692 205.351 133.852 203.751 134.002 202.341C134.142 200.911 134.272 199.701 133.982 198.271C133.912 197.881 133.792 197.481 133.652 197.051C133.642 197.011 133.622 196.971 133.612 196.931C133.842 196.661 134.082 196.401 134.312 196.171C134.852 195.621 135.362 195.181 135.712 194.901C136.022 194.651 136.202 194.521 136.202 194.521C136.682 194.191 137.152 193.851 137.652 193.571C138.312 193.191 139.012 192.891 139.862 192.741C140.022 192.711 140.192 192.691 140.362 192.671C140.952 192.611 141.612 192.631 142.272 192.731C143.092 192.841 143.902 193.071 144.572 193.411C145.162 193.701 145.632 194.081 145.912 194.531C146.032 194.721 146.282 195.221 146.842 195.461C147.212 195.621 147.572 195.601 147.852 195.551C151.162 196.871 151.182 196.881 151.192 196.881C152.772 197.581 153.252 198.011 157.002 201.331C158.142 202.341 159.602 203.631 161.492 205.291C162.442 206.121 163.862 207.361 163.472 208.561L163.482 208.521Z" fill="white"/>
<path d="M14.5516 193.111C14.4616 193.541 14.3216 194.191 14.0916 194.961C14.0916 194.961 13.8716 195.721 13.6316 196.351C13.0116 197.991 10.6816 200.021 9.00164 201.441C6.04164 203.941 4.55164 205.191 3.91164 205.601C3.66164 205.761 2.95164 206.211 2.19164 207.001C1.84164 207.361 1.23164 208.061 0.721637 209.091C0.421637 209.701 -0.498363 211.541 0.351637 212.401C0.801637 212.861 1.58164 212.891 2.68164 212.511C4.15164 212.001 4.98164 210.901 5.48164 210.211C5.40164 211.601 4.71164 214.701 4.45164 215.851L4.39164 216.141C3.71164 219.231 3.09164 222.341 2.54164 225.411L2.44164 225.961H2.99164C5.65164 225.961 8.31164 225.791 10.9116 225.491C14.7816 225.051 16.9116 224.801 18.9616 223.581C21.6416 221.991 22.9616 219.691 23.7516 218.321C23.8616 218.121 24.0316 217.841 24.2216 217.431C25.2516 215.291 25.2616 213.801 25.6616 209.301C25.7816 207.981 25.8816 206.571 26.1216 204.671C26.1716 204.271 26.5816 201.071 26.5816 199.581C26.5816 199.411 26.5816 198.951 26.5816 198.191C26.5816 197.491 26.5916 197.411 26.5816 197.261C26.5016 196.361 25.9116 195.691 25.6516 195.411C24.9616 194.641 23.9416 194.281 21.9516 193.561C21.5116 193.401 21.0316 193.231 20.5616 193.101C19.5516 192.821 17.5316 192.441 14.5516 193.101V193.111Z" fill="white"/>
<path d="M39.5916 149.711C39.5416 150.051 39.5016 150.391 39.4516 150.711C39.3416 151.461 39.2416 152.181 39.1416 152.871C39.0816 153.271 39.0216 153.671 38.9716 154.051C38.8516 154.841 38.7416 155.581 38.6416 156.291C38.6416 156.301 38.6416 156.321 38.6416 156.341C38.5716 156.791 38.5016 157.241 38.4316 157.661C38.3716 158.041 38.3116 158.411 38.2516 158.771C38.2016 159.041 38.1616 159.311 38.1216 159.571C38.0716 159.861 38.0216 160.141 37.9716 160.421C37.9116 160.721 37.8616 161.021 37.8116 161.301C37.6416 162.181 37.4716 163.001 37.2916 163.771C37.2616 163.901 37.2316 164.041 37.1916 164.171C36.9116 165.321 36.6216 166.361 36.2816 167.341C35.1616 170.641 34.2216 172.411 33.3116 174.131C32.2716 176.101 31.1916 178.141 29.8116 182.601C28.4816 186.911 27.7616 190.561 27.3816 193.001C27.2116 194.071 27.1116 194.911 27.0516 195.461C26.9716 196.221 26.9216 196.811 26.8916 197.321C26.6116 197.011 26.2416 196.541 25.5616 195.941C25.2216 195.641 24.8116 195.311 24.2816 194.951C24.0716 194.811 23.8716 194.671 23.6716 194.531C23.0116 194.081 22.3716 193.691 21.6416 193.421C21.3116 193.291 20.9616 193.181 20.5816 193.101C20.1216 193.001 19.7416 192.971 19.3816 192.971C18.6716 192.971 18.0516 193.111 17.0916 193.141C16.6416 193.161 16.1216 193.141 15.4816 193.101C15.4016 193.101 15.3116 193.091 15.2316 193.081C14.9416 193.051 14.6216 193.021 14.3116 192.971C14.3316 192.841 14.3616 192.711 14.3716 192.571C14.3916 192.441 14.4116 192.311 14.4216 192.181C14.4216 192.101 14.4416 192.011 14.4516 191.931C14.4516 191.861 14.4516 191.791 14.4716 191.721C14.5016 191.351 14.5216 190.981 14.5316 190.611C14.5316 190.361 14.5416 190.101 14.5516 189.841C14.7616 182.671 14.5516 176.521 14.5516 176.451C14.3116 169.601 14.3016 168.791 14.5516 167.111C14.8016 165.441 15.3416 161.971 17.3816 158.171C18.1916 156.651 18.8816 155.801 19.5416 154.971C20.2716 154.061 21.0216 153.121 22.0016 151.241C22.0416 151.171 22.0716 151.101 22.1116 151.021C22.1516 150.951 22.1916 150.861 22.2316 150.781C22.2816 150.691 22.3216 150.601 22.3616 150.511C22.5416 150.141 22.7416 149.701 22.9416 149.221C23.1216 148.791 23.3116 148.301 23.5016 147.791C23.8616 147.661 24.2316 147.541 24.6116 147.431C29.2016 146.071 34.7316 146.051 38.7516 149.001C39.0416 149.201 39.3216 149.431 39.5916 149.671V149.711Z" fill="white"/>
<path d="M46.9316 109.381C46.9316 108.801 46.8916 108.501 46.8216 108.001C46.7616 107.541 46.6616 106.901 46.5216 105.691C46.5016 105.541 46.4816 105.381 46.4616 105.211C46.3716 104.441 46.3216 103.851 46.2716 103.391C46.1516 102.081 46.1816 101.771 46.0816 101.071C46.0616 100.931 46.0316 100.771 46.0016 100.581C45.8616 99.8007 45.7416 99.3807 45.5716 98.8007C45.4116 98.3007 45.2116 97.6707 44.9116 96.5707C44.8216 96.2507 44.7216 95.8907 44.6116 95.4807C44.4916 95.0207 44.3916 94.6407 44.3116 94.3307C43.9516 92.8907 43.9916 92.7607 43.7716 92.0707C43.7416 91.9807 43.7116 91.8907 43.6816 91.7807C43.5416 91.3507 43.3216 90.6907 42.9716 89.8807C42.7016 89.2607 42.3616 88.5507 41.9216 87.8007C41.5316 87.1407 41.2116 86.6607 40.9116 86.2307C40.3316 85.4007 39.9316 84.9007 39.5216 84.3807C37.8616 82.2407 38.1816 82.2307 37.2116 81.1407C36.0816 79.8907 34.9816 79.1607 34.4316 78.8307C33.7916 78.4407 33.2116 78.1707 32.7816 77.9907C31.1116 79.9707 29.3816 82.4507 27.9916 85.5807C25.6916 90.7207 25.3316 95.1107 25.1716 99.1707C24.9916 103.611 24.8716 107.401 24.8016 111.091C24.4616 127.051 24.6816 134.431 24.7116 134.851L24.7516 135.271C25.0016 137.751 25.3316 141.151 24.2616 145.331C24.0416 146.211 23.7716 147.041 23.4916 147.801C28.6016 145.991 35.2016 145.791 39.5816 149.691C39.7016 148.801 39.8316 147.871 39.9716 146.901C40.2916 144.621 40.5216 142.821 40.7216 141.241C41.1616 137.731 41.4616 135.411 42.2816 131.661C42.9716 128.511 43.8116 125.371 44.7916 122.321C44.8916 121.701 44.9916 121.151 45.0916 120.651C45.1916 120.151 45.2816 119.711 45.3716 119.291C45.4216 119.051 45.4716 118.831 45.5316 118.611C45.5616 118.481 45.6816 117.971 45.8516 117.201C45.9816 116.591 46.1416 115.811 46.2916 114.921C46.3416 114.621 46.4016 114.311 46.4516 113.991C46.5316 113.491 46.6016 113.041 46.6516 112.631C46.7916 111.601 46.8616 110.841 46.8916 110.321C46.9216 109.831 46.9116 109.531 46.9116 109.371L46.9316 109.381Z" fill="white"/>
<path d="M146.772 195.081C146.732 194.921 146.682 194.761 146.652 194.601C146.652 194.591 146.652 194.571 146.642 194.561C145.212 189.241 144.042 183.751 143.152 178.231C142.402 173.551 142.162 170.751 141.952 168.281C141.732 165.681 141.542 163.431 140.832 159.711C139.642 153.441 138.342 150.191 137.192 147.331C136.812 146.381 136.432 145.441 136.082 144.431C136.022 144.251 135.962 144.061 135.892 143.881C129.582 142.401 122.642 143.231 117.762 147.721C117.732 149.401 117.802 151.311 118.172 153.861C118.442 155.731 118.642 156.261 119.222 157.841C119.832 159.481 120.832 162.211 122.812 168.721C123.442 170.811 124.002 172.701 124.512 174.461C126.692 181.911 128.132 186.831 131.632 193.321C131.752 193.561 131.932 193.811 132.122 194.101C132.532 194.711 133.042 195.461 133.462 196.511L133.532 196.691C133.722 196.531 133.962 196.351 134.302 196.111C134.562 195.921 134.882 195.701 135.282 195.411C135.482 195.261 135.672 195.131 135.852 195.001C136.832 194.281 137.372 193.871 137.702 193.611C138.152 193.261 138.232 193.211 138.522 193.091C138.982 192.911 139.442 192.801 139.882 192.741C140.812 192.621 141.652 192.721 142.242 192.841C142.752 192.941 143.082 193.071 143.142 193.091C143.432 193.201 143.702 193.331 143.952 193.471C144.182 193.601 144.352 193.721 144.392 193.751C144.692 193.951 145.312 194.321 146.762 195.061L146.772 195.081Z" fill="white"/>
<path d="M135.882 143.881C135.882 143.881 135.862 143.831 135.852 143.801C135.292 142.111 134.772 140.151 134.352 137.521C133.482 132.151 133.802 129.041 134.212 125.111C134.392 123.361 134.592 121.461 134.712 119.131C134.712 119.131 134.802 117.351 134.822 115.391C134.912 105.891 132.552 92.0506 130.662 86.7006C130.452 86.1006 130.062 85.2206 129.272 83.4606C127.982 80.5506 127.472 79.7206 126.962 79.7606C126.762 79.7706 126.472 79.9306 126.162 80.6306C125.842 80.8106 125.472 80.9706 125.112 81.1506C124.802 81.3106 124.512 81.4806 124.242 81.6906C123.732 82.0606 123.252 82.5206 122.632 83.1506C122.402 83.3906 122.152 83.6406 121.872 83.9306C121.612 84.2006 121.372 84.4706 121.152 84.7306C120.662 85.3006 120.252 85.8706 119.852 86.4706C119.602 86.8406 119.362 87.2106 119.102 87.6206C118.962 87.8306 118.822 88.0606 118.672 88.3006C118.322 88.8506 117.952 89.4806 117.582 90.2006C117.472 90.4106 117.362 90.6306 117.252 90.8706C117.032 91.3306 116.852 91.7706 116.692 92.2106C116.442 92.8806 116.252 93.5506 116.072 94.3106C115.912 94.9406 115.762 95.6406 115.592 96.4506L115.152 98.5906C115.012 99.3206 114.882 100.011 114.782 100.741C114.672 101.431 114.592 102.141 114.542 102.911C114.522 103.211 114.502 103.521 114.482 103.841C114.482 103.901 114.482 103.891 114.482 105.091V112.631C114.482 112.941 114.482 113.201 114.482 113.451L114.402 113.841L114.352 114.081L114.012 115.781L114.342 119.001C114.512 120.451 114.712 121.901 114.932 123.341C115.492 127.061 116.012 129.411 116.462 131.491C116.742 132.791 117.012 134.011 117.242 135.381C118.062 140.211 117.942 142.901 117.832 145.511C117.802 146.231 117.772 146.961 117.752 147.741C122.632 143.251 129.572 142.421 135.882 143.901V143.881Z" fill="white"/>
<path d="M61.8016 25.6507C61.0616 22.9507 60.5116 19.2107 61.3016 15.0107C61.5516 13.6807 61.9416 11.7207 63.1916 9.46066C64.8216 6.52066 67.0016 4.77066 68.2416 3.91066C70.7816 2.15066 73.1016 1.62067 75.1816 1.13067C79.5016 0.110665 83.0316 0.470665 84.4316 0.670665C86.9516 1.02067 90.3116 1.48066 93.6816 3.91066C98.0016 7.03066 99.5516 11.3707 100.162 13.1607C101.622 17.4707 101.262 21.2807 101.092 22.8707C100.972 24.0207 100.782 24.9807 100.632 25.6507C100.852 25.5707 101.452 25.3707 102.022 25.6507C102.252 25.7607 102.672 26.0507 102.952 27.0407C103.632 29.4407 102.492 31.6707 102.492 31.6707C101.562 33.4607 100.682 33.1807 99.7116 34.9107C99.6916 34.9507 99.5416 35.2207 99.4116 35.5407C98.6016 37.6507 98.3216 39.5307 98.3216 39.5307C98.0816 41.1807 97.6916 42.4807 96.9316 45.0807C96.3516 47.0607 95.9416 48.4507 95.0816 50.1707C94.1016 52.1207 93.4016 53.5307 91.8416 54.8007C89.5916 56.6307 86.9716 57.0307 86.2916 57.1107C85.2416 57.2407 84.7916 57.2007 83.0516 57.3607C81.0616 57.5407 80.6716 57.6507 79.3516 57.5807C76.0016 57.4007 74.3316 57.3107 72.8716 56.6507C69.7616 55.2607 68.0116 52.3507 66.3916 49.2507C65.6916 47.9007 64.5816 45.7607 64.0816 42.7707C63.8816 41.5407 63.3216 37.4807 62.6916 34.4407C62.6216 34.1007 62.5216 33.6207 62.2316 33.0507C61.4416 31.4907 60.3716 31.4107 59.4516 30.2707C58.1716 28.6707 57.9416 25.9207 58.9916 25.1807C59.8416 24.5807 61.3916 25.4207 61.8116 25.6407L61.8016 25.6507Z" fill="white"/>
<path d="M91.8016 64.0507C90.4716 65.4907 89.2516 66.8007 87.1716 67.7507C84.8417 68.8207 82.8616 68.7707 79.3116 68.6807C76.7816 68.6107 75.0316 68.5507 72.8316 67.7207C71.7916 67.3307 69.9316 66.6107 68.2016 64.8507C67.3016 63.9407 66.8317 63.1307 65.8917 61.5107C64.9817 59.9407 64.9017 59.4207 64.9617 58.9607C65.0917 58.1007 65.6317 58.0807 66.3517 56.7307C66.7817 55.9207 67.0917 55.2607 67.2817 53.8607C67.3917 53.0307 67.5417 52.2507 67.7117 51.5507C69.0117 53.7607 70.5617 55.6607 72.8517 56.7207C74.3117 57.4007 75.9816 57.4907 79.3316 57.6807C80.6516 57.7507 81.0417 57.6507 83.0317 57.4607C84.7617 57.3007 85.2216 57.3407 86.2716 57.2107C86.9516 57.1207 89.5717 56.7107 91.8217 54.8207C92.0717 54.6107 92.3116 54.3907 92.5116 54.1707C92.6216 54.8007 92.8217 55.4907 93.1817 56.2607C94.1217 58.2507 94.4317 58.6007 94.5717 59.1307C94.9617 60.6507 93.4717 62.2507 91.7917 64.0607L91.8016 64.0507Z" fill="white"/>
<path d="M126.962 79.7707C126.902 80.4107 125.942 80.7307 125.112 81.1607C123.992 81.7307 123.282 82.4707 121.872 83.9407C120.682 85.1807 119.982 86.2607 119.092 87.6407C118.542 88.4907 117.872 89.5407 117.242 90.8807C116.312 92.8607 116.002 94.3707 115.392 97.3607C114.932 99.5907 114.572 101.381 114.462 103.841C114.462 103.931 114.462 103.861 114.462 108.471C114.462 112.651 114.462 112.371 114.462 112.631C114.482 115.401 114.532 115.541 114.462 116.331C114.312 118.071 113.942 118.921 113.532 120.491C113.282 121.461 113.262 121.741 112.602 126.971C111.772 133.571 111.792 133.211 111.672 134.371C111.582 135.311 111.342 137.921 111.212 141.311C111.152 142.761 111.082 145.311 111.212 151.021C111.362 157.481 111.372 160.711 111.672 163.051C112.232 167.451 112.522 169.651 112.602 169.991C112.882 171.201 112.672 172.511 113.062 173.691C113.082 173.761 113.182 174.031 113.062 174.151C112.942 174.271 112.652 174.171 112.602 174.151C111.622 173.841 108.142 176.341 107.972 176.461C106.792 177.311 105.502 178.001 104.272 178.771C101.372 180.591 101.322 180.571 100.572 181.081C98.9816 182.151 95.9416 184.781 95.9416 184.781C95.0416 185.561 92.4216 187.841 91.3116 188.941C90.7516 189.501 90.7616 189.581 90.3816 189.871C89.9216 190.221 89.5016 190.411 89.4516 190.801C89.4216 191.021 89.5316 191.141 89.4516 191.261C89.3216 191.451 88.8816 191.361 88.5216 191.261H77.4216C76.4916 191.261 75.5716 191.221 74.6416 191.261C72.4716 191.361 72.1116 191.611 71.4016 191.261C70.7416 190.931 70.4616 190.461 70.0116 189.871C68.7516 188.221 68.3216 188.451 65.3816 185.711C63.4616 183.921 63.9216 184.081 62.6016 182.931C60.9216 181.471 59.4216 180.561 57.9716 179.691C55.8616 178.421 55.8816 178.661 53.8116 177.381C51.1816 175.761 51.3516 175.491 50.1116 175.071C48.6016 174.561 47.1516 174.551 46.8716 173.681C46.8316 173.561 46.8516 173.531 46.8716 172.751C46.8916 171.751 46.8716 171.321 46.8716 170.901C46.8816 169.691 47.1816 168.741 47.3316 168.121C47.6316 166.941 47.6816 165.481 47.7916 162.571C47.9116 159.281 47.7216 159.121 47.7916 156.091C47.8716 152.841 48.1016 152.841 48.2516 149.151C48.3216 147.561 48.4316 144.931 48.2516 141.751C48.1916 140.681 48.1516 140.481 47.3216 133.891C46.2116 125.081 46.2216 124.931 45.9316 124.181C45.6216 123.371 45.0116 121.971 45.0016 120.021C45.0016 119.381 45.0616 118.981 45.4616 116.781C46.2816 112.331 46.3116 112.441 46.3916 111.691C46.5816 109.961 46.5116 108.681 46.3916 106.601C46.3416 105.641 46.2516 104.041 45.9316 101.971C45.5516 99.4907 45.0416 97.7007 44.5416 95.9607C44.1816 94.7007 43.5916 92.7407 42.6916 90.4107C41.9316 88.4307 41.5416 87.4307 40.8416 86.2507C40.2816 85.3007 40.0816 85.1607 39.4816 84.4307C38.8016 83.6007 38.6216 83.2407 38.0716 82.5507C37.6516 82.0207 36.7016 81.2707 34.8316 79.7707C33.7116 78.8707 33.5016 78.7307 33.4416 78.3807C33.3416 77.7707 33.7516 77.1107 35.7516 75.6007C42.8616 70.2807 40.7116 70.9707 44.5416 68.6607C46.8116 67.2907 47.5416 67.1007 49.5716 66.1507C50.1616 65.8807 50.5516 65.6907 52.8716 64.4907C55.9716 62.8907 59.1016 61.2507 61.2016 60.3307C62.2216 59.8807 63.0616 59.5707 63.5116 59.4007C64.0816 59.2007 64.5616 59.0407 64.9016 58.9407C64.8316 59.4007 64.9016 59.9207 65.8316 61.4907C66.7716 63.1107 67.2516 63.9207 68.1416 64.8307C69.8716 66.5807 71.7216 67.3007 72.7716 67.6907C74.9716 68.5207 76.7216 68.5807 79.2516 68.6507C82.8116 68.7407 84.7816 68.7907 87.1116 67.7207C89.1816 66.7707 90.4016 65.4607 91.7416 64.0207C93.4216 62.2107 94.9116 60.6107 94.5216 59.0907C94.5216 59.0907 94.5216 59.0807 94.5216 59.0707C95.1716 59.4307 95.5616 60.3307 96.3816 61.2407C96.8916 61.8107 97.5216 62.3307 100.082 63.5507C102.862 64.8807 105.182 65.7507 107.942 66.7907C118.092 70.6207 114.932 69.5707 116.272 70.0307C117.032 70.2907 118.142 70.6507 119.512 71.4207C121.552 72.5607 122.852 73.8307 123.212 74.2007C124.922 75.9307 125.842 77.6707 126.452 78.8307C126.562 79.0307 126.952 79.3407 126.912 79.7607L126.962 79.7707Z" fill="white"/>
<path d="M35.2416 146.911C35.9916 147.141 36.7416 147.421 37.4616 147.751L37.0716 148.591C36.3916 148.281 35.6816 148.011 34.9716 147.791L35.2416 146.901V146.911ZM27.0116 146.361C27.3216 146.331 27.7316 146.291 28.2016 146.251L28.2716 147.171C27.8016 147.211 27.4016 147.251 27.0916 147.281C26.7216 147.321 26.3516 147.371 26.0016 147.421L25.8716 146.501C26.2416 146.451 26.6116 146.401 27.0116 146.361ZM30.5616 146.191C31.3116 146.211 32.0416 146.271 32.7216 146.371L32.9116 146.401L32.7716 147.321L32.5816 147.291C31.9316 147.201 31.2316 147.141 30.5216 147.121L30.5416 146.191H30.5616Z" fill="#4CA35E"/>
<path d="M161.502 205.251C159.612 203.591 158.152 202.301 157.012 201.291C153.262 197.971 152.782 197.551 151.202 196.841C151.202 196.841 151.172 196.831 147.862 195.511C147.532 195.381 147.172 195.231 146.772 195.081C146.732 194.921 146.682 194.761 146.652 194.601C146.652 194.591 146.652 194.571 146.642 194.561C145.212 189.241 144.042 183.751 143.152 178.231C142.402 173.551 142.162 170.751 141.952 168.281C141.732 165.681 141.542 163.431 140.832 159.711C139.642 153.441 138.342 150.191 137.192 147.331C136.812 146.381 136.432 145.441 136.082 144.431C136.012 144.231 135.942 144.011 135.872 143.801C135.312 142.111 134.792 140.151 134.372 137.521C133.502 132.151 133.822 129.041 134.232 125.111C134.502 122.511 134.802 119.571 134.842 115.401C134.952 104.121 134.712 95.4106 130.642 86.0706L130.212 85.0807C127.952 79.8607 125.822 74.9306 120.762 71.5306C118.962 70.3206 117.842 69.9807 115.812 69.3707C113.872 68.7807 111.212 67.9807 106.342 65.9407C97.4416 62.2107 95.1716 60.0606 94.1016 57.4106C93.6516 56.2906 93.4316 55.0907 93.3216 54.0107C94.2016 52.9807 94.7816 51.8306 95.5016 50.3906C96.3816 48.6306 96.8016 47.2006 97.3816 45.2206C98.1516 42.6006 98.5316 41.2906 98.7816 39.6106C98.7816 39.5906 99.0616 37.7507 99.8416 35.7107C99.9616 35.4007 100.112 35.1406 100.112 35.1406C100.542 34.3706 100.942 34.0406 101.372 33.7006C101.862 33.3006 102.372 32.8906 102.902 31.8906C102.952 31.7906 104.122 29.4806 103.392 26.9306C103.142 26.0606 102.772 25.5107 102.222 25.2507C101.882 25.0807 101.542 25.0406 101.232 25.0606C101.372 24.3606 101.482 23.6406 101.552 22.9406C101.712 21.4606 102.132 17.5106 100.602 13.0306C100.022 11.3306 98.4916 6.82065 93.9616 3.55065C90.5016 1.05065 87.0316 0.58065 84.5016 0.23065C82.3616 -0.0693503 79.0016 -0.21935 75.0816 0.70065L74.9916 0.72065C72.9216 1.21065 70.5616 1.77065 67.9916 3.55065C66.5016 4.58065 64.3916 6.41065 62.8016 9.25065C61.4816 11.6206 61.0916 13.7006 60.8616 14.9406C60.2616 18.1606 60.3516 21.4807 61.1316 24.8307C60.1216 24.4407 59.3016 24.4307 58.7416 24.8307C58.3116 25.1407 58.0216 25.6806 57.9216 26.3906C57.7316 27.7506 58.2216 29.4806 59.1116 30.5906C59.5216 31.1006 59.9516 31.4107 60.3716 31.7107C60.9316 32.1107 61.4216 32.4607 61.8316 33.2807C62.1016 33.8107 62.1916 34.2607 62.2616 34.5507C62.7316 36.8007 63.1516 39.5906 63.4216 41.4306C63.5216 42.0506 63.5916 42.5407 63.6416 42.8507C64.1516 45.9207 65.3116 48.1406 66.0016 49.4706C66.4016 50.2306 66.8116 51.0007 67.2516 51.7407C67.0116 54.3007 66.8216 55.5807 65.9916 56.8707C64.8116 58.7207 63.0116 59.4406 60.9316 60.2806L60.6516 60.3906C60.6516 60.3906 56.5216 62.0706 48.5916 65.9606C42.8316 68.7806 38.8316 72.1307 37.3816 73.4407C34.9316 75.6507 30.8216 79.3407 28.0216 85.6207C25.7216 90.7607 25.3616 95.1506 25.2016 99.2106C25.0216 103.651 24.9016 107.441 24.8316 111.131C24.4916 127.091 24.7116 134.471 24.7416 134.891L24.7816 135.311C25.0316 137.791 25.3616 141.191 24.2916 145.371C24.0616 146.241 23.8016 147.081 23.5216 147.841C23.3316 148.351 23.1516 148.831 22.9616 149.271C22.7616 149.751 22.5616 150.191 22.3816 150.561C22.3416 150.651 22.2916 150.741 22.2516 150.821C22.2116 150.911 22.1716 150.991 22.1316 151.071C22.0916 151.151 22.0616 151.221 22.0216 151.291C21.0516 153.181 20.2916 154.121 19.5616 155.021C18.9016 155.851 18.2116 156.701 17.4016 158.221C15.3616 162.011 14.8316 165.491 14.5716 167.161C14.3216 168.841 14.3316 169.651 14.5716 176.501C14.5716 176.561 14.7816 182.721 14.5716 189.891C14.5716 190.141 14.5616 190.401 14.5516 190.661C14.5416 191.031 14.5216 191.401 14.4916 191.771C14.4916 191.841 14.4916 191.911 14.4816 191.981C14.4816 192.061 14.4616 192.141 14.4516 192.231C14.4416 192.361 14.4216 192.491 14.4016 192.621C14.3916 192.751 14.3616 192.881 14.3416 193.021C14.3316 193.121 14.3116 193.221 14.2916 193.321C14.2216 193.691 14.1216 194.061 14.0016 194.431C13.8216 195.001 13.5816 195.581 13.2616 196.161C12.7116 197.171 11.8416 198.031 10.1116 199.751C6.07162 203.761 3.69162 205.711 3.67162 205.741L3.61162 205.781C2.87162 206.391 1.63162 207.401 0.771625 209.121C0.471625 209.731 -0.448375 211.571 0.401625 212.431C0.851625 212.891 1.63162 212.921 2.73162 212.541C4.20162 212.031 5.03162 210.931 5.53162 210.241C5.45162 211.631 4.76163 214.731 4.50163 215.881L4.44162 216.171C3.76162 219.261 3.14162 222.371 2.59162 225.441L2.49162 225.991H3.04162C5.70162 225.991 8.36163 225.821 10.9616 225.521C14.8316 225.081 16.9616 224.831 19.0116 223.611C21.6916 222.021 23.0116 219.721 23.8016 218.351C24.8016 216.621 25.9316 213.991 26.6416 204.741C26.8616 201.801 26.8816 200.391 26.8916 199.261C26.8916 198.691 26.8916 198.181 26.9316 197.561C26.9316 197.501 26.9316 197.441 26.9316 197.381V197.351C26.9616 196.841 27.0116 196.251 27.0916 195.491C27.1516 194.941 27.2516 194.101 27.4216 193.031C27.8016 190.591 28.5216 186.941 29.8516 182.631C31.2216 178.181 32.3116 176.141 33.3516 174.161C34.2616 172.441 35.2016 170.671 36.3216 167.371C36.6516 166.391 36.9516 165.351 37.2316 164.201C37.2616 164.071 37.2916 163.931 37.3316 163.801C37.5116 163.031 37.6816 162.211 37.8516 161.331C37.9116 161.041 37.9616 160.751 38.0116 160.451C38.0616 160.171 38.1116 159.891 38.1616 159.601C38.2116 159.341 38.2516 159.081 38.2916 158.801C38.3516 158.441 38.4116 158.071 38.4716 157.691C38.5416 157.261 38.6116 156.821 38.6816 156.371C38.6816 156.351 38.6816 156.331 38.6816 156.321C38.7916 155.611 38.9016 154.861 39.0116 154.081C39.0716 153.701 39.1316 153.301 39.1816 152.901C39.2816 152.211 39.3816 151.491 39.4916 150.741C39.5416 150.411 39.5816 150.081 39.6316 149.741C39.7516 148.851 39.8916 147.921 40.0216 146.951C40.3416 144.671 40.5716 142.871 40.7716 141.291C41.2116 137.781 41.5116 135.461 42.3316 131.711C43.0716 128.351 43.9816 125.001 45.0416 121.751C45.8416 125.321 46.5016 128.971 46.9716 132.601C48.4216 143.671 47.9416 152.181 47.4316 161.191C47.2016 165.211 46.9416 168.121 46.6716 170.571C46.4516 172.521 46.2116 174.191 45.9716 175.901C45.5516 178.911 45.1116 182.021 44.6616 187.081C43.2516 202.771 43.4816 215.591 43.7316 221.841C44.2816 235.071 45.9916 248.461 48.8216 261.661C48.8216 271.311 48.8416 279.911 48.8416 287.461C48.8416 288.291 48.8416 289.111 48.8416 289.921V290.091C48.8416 290.251 48.8416 290.421 48.8416 290.581C48.8516 310.861 48.8416 322.861 48.8216 326.371V326.421C48.8216 326.581 48.8216 326.901 48.8216 327.301C48.8816 333.801 50.1516 338.761 50.6316 340.631L50.6816 340.831C51.9916 345.941 52.6816 350.901 53.1616 354.941C53.2716 355.811 53.3616 356.641 53.4516 357.421C53.5116 357.941 53.5716 358.441 53.6216 358.931C54.6016 367.621 54.9816 372.231 53.0216 377.081C52.6516 377.991 52.2716 378.761 51.9016 379.511C51.1816 380.961 50.4316 382.471 49.7616 385.011L49.7316 385.141C48.9516 388.111 48.0616 391.471 48.8316 395.391C50.1616 402.201 55.5716 406.281 57.8216 407.721C61.8516 410.291 65.9616 410.941 68.7016 411.031H69.0116L69.1416 410.761C70.0416 408.781 70.6816 406.721 71.0316 404.631C71.6716 400.751 71.1516 397.831 70.5516 394.451C70.2416 392.681 69.8716 390.681 69.6516 388.321C69.4216 386.041 69.5116 383.091 69.6516 377.741C69.8316 371.151 70.1616 364.961 70.5216 359.821C70.6316 358.211 70.7416 356.711 70.8516 355.321C71.1016 351.971 71.3416 349.331 71.5116 347.701C72.5016 337.371 73.2416 332.631 73.7316 329.501C74.2216 326.301 74.4316 324.981 74.2916 321.271C74.0616 315.291 73.3016 312.011 72.6216 309.111C71.8616 305.851 71.2016 303.041 71.5116 297.251C71.6016 295.521 71.7516 294.111 71.9316 292.871C72.1416 291.451 72.4016 290.221 72.6816 288.941C72.7216 288.781 72.7516 288.631 72.7916 288.471C73.4616 285.461 74.2116 282.051 74.7516 275.061C74.9416 272.511 75.0216 270.671 75.0916 268.901C75.1816 266.531 75.2816 264.071 75.6816 259.801C76.1116 255.091 76.4616 253.031 76.7616 251.211C77.0416 249.531 77.2916 248.081 77.5316 244.991C77.9216 239.921 77.7816 236.631 77.6616 233.731C77.5016 230.001 77.3716 226.771 78.4416 220.991C78.7416 219.391 79.1016 217.801 79.5216 216.231C79.6216 215.871 79.7216 215.511 79.8216 215.161C81.1516 219.961 82.2016 224.701 82.9616 229.371C83.9816 235.651 84.4916 241.801 84.4616 247.741C84.4516 250.891 84.4716 253.841 84.5416 256.581C84.6916 262.761 85.0416 267.841 85.5916 271.661C85.8016 273.181 86.0516 274.501 86.3316 275.611C86.4316 276.021 86.5516 276.471 86.6716 276.941C87.0016 278.211 87.3816 279.691 87.7616 281.421C87.8216 281.671 87.8716 281.911 87.9216 282.171C87.9516 282.291 87.9816 282.421 88.0016 282.561C88.0816 282.951 88.1616 283.361 88.2416 283.781C88.2716 283.921 88.3016 284.061 88.3216 284.201C88.4816 285.051 88.6316 285.941 88.7616 286.891C88.7916 287.091 88.8216 287.301 88.8516 287.501C88.9116 287.911 88.9716 288.341 89.0216 288.771C89.0516 288.991 89.0816 289.201 89.1016 289.431C89.1316 289.671 89.1516 289.901 89.1716 290.131C89.1816 290.231 89.1916 290.331 89.2116 290.441C89.2216 290.581 89.2416 290.731 89.2516 290.871C89.9416 297.681 89.6616 301.651 89.5616 302.761C89.2516 305.991 88.7616 307.501 88.1916 309.251C87.7516 310.611 87.2516 312.161 86.7916 314.751C86.2616 317.721 86.1416 319.631 87.2516 337.091C87.5616 342.021 87.7616 345.181 88.0716 349.561C88.1016 350.011 88.1416 350.471 88.1716 350.951C88.3116 352.951 88.4516 354.691 88.5616 356.221C88.5716 356.431 88.5916 356.641 88.6116 356.841C88.6116 356.911 88.6216 356.991 88.6316 357.061C88.6416 357.271 88.6616 357.481 88.6816 357.681C88.6816 357.801 88.7016 357.931 88.7116 358.051C88.8216 359.321 88.9016 360.421 88.9816 361.391C89.3516 366.061 89.5116 367.991 89.5716 371.761C89.6616 377.431 89.7316 381.171 89.1116 386.491C88.8816 388.461 88.6416 389.951 88.4316 391.251C88.1216 393.121 87.8616 394.741 87.7216 397.151C87.4716 401.511 87.7816 405.911 88.6516 410.221L88.7216 410.601H89.1116C93.8816 410.481 98.3016 409.371 102.272 407.301C104.892 405.941 107.852 404.391 109.412 401.071C110.332 399.131 110.342 397.391 110.382 393.941C110.412 391.051 110.142 388.341 109.452 384.601C108.702 380.551 107.912 377.671 107.382 375.771C107.292 375.431 107.202 375.121 107.132 374.841C105.652 369.301 105.512 364.461 105.632 359.861C105.632 359.531 105.652 359.191 105.662 358.871C105.662 358.611 105.682 358.351 105.692 358.081C105.692 358.041 105.692 357.991 105.692 357.951C105.702 357.461 105.732 356.961 105.752 356.471C105.772 355.921 105.802 355.401 105.832 354.891C106.152 350.071 106.962 347.211 107.952 343.681C108.712 340.981 109.572 337.931 110.362 333.401C111.172 328.761 111.442 325.411 111.752 310.661C111.912 303.101 111.982 297.471 112.012 293.061V292.931C112.032 290.291 112.032 288.081 112.032 286.141V284.081C112.032 279.411 112.032 276.041 112.212 270.901C112.492 263.171 112.952 258.441 113.452 254.631C113.652 253.131 113.852 251.781 114.062 250.441C114.762 245.761 115.492 240.921 115.912 230.651C115.932 230.111 115.952 229.571 115.972 229.041C115.972 228.771 115.992 228.491 116.002 228.211C116.022 227.641 116.042 227.081 116.052 226.511C116.112 224.401 116.152 222.331 116.162 220.331C116.162 220.021 116.162 219.721 116.162 219.411C116.162 218.901 116.162 218.401 116.162 217.891C116.162 205.541 115.452 195.561 114.982 188.951C114.522 182.471 114.042 177.951 113.592 174.231C113.592 174.211 113.592 174.191 113.592 174.171C113.572 173.951 113.542 173.741 113.512 173.521C113.362 172.271 113.202 171.101 113.062 169.971C112.442 165.121 111.942 161.281 111.752 154.751C111.392 142.801 112.282 130.801 114.412 119.031C114.582 120.481 114.782 121.931 115.002 123.371C115.562 127.091 116.082 129.441 116.532 131.521C116.812 132.821 117.082 134.041 117.312 135.411C118.132 140.241 118.012 142.931 117.902 145.541C117.802 147.821 117.692 150.181 118.242 153.901C118.512 155.771 118.712 156.301 119.292 157.881C119.902 159.521 120.902 162.251 122.882 168.761C123.512 170.851 124.072 172.741 124.582 174.501C126.762 181.951 128.202 186.871 131.702 193.361C131.822 193.601 132.002 193.851 132.192 194.141C132.602 194.751 133.112 195.501 133.532 196.551C133.582 196.681 133.632 196.811 133.682 196.941C133.692 196.981 133.712 197.021 133.722 197.061C133.872 197.491 133.982 197.891 134.052 198.281C134.342 199.711 134.222 200.921 134.072 202.351C133.922 203.761 133.762 205.361 133.952 207.521C134.112 209.251 134.522 213.861 137.752 217.941C139.372 219.991 141.102 221.131 142.022 221.741C147.412 225.291 153.452 225.761 157.572 225.521L157.912 225.501L157.992 225.171C158.742 222.221 158.742 219.481 157.992 217.051C157.592 215.761 157.042 214.761 156.512 213.791C155.792 212.461 155.102 211.211 154.772 209.241C154.582 208.121 154.532 206.961 154.642 205.791C156.282 207.641 159.242 210.391 161.832 209.761C162.782 209.531 163.362 209.111 163.552 208.531C163.942 207.341 162.512 206.091 161.572 205.261L161.502 205.251ZM66.7916 49.0307C66.0816 47.6707 65.0116 45.6107 64.5216 42.6907C64.4716 42.3807 64.4016 41.8907 64.3016 41.2807C64.0216 39.4207 63.6016 36.6207 63.1316 34.3507C63.0616 34.0307 62.9416 33.4907 62.6316 32.8507C62.1116 31.8307 61.4916 31.3807 60.8816 30.9407C60.5016 30.6607 60.1416 30.4007 59.8016 29.9907C58.9716 28.9607 58.6716 27.4607 58.8116 26.5107C58.8716 26.0607 59.0316 25.7307 59.2416 25.5807C59.3616 25.4907 59.5316 25.4506 59.7316 25.4506C60.1916 25.4506 60.8316 25.6606 61.5616 26.0706L62.5216 26.6007L62.2316 25.5506C61.2616 22.0206 61.1016 18.5006 61.7416 15.1106C61.9616 13.9306 62.3416 11.9406 63.5816 9.70065C65.0816 7.01065 67.0716 5.28065 68.4816 4.30065C70.9216 2.62065 73.1816 2.08065 75.1716 1.62065L75.2616 1.60065C79.0316 0.71065 82.2816 0.860649 84.3416 1.15065C86.7716 1.48065 90.1116 1.95065 93.3816 4.30065C97.6716 7.39065 99.1416 11.7007 99.6916 13.3307C101.152 17.6307 100.742 21.4206 100.592 22.8506C100.492 23.7606 100.342 24.6807 100.142 25.5707L99.9516 26.4106L100.752 26.1106C100.972 26.0206 101.402 25.9106 101.772 26.0906C102.062 26.2306 102.292 26.6007 102.452 27.1907C103.072 29.3807 102.032 31.4606 102.022 31.4806C101.592 32.3106 101.192 32.6306 100.732 33.0006C100.282 33.3706 99.7616 33.7907 99.2516 34.7107C99.2516 34.7207 99.0716 35.0307 98.9316 35.4007C98.1116 37.5307 97.8216 39.4107 97.8116 39.4907C97.5716 41.1107 97.1916 42.4006 96.4416 44.9806C95.8516 46.9806 95.4616 48.3107 94.6216 49.9907C94.1216 50.9907 93.6916 51.8506 93.1816 52.6106C92.9216 53.0006 92.6416 53.3607 92.3116 53.7107C92.0716 53.9707 91.8016 54.2206 91.5016 54.4706C89.4016 56.1806 86.9016 56.6007 86.1916 56.6907C85.6716 56.7507 85.3016 56.7707 84.8316 56.8007C84.3816 56.8307 83.8216 56.8607 82.9716 56.9407C82.4916 56.9807 82.1116 57.0206 81.7816 57.0606C80.7416 57.1706 80.3016 57.2106 79.3316 57.1606C76.0516 56.9806 74.4016 56.9007 73.0216 56.2807C70.8616 55.3107 69.3716 53.5406 68.1416 51.5606C67.8516 51.1006 67.5816 50.6306 67.3216 50.1406C67.1316 49.7906 66.9416 49.4406 66.7616 49.0906L66.7916 49.0307ZM162.602 208.231C162.552 208.381 162.352 208.651 161.542 208.851C159.502 209.351 156.632 206.871 154.612 204.381L153.962 203.581L153.792 204.601C153.532 206.221 153.532 207.831 153.792 209.381C154.162 211.501 154.912 212.881 155.642 214.211C156.172 215.181 156.672 216.101 157.052 217.301C157.732 219.481 157.752 221.931 157.122 224.581C153.152 224.771 147.512 224.251 142.472 220.941C141.592 220.361 139.942 219.271 138.422 217.341C135.362 213.471 134.962 209.061 134.822 207.411C134.632 205.341 134.792 203.791 134.932 202.421C135.112 200.691 135.262 199.171 134.682 197.191C134.662 197.121 134.632 197.041 134.612 196.971C134.532 196.721 134.432 196.451 134.332 196.181C134.332 196.181 134.332 196.161 134.322 196.151C133.872 195.021 133.312 194.191 132.902 193.591C132.722 193.321 132.562 193.091 132.462 192.901C129.002 186.491 127.572 181.601 125.412 174.211C124.902 172.461 124.352 170.561 123.712 168.471C121.732 161.931 120.712 159.181 120.112 157.531C119.542 155.981 119.362 155.511 119.102 153.731C118.722 151.111 118.662 149.221 118.702 147.491C119.252 147.021 119.852 146.591 120.462 146.191L119.962 145.411C119.542 145.681 119.132 145.971 118.732 146.271C118.732 146.031 118.752 145.781 118.762 145.541C118.882 142.881 119.002 140.141 118.162 135.211C117.922 133.831 117.652 132.591 117.362 131.281C116.912 129.221 116.402 126.881 115.842 123.191C115.472 120.741 115.162 118.251 114.922 115.811L114.832 114.941L114.712 113.791L114.602 112.711L114.382 113.831L114.332 114.071L113.992 115.771C111.442 128.571 110.352 141.681 110.742 154.731C110.942 161.311 111.432 165.171 112.062 170.051C112.202 171.111 112.342 172.211 112.482 173.371C112.482 173.451 112.502 173.541 112.512 173.621C112.362 173.681 112.222 173.751 112.072 173.811C111.782 173.941 111.492 174.081 111.202 174.221L111.262 174.361L111.472 174.801L111.592 175.061C111.932 174.901 112.272 174.741 112.612 174.581C113.052 178.241 113.512 182.681 113.962 188.981C114.582 197.721 115.632 212.351 114.892 230.561C114.472 240.781 113.752 245.591 113.052 250.251C112.332 255.041 111.582 260.001 111.192 270.811C111.002 275.981 111.002 279.351 111.012 284.031V285.651C111.012 287.571 111.012 289.771 110.992 292.411C110.552 292.601 110.072 292.761 109.582 292.901L109.792 293.601L109.812 293.671L109.852 293.791C110.242 293.671 110.622 293.541 110.982 293.411C110.952 297.761 110.882 303.271 110.722 310.601C110.412 325.281 110.142 328.611 109.342 333.201C108.562 337.681 107.702 340.711 106.952 343.391C106.012 346.731 105.182 349.681 104.822 354.361C104.772 355.001 104.732 355.681 104.702 356.401C104.672 357.101 104.642 357.801 104.622 358.511C104.622 358.551 104.622 358.581 104.622 358.631C104.622 358.801 104.622 358.971 104.602 359.151C104.602 359.471 104.582 359.801 104.582 360.131C104.472 364.701 104.642 369.521 106.112 375.051C106.182 375.321 106.272 375.631 106.372 375.981C106.892 377.861 107.672 380.711 108.422 384.721C109.102 388.401 109.362 391.061 109.342 393.891C109.302 397.211 109.292 398.871 108.462 400.631C107.032 403.661 104.212 405.141 101.722 406.431C97.9916 408.381 93.8316 409.451 89.3616 409.601C88.5616 405.491 88.2816 401.301 88.5216 397.151C88.6516 394.791 88.9116 393.191 89.2116 391.341C89.4316 390.021 89.6716 388.531 89.9016 386.541C90.5216 381.161 90.4616 377.181 90.3716 371.671C90.3116 367.891 90.1516 365.951 89.7816 361.261C89.7216 360.471 89.6516 359.591 89.5716 358.601C89.5716 358.561 89.5716 358.521 89.5716 358.481C89.5516 358.271 89.5316 358.051 89.5216 357.821C89.4816 357.371 89.4516 356.901 89.4116 356.411C89.2916 354.801 89.1516 352.961 88.9916 350.841C88.9616 350.401 88.9316 349.971 88.9016 349.561C88.5816 345.131 88.3916 341.961 88.0716 336.971C86.9716 319.641 87.0916 317.761 87.6016 314.871C88.0516 312.341 88.5216 310.891 88.9716 309.491C89.5316 307.771 90.0516 306.141 90.3816 302.811C90.4816 301.741 90.7516 298.011 90.1616 291.681C90.2616 291.761 90.3516 291.831 90.4616 291.901L90.5516 291.781L90.6216 291.681L90.9916 291.151C90.6616 290.911 90.3416 290.651 90.0316 290.381C89.9916 290.031 89.9516 289.671 89.9116 289.301C89.7916 288.281 89.6616 287.311 89.5316 286.391C88.9016 282.221 88.0916 279.091 87.4716 276.681C87.3516 276.211 87.2316 275.761 87.1316 275.361C86.2516 271.831 85.2216 264.171 85.2916 247.721C85.3416 236.801 83.6216 225.241 80.1816 213.361L79.7516 211.891L79.7316 211.971L79.6716 212.191L79.3016 213.351C78.5316 215.781 77.9016 218.291 77.4416 220.811C76.3416 226.691 76.4816 229.971 76.6416 233.761C76.7616 236.641 76.8916 239.901 76.5116 244.911C76.2716 247.961 76.0316 249.391 75.7616 251.041C75.4516 252.881 75.1016 254.951 74.6616 259.701C74.2716 264.001 74.1716 266.461 74.0716 268.851C74.0016 270.611 73.9316 272.441 73.7316 274.971C73.2116 281.841 72.4616 285.221 71.8116 288.181C71.8116 288.201 71.8116 288.231 71.8016 288.251C71.4916 289.631 71.2116 290.921 70.9816 292.411C70.4716 292.651 69.9316 292.861 69.3716 293.051L69.5816 293.681L69.6616 293.931C70.0616 293.801 70.4516 293.651 70.8316 293.491C70.6916 294.571 70.5816 295.771 70.5116 297.201C70.2016 303.111 70.8716 305.981 71.6416 309.321C72.3116 312.171 73.0616 315.411 73.2816 321.301C73.4116 324.931 73.2316 326.131 72.7316 329.351C72.2416 332.501 71.5016 337.251 70.5016 347.601C70.3416 349.211 70.1116 351.781 69.8616 355.041C69.7416 356.531 69.6216 358.171 69.5016 359.931C68.9316 360.191 68.3316 360.411 67.7216 360.581L67.8816 361.151L67.9716 361.461C68.4716 361.321 68.9616 361.151 69.4416 360.961C69.1216 365.851 68.8216 371.601 68.6516 377.701C68.5016 383.091 68.4216 386.061 68.6516 388.401C68.8916 390.801 69.2516 392.821 69.5716 394.601C70.1916 398.041 70.6716 400.751 70.0516 404.471C69.7316 406.381 69.1716 408.271 68.3716 410.081C65.7616 409.961 61.9816 409.291 58.2716 406.931C56.1116 405.551 50.9516 401.661 49.6816 395.201C48.9516 391.491 49.7716 388.371 50.5616 385.361L50.6016 385.231C51.2416 382.791 51.9316 381.391 52.6716 379.911C53.0516 379.151 53.4416 378.361 53.8216 377.431C55.7716 372.601 55.5116 368.111 54.6216 360.041C55.1616 360.261 55.7316 360.461 56.3616 360.661L56.5316 360.111L56.6316 359.781C55.8416 359.531 55.1516 359.281 54.5116 359.001V359.021C54.4416 358.461 54.3716 357.891 54.3116 357.301C54.2216 356.521 54.1316 355.681 54.0316 354.801C53.5416 350.741 52.8516 345.751 51.5316 340.591L51.4816 340.391C51.0116 338.551 49.7516 333.671 49.6916 327.281C49.6916 326.881 49.6916 326.571 49.6916 326.411V326.361C49.7216 322.911 49.7316 311.211 49.7116 291.461C49.8716 291.591 50.0316 291.731 50.2016 291.851L50.5616 291.361L50.7516 291.111C50.4916 290.921 50.2316 290.701 50.0016 290.491C49.9016 290.401 49.8016 290.301 49.7116 290.201C49.7116 289.181 49.7116 288.131 49.7116 287.071C49.7116 279.601 49.7116 271.111 49.6916 261.591V261.491C46.8516 248.331 45.1516 234.971 44.6016 221.791C44.3416 215.571 44.1216 202.801 45.5316 187.161C45.9816 182.121 46.4116 179.021 46.8316 176.031C46.9116 175.451 46.9916 174.871 47.0816 174.291C47.6616 174.541 48.2416 174.811 48.8216 175.091L48.9716 174.771L49.2216 174.261C48.5416 173.941 47.8716 173.631 47.2016 173.341C47.6116 170.281 47.9916 166.831 48.3016 161.261C48.8116 152.201 49.2916 143.641 47.8316 132.491C47.2816 128.281 46.5016 124.061 45.5116 119.951L45.4316 119.611V119.581L45.1416 118.411L44.8116 119.371L44.6216 119.911C44.5616 120.091 44.5016 120.281 44.4316 120.461C43.2216 124.061 42.1916 127.781 41.3616 131.531C40.5316 135.311 40.2416 137.651 39.7916 141.181C39.5916 142.761 39.3616 144.551 39.0416 146.841C38.9316 147.611 38.8316 148.351 38.7316 149.071C37.4416 158.301 36.6916 163.201 35.3716 167.091C34.2716 170.311 33.3516 172.061 32.4616 173.741C31.4016 175.751 30.3016 177.831 28.8916 182.361C27.5816 186.591 26.8616 190.201 26.4716 192.671C26.2816 193.871 26.1716 194.801 26.1016 195.401C26.0716 195.721 26.0416 196.021 26.0116 196.281C25.8916 196.141 25.7716 196.001 25.6416 195.861L25.5216 195.971L24.9616 196.481C25.2916 196.841 25.6116 197.241 25.9116 197.651C25.8916 198.221 25.8816 198.701 25.8816 199.241C25.8716 200.351 25.8516 201.751 25.6316 204.651C24.9416 213.711 23.8716 216.221 22.9116 217.871C22.1716 219.161 20.9216 221.331 18.4516 222.791C16.6416 223.871 14.7916 224.121 10.7716 224.581C8.39162 224.851 5.95162 225.011 3.51162 225.031C4.03162 222.151 4.62162 219.231 5.26162 216.351L5.32162 216.061C6.62162 210.191 6.61162 209.121 5.88162 208.871C5.40162 208.711 5.10162 209.131 4.74162 209.611C4.28162 210.251 3.57162 211.211 2.33162 211.651C1.26162 212.021 0.991625 211.791 0.961625 211.761C0.921625 211.721 0.601625 211.321 1.51162 209.521C2.29162 207.971 3.38162 207.071 4.11162 206.481L4.16162 206.431C4.16162 206.431 6.59162 204.431 10.6816 200.381C12.4716 198.601 13.3816 197.701 13.9916 196.581C14.6416 195.371 14.9916 194.211 15.1816 193.101C15.2616 192.611 15.3216 192.121 15.3616 191.651C15.4116 191.041 15.4216 190.461 15.4416 189.901C15.6516 182.701 15.4416 176.521 15.4416 176.461C15.2116 169.691 15.1916 168.891 15.4416 167.291C15.6916 165.671 16.2016 162.301 18.1616 158.651C18.9416 157.211 19.5716 156.421 20.2316 155.601C20.9916 154.661 21.7716 153.681 22.7916 151.711C23.2316 150.851 23.9616 149.341 24.5816 147.481C24.7816 146.881 24.9716 146.251 25.1416 145.601C26.2516 141.271 25.9116 137.771 25.6516 135.221L25.6116 134.801C25.5716 134.451 25.3616 126.931 25.7016 111.151C25.7816 107.461 25.8916 103.681 26.0716 99.2506C26.1916 96.1306 26.3816 91.4207 28.8016 86.0107C30.1016 83.0907 31.7016 80.7506 33.2816 78.8506C33.5316 79.0306 33.8216 79.2306 34.1216 79.4706L34.6816 78.7307C34.4016 78.5107 34.1316 78.3106 33.8816 78.1406C35.3916 76.4206 36.8416 75.1207 37.9416 74.1307C39.3616 72.8507 43.2816 69.5707 48.9416 66.8007C56.8316 62.9307 60.9016 61.2807 60.9416 61.2607L61.2216 61.1406C62.4116 60.6606 63.5616 60.2007 64.5816 59.5207C64.6316 59.7607 64.6916 60.0007 64.7616 60.2307L65.6516 59.9706C65.5516 59.6306 65.4616 59.2707 65.3916 58.9107C65.8816 58.4907 66.3216 57.9906 66.7116 57.3806C67.5216 56.1106 67.8016 54.8107 68.0016 52.9907C69.1916 54.7007 70.6416 56.1907 72.6416 57.0807C74.1816 57.7707 75.8816 57.8607 79.2816 58.0507C79.5816 58.0607 79.8316 58.0706 80.0616 58.0706C80.6416 58.0706 81.1116 58.0206 81.8716 57.9506C82.2016 57.9206 82.5816 57.8807 83.0516 57.8307C83.8916 57.7507 84.4116 57.7206 84.8816 57.7006C85.3716 57.6706 85.7516 57.6507 86.3016 57.5807C87.2916 57.4607 89.8616 56.9807 92.0916 55.1707C92.2116 55.0707 92.3316 54.9707 92.4416 54.8707C92.5716 55.8107 92.8016 56.8007 93.1916 57.7607C93.4216 58.3307 93.6916 58.8707 94.0616 59.4107C93.9516 59.7107 93.8216 60.0206 93.6916 60.3206L94.5316 60.7007C94.5916 60.5607 94.6616 60.4107 94.7216 60.2607C96.3916 62.1707 99.4916 64.1006 105.932 66.8106C110.852 68.8706 113.542 69.6807 115.502 70.2707C117.442 70.8607 118.512 71.1806 120.202 72.3106C123.112 74.2706 124.992 76.7006 126.522 79.5006C126.272 79.6606 125.992 79.8306 125.702 80.0306L126.212 80.8007C126.472 80.6207 126.722 80.4706 126.952 80.3206C127.792 81.9306 128.532 83.6606 129.312 85.4606L129.742 86.4507C133.732 95.6207 133.972 104.241 133.872 115.401C133.832 119.541 133.532 122.451 133.262 125.031C132.852 129.031 132.522 132.191 133.412 137.691C134.172 142.381 135.202 144.961 136.302 147.691C137.432 150.521 138.722 153.731 139.892 159.911C140.582 163.581 140.772 165.811 141.002 168.381C141.212 170.861 141.452 173.681 142.202 178.401C143.042 183.611 144.132 188.791 145.462 193.841C145.162 193.671 144.872 193.521 144.572 193.381V193.401L144.192 194.221C144.742 194.471 145.292 194.781 145.822 195.151C145.852 195.281 145.892 195.421 145.932 195.561L145.992 195.781L146.202 195.871C149.232 197.081 150.762 197.691 150.812 197.711C152.262 198.351 152.732 198.771 156.382 202.001C157.532 203.011 158.982 204.301 160.882 205.961C161.452 206.461 162.792 207.631 162.592 208.241L162.602 208.231Z" fill="#4CA35E"/>
<path d="M67.6416 63.7607C67.2316 63.2407 66.8616 62.6807 66.5416 62.0907L65.7316 62.5207C66.0716 63.1607 66.4716 63.7807 66.9216 64.3407C66.9916 64.4207 67.0616 64.5107 67.1316 64.5907L67.8416 63.9907C67.7816 63.9107 67.7116 63.8307 67.6516 63.7607H67.6416ZM92.5916 62.3407C92.1616 62.9907 91.6716 63.6107 91.1516 64.1707L91.8316 64.8007C92.3916 64.2007 92.9016 63.5507 93.3616 62.8607L92.5916 62.3507V62.3407ZM69.5116 65.5607L68.9516 66.3007C69.6016 66.7907 70.3216 67.2207 71.1016 67.5807L71.4916 66.7407C70.7816 66.4107 70.1116 66.0107 69.5116 65.5607ZM89.4216 65.7207C88.8016 66.1807 88.1416 66.5907 87.4516 66.9407L87.8716 67.7707C88.6116 67.4007 89.3216 66.9607 89.9816 66.4607L89.4216 65.7207ZM73.6716 67.5307L73.4216 68.4207C74.1616 68.6307 74.9516 68.7907 75.8316 68.9207L75.9716 68.0007C75.1316 67.8807 74.3716 67.7207 73.6716 67.5207V67.5307ZM85.3016 67.7907C84.5716 68.0107 83.8116 68.1707 83.0216 68.2807L83.1416 69.2007C83.9716 69.0907 84.7916 68.9107 85.5616 68.6907L85.3016 67.8007V67.7907ZM80.6616 68.4307C79.9216 68.4307 79.1816 68.3907 78.3316 68.3107L78.2416 69.2307C79.1116 69.3207 79.9016 69.3607 80.6916 69.3607L80.6616 68.4307Z" fill="#4CA35E"/>
<path d="M52.5716 292.161L52.4816 292.351L52.1716 293.001C52.8216 293.311 53.5316 293.571 54.2816 293.801L54.4816 293.111L54.5416 292.911C53.8316 292.701 53.1716 292.451 52.5616 292.171L52.5716 292.161ZM56.6216 293.391L56.5616 293.731L56.4616 294.301C57.1316 294.421 57.8516 294.521 58.6616 294.611L58.7016 294.191L58.7516 293.691C57.9616 293.611 57.2716 293.511 56.6216 293.391ZM67.4316 294.121L67.3216 293.571C66.6416 293.701 65.9416 293.801 65.2116 293.871L65.2616 294.361L65.3016 294.791C66.0616 294.731 66.8016 294.621 67.5116 294.481L67.4416 294.121H67.4316ZM60.9216 293.881L60.8816 294.421L60.8516 294.801C61.6416 294.861 62.3616 294.881 63.0716 294.881V293.951C62.3916 293.951 61.6916 293.921 60.9216 293.871V293.881Z" fill="#4CA35E"/>
<path d="M103.292 294.431L103.252 293.871C102.482 293.921 101.782 293.951 101.102 293.951V294.881C101.802 294.881 102.532 294.851 103.322 294.801L103.292 294.431ZM96.8516 293.571L96.7216 294.221V294.271L96.6716 294.481C97.3816 294.621 98.1216 294.731 98.8816 294.791L98.9116 294.461L98.9616 293.871C98.2316 293.811 97.5216 293.701 96.8516 293.571ZM107.652 293.971V293.951L107.542 293.391C106.902 293.511 106.202 293.601 105.412 293.691L105.462 294.171V294.231L105.512 294.611C106.322 294.531 107.042 294.421 107.712 294.301L107.652 293.961V293.971ZM92.8316 292.221L92.5216 292.841L92.4816 292.921L92.4216 293.051C93.0816 293.381 93.7816 293.671 94.5016 293.911L94.5616 293.721V293.681L94.7916 293.031C94.1116 292.801 93.4516 292.541 92.8316 292.231V292.221Z" fill="#4CA35E"/>
<path d="M94.1216 360.031L94.0816 360.281V360.321L93.9616 360.941C94.6416 361.071 95.3516 361.151 96.0716 361.171V360.591L96.0816 360.581V360.251C95.4116 360.231 94.7516 360.161 94.1116 360.031H94.1216ZM100.182 360.361V360.321L100.062 359.781C99.3416 359.951 98.7116 360.071 98.0816 360.151L98.1316 360.601L98.1916 361.061C98.8516 360.981 99.5116 360.861 100.262 360.681L100.192 360.351L100.182 360.361ZM90.4616 358.551L90.2816 358.851L90.2316 358.931L89.9916 359.341C90.6016 359.731 91.2416 360.071 91.9016 360.331L92.1116 359.751L92.1316 359.691L92.2116 359.471C91.6016 359.221 91.0016 358.911 90.4416 358.551H90.4616ZM104.062 358.941L104.032 358.861L103.912 358.571C103.722 358.661 103.512 358.741 103.312 358.821C103.022 358.931 102.732 359.041 102.422 359.131C102.302 359.181 102.162 359.211 102.032 359.251L102.152 359.721L102.172 359.791L102.272 360.151C102.272 360.151 102.362 360.121 102.402 360.111C102.712 360.021 103.002 359.921 103.282 359.811C103.622 359.691 103.952 359.561 104.262 359.421L104.072 358.941H104.062Z" fill="#4CA35E"/>
<path d="M58.8516 360.361L58.7416 360.781L58.6216 361.261C59.4416 361.471 60.1916 361.631 60.9216 361.751L60.9816 361.391L61.0716 360.841C60.3616 360.721 59.6516 360.581 58.8516 360.371V360.361ZM65.6316 361.721L65.5516 360.981C64.8216 361.061 64.0516 361.081 63.3116 361.061L63.2916 361.771V361.991C63.4816 361.991 63.6816 361.991 63.8916 361.991C64.4916 361.991 65.0816 361.961 65.6516 361.891L65.6316 361.721Z" fill="#4CA35E"/>
<path d="M36.5216 80.2307L35.9016 80.9107C36.4616 81.4207 36.9916 81.9607 37.5016 82.5207L38.1816 81.9007C37.6616 81.3307 37.1016 80.7607 36.5216 80.2307ZM39.6816 83.7107L38.9416 84.2707C39.3916 84.8707 39.8316 85.5007 40.2316 86.1407L41.0216 85.6507C40.6116 84.9907 40.1616 84.3407 39.6916 83.7107H39.6816ZM42.1716 87.6907L41.3516 88.1207C41.6916 88.7807 42.0116 89.4707 42.3116 90.1807L43.1616 89.8207C42.8516 89.0907 42.5216 88.3707 42.1716 87.6907ZM44.0016 92.0107L43.1316 92.3207C43.3616 92.9807 43.5816 93.6807 43.8316 94.5007L44.7216 94.2307C44.4716 93.3907 44.2316 92.6807 44.0016 92.0107ZM45.3616 96.4707L44.4716 96.7107C44.6616 97.4507 44.8416 98.2007 45.0016 98.9407L45.9116 98.7507C45.7516 98.0007 45.5716 97.2307 45.3716 96.4707H45.3616ZM46.4616 101.911C46.4216 101.651 46.3816 101.361 46.3316 101.041L45.4116 101.191C45.4616 101.501 45.5116 101.791 45.5416 102.051C45.6116 102.501 45.6816 102.981 45.7516 103.471L46.6716 103.341C46.6016 102.851 46.5316 102.371 46.4616 101.911ZM46.9516 105.651L46.0316 105.741C46.1116 106.541 46.1616 107.291 46.1916 108.021L47.1216 107.981C47.0916 107.231 47.0416 106.461 46.9516 105.641V105.651ZM46.2016 110.311C46.1816 111.071 46.1316 111.841 46.0516 112.591L46.9716 112.681C47.0516 111.911 47.1016 111.131 47.1216 110.341L46.1916 110.311H46.2016ZM45.7316 114.841C45.6716 115.151 45.6116 115.461 45.5416 115.771C45.4416 116.221 45.3416 116.661 45.2316 117.071L46.1316 117.301C46.2416 116.881 46.3516 116.431 46.4516 115.961C46.5216 115.641 46.5816 115.321 46.6416 115.011L45.7316 114.841Z" fill="#4CA35E"/>
<path d="M123.942 81.3207C123.362 81.7907 122.802 82.2807 122.282 82.8007L122.932 83.4607C123.432 82.9707 123.972 82.4907 124.532 82.0407L123.952 81.3207H123.942ZM120.772 84.4307C120.292 84.9907 119.842 85.5907 119.432 86.2007L120.192 86.7207C120.592 86.1407 121.022 85.5607 121.482 85.0207L120.772 84.4307ZM118.272 88.1007C117.922 88.7407 117.602 89.3907 117.292 90.0907L118.142 90.4607C118.442 89.7807 118.752 89.1507 119.082 88.5407L118.272 88.1007ZM116.482 92.1407C116.302 92.6307 116.142 93.1007 115.992 93.5407C115.912 93.7707 115.842 94.0007 115.772 94.2207L116.652 94.5007C116.722 94.2907 116.792 94.0707 116.872 93.8407C117.022 93.4007 117.182 92.9407 117.362 92.4507L116.492 92.1407H116.482ZM115.172 96.3507C115.052 96.8507 114.872 97.6307 114.722 98.5107L115.632 98.6807C115.782 97.8207 115.952 97.0607 116.072 96.5707L115.172 96.3607V96.3507ZM114.392 100.681C114.302 101.381 114.232 102.111 114.172 102.871L115.102 102.941C115.162 102.201 115.232 101.471 115.312 100.791L114.392 100.671V100.681ZM114.042 105.071C114.012 105.791 113.992 106.521 113.982 107.261H114.912C114.912 106.541 114.942 105.811 114.972 105.101L114.042 105.061V105.071ZM114.932 109.831V109.751C114.932 109.691 114.932 109.581 114.922 109.441L113.992 109.461C113.992 109.651 113.992 109.781 114.012 109.871C114.032 110.391 114.072 110.991 114.122 111.661L115.052 111.591C115.002 110.931 114.972 110.351 114.942 109.841L114.932 109.831Z" fill="#4CA35E"/>
<path d="M18.6816 192.451C18.1316 192.451 17.5916 192.491 16.9916 192.581L17.0816 193.151L17.1316 193.491C17.6916 193.411 18.1916 193.371 18.6816 193.371C18.9116 193.381 19.1116 193.371 19.3416 193.391L19.3716 192.981L19.4116 192.471C19.1616 192.451 18.9216 192.441 18.6916 192.441L18.6816 192.451ZM21.7816 193.021L21.6216 193.431L21.4316 193.881C22.0816 194.141 22.7216 194.501 23.3416 194.961L23.6516 194.541L23.8916 194.221C23.2116 193.721 22.5016 193.311 21.7816 193.021Z" fill="#4CA35E"/>
<path d="M137.662 193.551L137.492 193.241C136.822 193.601 136.172 194.101 135.552 194.711L135.722 194.881L136.202 195.371C136.762 194.821 137.352 194.381 137.942 194.061L137.672 193.561L137.662 193.551ZM139.852 192.491L139.872 192.721L139.952 193.411C140.622 193.341 141.312 193.381 142.112 193.541L142.282 192.711V192.641C141.412 192.451 140.612 192.411 139.852 192.501V192.491Z" fill="#4CA35E"/>
<path d="M124.262 143.421C123.512 143.651 122.762 143.931 122.042 144.261L122.432 145.101C123.112 144.791 123.822 144.521 124.532 144.301L124.262 143.411V143.421ZM132.492 142.861C132.182 142.831 131.772 142.791 131.302 142.751L131.232 143.671C131.702 143.711 132.102 143.751 132.412 143.781C132.782 143.821 133.152 143.871 133.502 143.921L133.632 143.001C133.262 142.951 132.892 142.901 132.492 142.861ZM128.942 142.691C128.192 142.711 127.462 142.771 126.782 142.871L126.592 142.901L126.732 143.821L126.922 143.791C127.572 143.701 128.272 143.641 128.982 143.621L128.962 142.691H128.942Z" fill="#4CA35E"/>
<path d="M71.9116 190.801V191.731H74.2216V190.801H71.9116ZM76.5316 190.801V191.731H78.8416V190.801H76.5316ZM81.1616 190.801V191.731H83.4716V190.801H81.1616ZM85.7916 190.801V191.731H88.1016V190.801H85.7916ZM88.7916 192.421V194.731H89.7216V192.421H88.7916ZM71.2116 193.341V195.651H72.1416V193.341H71.2116ZM88.7916 197.041V199.351H89.7216V197.041H88.7916ZM71.2116 197.971V200.281H72.1416V197.971H71.2116ZM88.7916 201.671V203.981H89.7216V201.671H88.7916ZM71.2116 202.601V204.911H72.1416V202.601H71.2116ZM88.7916 206.301V208.611H89.7216V206.301H88.7916ZM71.2116 207.221V209.531H72.1416V207.221H71.2116ZM73.0616 210.001V210.931H75.3716V210.001H73.0616ZM77.6916 210.001V210.931H80.0016V210.001H77.6916ZM82.3216 210.001V210.931H84.6316V210.001H82.3216ZM86.9416 210.001V210.931H89.2516V210.001H86.9416Z" fill="#4CA35E"/>
<path d="M90.8416 189.371L90.5816 189.121C90.0516 189.681 89.5316 190.261 89.0116 190.851L89.3016 191.101L89.7116 191.461C90.2216 190.881 90.7416 190.311 91.2616 189.761L90.8516 189.371H90.8416ZM94.3816 186.381L94.2416 186.231L93.9016 185.861C93.3616 186.351 92.8516 186.841 92.3216 187.361L92.2116 187.471L92.4716 187.741L92.5916 187.861L92.8616 188.131L92.9716 188.021C93.4916 187.511 94.0016 187.031 94.5216 186.541L94.3816 186.381ZM97.6916 183.141L97.4416 182.831C96.8316 183.321 96.2216 183.821 95.6416 184.311L95.9216 184.631L96.0716 184.801L96.2516 185.011C96.8216 184.521 97.4216 184.031 98.0216 183.551L97.7016 183.141H97.6916ZM101.422 180.411L101.172 180.051C100.542 180.491 99.9016 180.951 99.2816 181.411L99.4916 181.701L99.8316 182.161C100.452 181.701 101.072 181.251 101.702 180.821L101.422 180.421V180.411ZM105.472 178.171L105.392 178.041L105.082 177.531C104.422 177.931 103.762 178.341 103.102 178.761L103.412 179.231L103.612 179.541C104.252 179.121 104.912 178.721 105.562 178.321L105.472 178.171ZM109.372 175.681L109.322 175.581L109.152 175.261C108.472 175.621 107.792 175.971 107.102 176.361L107.322 176.761L107.452 177.001L107.552 177.171C108.242 176.791 108.902 176.431 109.582 176.081L109.372 175.681Z" fill="#4CA35E"/>
<path d="M51.3216 175.261L51.1716 175.551L50.9016 176.081C51.5816 176.431 52.2416 176.781 52.9316 177.171L53.0916 176.891L53.3816 176.361C52.6916 175.971 52.0216 175.621 51.3316 175.261H51.3216ZM55.3816 177.531L55.0516 178.081L54.9116 178.321C55.5616 178.711 56.2216 179.121 56.8616 179.541L57.1116 179.161L57.3716 178.761C56.7216 178.341 56.0616 177.931 55.3916 177.531H55.3816ZM59.2916 180.051L59.0916 180.341L58.7616 180.811C59.3816 181.241 60.0116 181.691 60.6316 182.151L61.0216 181.631L61.1816 181.411C60.5616 180.951 59.9216 180.491 59.2916 180.051ZM63.0316 182.831L62.8316 183.081L62.4616 183.551C63.0616 184.031 63.6616 184.521 64.2316 185.011L64.4516 184.751L64.8316 184.311C64.2516 183.821 63.6416 183.321 63.0316 182.831ZM68.1516 187.351C67.6216 186.831 67.1116 186.341 66.5716 185.851L66.1216 186.341L65.9416 186.531C66.4716 187.021 66.9816 187.501 67.4916 188.011L67.6016 188.111L67.8916 187.821L68.2616 187.451L68.1516 187.341V187.351ZM69.8916 189.131L69.6416 189.361L69.2116 189.761C69.7316 190.321 70.2516 190.881 70.7616 191.461L71.1716 191.101L71.4516 190.851C70.9416 190.271 70.4116 189.681 69.8816 189.121L69.8916 189.131Z" fill="#4CA35E"/>
</g>
<defs>
<clipPath id="clip0_23_79">
<rect width="163.617" height="411.031" fill="white"/>
</clipPath>
</defs>
</svg>
