<!-- icon666.com - MILLIONS OF FREE VECTOR ICONS --><svg viewBox="-26 0 511 511.41369" xmlns="http://www.w3.org/2000/svg"><path d="m426.875 479.414062v21.332032h-384v-21.332032c.035156-11.769531 9.5625-21.296874 21.332031-21.332031h341.332031c11.769532.035157 21.300782 9.5625 21.335938 21.332031zm0 0" fill="#fff"></path><path d="m367.566406 392.585938 27.308594 65.496093h-320l4.265625-10.136719zm0 0" fill="#58abfb"></path><path d="m394.875 42.082031c0 11.78125-9.554688 21.332031-21.335938 21.332031s-21.332031-9.550781-21.332031-21.332031c0-11.785156 9.550781-21.335937 21.332031-21.335937s21.335938 9.550781 21.335938 21.335937zm0 0" fill="#58abfb"></path><path d="m342.394531 332.214844 25.171875 60.371094-288.425781 55.359374 29.441406-70.824218zm0 0" fill="#fff"></path><path d="m319.886719 278.242188 22.507812 53.972656-233.8125 44.90625 26.453125-63.359375zm0 0" fill="#58abfb"></path><path d="m294.820312 217.867188 25.066407 60.375-184.851563 35.519531 29.546875-70.828125zm0 0" fill="#fff"></path><path d="m296.527344 54.988281-30.828125 29.972657 7.253906 42.453124-20.265625-10.667968-17.8125-9.386719-17.816406 9.386719-20.265625 10.667968 7.253906-42.453124-30.828125-29.972657 42.5625-6.1875 19.09375-38.613281 19.09375 38.613281zm0 0" fill="#58abfb"></path><path d="m272.3125 163.894531 22.507812 53.972657-130.238281 25.066406-29.546875 70.828125 55.890625-134.1875zm0 0" fill="#58abfb"></path><path d="m252.6875 116.746094 19.625 47.148437-81.386719 15.679688 26.132813-62.828125zm0 0" fill="#fff"></path><path d="m53.539062 266.082031c0 11.78125-9.550781 21.332031-21.332031 21.332031s-21.332031-9.550781-21.332031-21.332031c0-11.785156 9.550781-21.335937 21.332031-21.335937s21.332031 9.550781 21.332031 21.335937zm0 0" fill="#58abfb"></path><g fill="#107be8"><path d="m405.539062 447.414062h-3.5625l-24.53125-58.921874-25.238281-60.386719-22.496093-53.941407-25.066407-60.371093-22.507812-53.972657-9.035157-21.738281c3.113282-.046875 6.050782-1.445312 8.042969-3.835937 1.992188-2.390625 2.84375-5.535156 2.328125-8.601563l-6.316406-36.949219 26.816406-26.058593c2.914063-2.835938 3.96875-7.078125 2.710938-10.945313-1.253906-3.867187-4.597656-6.683594-8.621094-7.265625l-37.011719-5.332031-16.578125-33.644531c-1.996094-3.375-5.632812-5.449219-9.554687-5.449219-3.925781 0-7.5625 2.074219-9.558594 5.449219l-16.621094 33.601562-37.011719 5.332031c-4.023437.582032-7.367187 3.398438-8.621093 7.265626-1.257813 3.867187-.203125 8.109374 2.710937 10.945312l26.773438 26.101562-6.3125 36.925782c-.546875 3.074218.296875 6.230468 2.300781 8.621094 2.003906 2.394531 4.964844 3.773437 8.085937 3.773437l-15.582031 37.453125-82.335937 197.523438-29.429688 70.804687-1.527344 3.617187h-3.582031c-17.671875 0-32 14.328126-32 32v21.332032c0 5.890625 4.777344 10.667968 10.667969 10.667968h384c5.890625 0 10.664062-4.777343 10.664062-10.667968v-21.332032c0-17.671874-14.324218-32-32-32zm-26.664062 0h-240.351562l222.546874-42.667968zm-236.246094-124.246093 170.75-32.820313 14.125 33.867188-201.429687 38.6875zm55.976563-134.195313 67.203125-12.960937 14.121094 33.855469-97.929688 18.878906zm25.601562-61.558594h21.332031l11.851563 28.480469-49.066406 9.449219zm80.832031 142.828126-152.535156 29.300781 19.703125-47.222657 116.085938-22.335937zm-87.722656-210.882813c3.46875-.507813 6.46875-2.6875 8.019532-5.832031l9.539062-19.277344 9.535156 19.277344c1.550782 3.144531 4.550782 5.324218 8.019532 5.832031l21.140624 3.074219-15.316406 14.847656c-2.515625 2.449219-3.664062 5.980469-3.070312 9.4375l3.617187 21.152344-18.957031-9.984375c-3.109375-1.636719-6.828125-1.636719-9.941406 0l-18.953125 9.984375 3.65625-21.117188c.59375-3.460937-.554688-6.992187-3.070313-9.441406l-15.359375-14.878906zm-101.089844 327.160156 219.660157-42.1875 16.789062 40.253907-256.074219 49.152343zm299.980469 103.5625h-362.667969v-10.667969c0-5.890624 4.777344-10.667968 10.667969-10.667968h341.332031c5.890626 0 10.667969 4.777344 10.667969 10.667968zm0 0"></path><path d="m341.539062 234.082031h21.335938c.058594-52.996093 43.003906-95.941406 96-96v-21.335937c-64.769531.078125-117.257812 52.566406-117.335938 117.335937zm0 0"></path><path d="m96.207031 234.082031h21.332031c-.074218-64.769531-52.5625-117.257812-117.332031-117.335937v21.335937c52.996094.058594 95.941407 43.003907 96 96zm0 0"></path><path d="m437.539062 244.746094h-21.332031v10.667968h-10.667969v21.332032h10.667969v10.667968h21.332031v-10.667968h10.667969v-21.332032h-10.667969zm0 0"></path><path d="m74.875 84.746094h21.332031v-10.664063h10.667969v-21.335937h-10.667969v-10.664063h-21.332031v10.664063h-10.667969v21.335937h10.667969zm0 0"></path><path d="m64.207031 266.082031c0-17.675781-14.328125-32-32-32s-32 14.324219-32 32c0 17.671875 14.328125 32 32 32s32-14.328125 32-32zm-42.667969 0c0-5.894531 4.777344-10.667969 10.667969-10.667969s10.667969 4.773438 10.667969 10.667969c0 5.890625-4.777344 10.664063-10.667969 10.664063s-10.667969-4.773438-10.667969-10.664063zm0 0"></path><path d="m373.539062 74.082031c17.675782 0 32-14.328125 32-32 0-17.675781-14.324218-32-32-32-17.671874 0-32 14.324219-32 32 0 17.671875 14.328126 32 32 32zm0-42.667969c5.890626 0 10.667969 4.773438 10.667969 10.667969 0 5.890625-4.777343 10.664063-10.667969 10.664063-5.890624 0-10.664062-4.773438-10.664062-10.664063 0-5.894531 4.773438-10.667969 10.664062-10.667969zm0 0"></path></g></svg>