<?xml version="1.0" encoding="UTF-8"?>
<svg id="_Слой_1" data-name="Слой 1" xmlns="http://www.w3.org/2000/svg" viewBox="0 0 248.69 248.69">
  <defs>
    <style>
      .cls-1 {
        fill: #293379;
      }

      .cls-2 {
        fill: #7ba8da;
      }
    </style>
  </defs>
  <path class="cls-1" d="M194.44,70.09h-15.83v-15.83c0-29.91-24.34-54.25-54.25-54.25s-54.26,24.34-54.26,54.25v108.82h-15.83c-21.27-.04-38.73-17.54-38.73-38.73,0-19.09,14.16-35.17,32.5-38.22,3.76-.62,6.52-3.85,6.52-7.66,0-4.37-3.57-7.76-7.77-7.76-.43,0-.86.04-1.31.11C19.81,75.1,0,97.61,0,124.35c0,29.71,24.47,54.22,54.25,54.25h15.83v15.83c0,29.91,24.34,54.25,54.26,54.25s54.25-24.34,54.25-54.25v-108.82h15.41c21.36-.19,39.03,17.25,39.16,38.51.11,19.17-14.1,35.39-32.52,38.44-3.76.62-6.52,3.86-6.52,7.66h0c0,4.81,4.33,8.44,9.08,7.66,25.66-4.27,45.49-26.79,45.49-53.53,0-29.7-24.46-54.22-54.25-54.26ZM163.08,194.44c0,21.36-17.37,38.73-38.73,38.73s-38.73-17.38-38.73-38.73V54.25c0-21.36,17.37-38.73,38.73-38.73s38.73,17.38,38.73,38.73v140.18Z"/>
  <g>
    <path class="cls-2" d="M134.1,169.19h-19.51c-9.51,0-17.24-7.73-17.24-17.24v-55.2c0-9.51,7.73-17.24,17.24-17.24h19.51c9.51,0,17.24,7.73,17.24,17.24v55.2c0,9.51-7.73,17.24-17.24,17.24ZM115.29,151.25h18.12v-53.81h-18.12v53.81Z"/>
    <circle class="cls-2" cx="124.35" cy="52.96" r="8.97"/>
    <circle class="cls-2" cx="124.35" cy="195.73" r="8.97"/>
  </g>
</svg>