<svg width="240" height="288" viewBox="0 0 240 288" fill="none" xmlns="http://www.w3.org/2000/svg">
<g clip-path="url(#clip0_15_2)">
<path d="M39.2261 200.372L18.3726 196.725L9.75891 245.978L30.6124 249.625L39.2261 200.372Z" fill="#62748E"/>
<path d="M209.371 249.632L230.224 245.985L221.611 196.733L200.757 200.38L209.371 249.632Z" fill="#62748E"/>
<path d="M36 212C50.3594 212 62 200.359 62 186C62 171.641 50.3594 160 36 160C21.6406 160 10 171.641 10 186C10 200.359 21.6406 212 36 212Z" fill="#51A2FF"/>
<path d="M204 212C218.359 212 230 200.359 230 186C230 171.641 218.359 160 204 160C189.641 160 178 171.641 178 186C178 200.359 189.641 212 204 212Z" fill="#51A2FF"/>
<path d="M150.5 120H89.5V162H150.5V120Z" fill="#62748E"/>
<path d="M67.6 0H172.39C195.9 0 214.99 19.09 214.99 42.6V105.4C214.99 124.49 199.49 139.99 180.4 139.99H59.59C40.5 139.99 25 124.49 25 105.4V42.6C25 19.09 44.09 0 67.6 0Z" fill="#ADD5FF"/>
<path d="M59.77 41H180.22C188.37 41 194.99 47.62 194.99 55.77V105.52C194.99 113.51 188.5 120 180.51 120H59.48C51.49 120 45 113.51 45 105.52V55.77C45 47.62 51.62 41 59.77 41Z" fill="#62748E"/>
<path d="M125.78 13H114.22C111.889 13 110 14.8894 110 17.22V18.78C110 21.1106 111.889 23 114.22 23H125.78C128.111 23 130 21.1106 130 18.78V17.22C130 14.8894 128.111 13 125.78 13Z" fill="#62748E"/>
<path d="M15.05 45H16.93C21.38 45 25 48.62 25 53.07V97.93C25 102.38 21.38 106 16.93 106H15.05C9.51 106 5 101.5 5 95.95V55.04C5 49.5 9.5 44.99 15.05 44.99V45Z" fill="#51A2FF"/>
<path d="M224.95 106H223.07C218.62 106 215 102.38 215 97.93V53.07C215 48.62 218.62 45 223.07 45H224.95C230.49 45 235 49.5 235 55.05V95.96C235 101.5 230.5 106.01 224.95 106.01V106Z" fill="#51A2FF"/>
<path d="M75.5 86C81.299 86 86 81.299 86 75.5C86 69.701 81.299 65 75.5 65C69.701 65 65 69.701 65 75.5C65 81.299 69.701 86 75.5 86Z" fill="#DBEAFE"/>
<path d="M164.5 86C170.299 86 175 81.299 175 75.5C175 69.701 170.299 65 164.5 65C158.701 65 154 69.701 154 75.5C154 81.299 158.701 86 164.5 86Z" fill="#DBEAFE"/>
<path d="M141 86.8C141 91.28 139 95.32 135.77 98.26C132.54 101.19 128.07 103 123.14 103H116.86C106.99 103 99 95.75 99 86.8C99 85.75 99.47 84.8 100.23 84.11C100.99 83.42 102.04 83 103.19 83H136.81C139.12 83 141 84.7 141 86.8Z" fill="#DBEAFE"/>
<path d="M69.49 158H170.5C180.98 158 189.49 166.51 189.49 176.99V218.5C189.49 256.86 119.99 288 119.99 288C119.99 288 50.49 256.86 50.49 218.5V176.99C50.49 166.51 59 158 69.48 158H69.49Z" fill="#ADD5FF"/>
<path d="M18 232C27.93 232 36 240.07 36 250V279.98C36 283.85 32.86 287 28.98 287H7.02C3.14 287 0 283.86 0 279.98V250C0 240.07 8.07 232 18 232Z" fill="#51A2FF"/>
<path d="M222 232C231.93 232 240 240.07 240 250V279.98C240 283.85 236.86 287 232.98 287H211.01C207.14 287 203.99 283.86 203.99 279.98V250C203.99 240.07 212.06 232 221.99 232H222Z" fill="#51A2FF"/>
<path d="M125.05 186H115.03C111.998 186 109.54 188.458 109.54 191.49V241.51C109.54 244.542 111.998 247 115.03 247H125.05C128.082 247 130.54 244.542 130.54 241.51V191.49C130.54 188.458 128.082 186 125.05 186Z" fill="#FF7D80"/>
<path d="M89.54 211.49V221.51C89.54 224.542 91.998 227 95.03 227H145.05C148.082 227 150.54 224.542 150.54 221.51V211.49C150.54 208.458 148.082 206 145.05 206H95.03C91.998 206 89.54 208.458 89.54 211.49Z" fill="#FF7D80"/>
</g>
<defs>
<clipPath id="clip0_15_2">
<rect width="240" height="288" fill="white"/>
</clipPath>
</defs>
</svg>
